<?xml version="1.0" ?>
<svg xmlns="http://www.w3.org/2000/svg" version="1.1" width="512" height="512">
  <defs/>
  <g>
    <path d="M -6.745847225189209 -6.433133125305176 C -6.834938049316406 168.59280395507812 -7.2802019119262695 339.5451965332031 -7.316645622253418 519.7591552734375 C 169.82513427734375 520.5431518554688 340.3190002441406 521.1244506835938 518.4356689453125 521.2630615234375 C 518.6234130859375 339.9013671875 519.2393798828125 169.16629028320312 520.15673828125 -4.056439399719238 C 340.6656188964844 -5.0006489753723145 170.33026123046875 -5.842865943908691 -6.745847225189209 -6.433133125305176" stroke-width="0.0" fill="rgb(113, 79, 44)" opacity="0.99655634" stroke="rgb(0, 0, 0)" stroke-opacity="1.0" stroke-linecap="round" stroke-linejoin="round"/>
    <path d="M 0.7101791501045227 -7.272171497344971 C 0.9879998564720154 100.9685287475586 2.705518960952759 187.28231811523438 0.2884975075721741 308.5463562011719 C 29.4545841217041 307.4263916015625 71.8896713256836 308.037353515625 84.61566925048828 305.85552978515625 C 98.464599609375 302.83013916015625 98.81365966796875 297.6502990722656 104.81974792480469 293.2501220703125 C 112.59210968017578 274.0994873046875 117.55061340332031 254.03480529785156 128.92282104492188 244.4793701171875 C 138.74795532226562 234.9416961669922 153.26177978515625 230.11697387695312 168.98318481445312 228.97300720214844 C 175.65090942382812 226.24078369140625 195.1888427734375 229.99417114257812 203.83355712890625 232.87759399414062 C 217.97360229492188 238.48880004882812 231.95758056640625 245.82305908203125 242.54220581054688 254.901611328125 C 252.11346435546875 262.2936706542969 259.6270751953125 273.6680603027344 263.7658386230469 284.86138916015625 C 269.997314453125 302.4264221191406 268.4975891113281 320.93328857421875 273.14361572265625 327.09393310546875 C 277.8250732421875 337.01580810546875 284.3481750488281 342.3559265136719 290.1651916503906 344.84515380859375 C 296.5901794433594 346.8194580078125 310.482666015625 349.3001708984375 308.31890869140625 348.1947326660156 C 314.4109191894531 333.5171813964844 318.7806091308594 319.349365234375 326.1575012207031 309.4938659667969 C 331.80816650390625 304.04620361328125 337.2122497558594 298.7236633300781 342.04693603515625 295.3318786621094 C 354.31207275390625 288.67852783203125 366.48724365234375 286.4779357910156 383.2216491699219 284.8172912597656 C 385.8968811035156 286.47393798828125 396.7906494140625 285.7613220214844 406.85638427734375 289.73681640625 C 417.7558288574219 293.7657775878906 431.6164855957031 303.61285400390625 436.4054260253906 319.30810546875 C 436.8490295410156 325.4168395996094 438.6080627441406 334.1614074707031 434.8758544921875 345.821533203125 C 430.27099609375 358.9421691894531 419.285400390625 368.29400634765625 404.55804443359375 375.7977600097656 C 385.4923095703125 383.6053466796875 372.75762939453125 382.22259521484375 347.2997131347656 379.2550048828125 C 357.2215576171875 415.31878662109375 355.7510986328125 467.31024169921875 359.13885498046875 522.4185180664062 C 405.1559753417969 521.4356689453125 457.60845947265625 520.1817016601562 519.0892944335938 519.17041015625 C 519.3501586914062 341.25408935546875 519.5620727539062 170.6073760986328 519.7257080078125 -7.172314167022705 C 341.57330322265625 -7.121707916259766 172.00152587890625 -7.045314311981201 0.7101791501045227 -7.272171497344971" stroke-width="0.0" fill="rgb(85, 83, 64)" opacity="0.8500373" stroke="rgb(0, 0, 0)" stroke-opacity="1.0" stroke-linecap="round" stroke-linejoin="round"/>
    <path d="M -5.967936038970947 312.2548522949219 C -7.146530628204346 376.67474365234375 -7.503754615783691 442.54052734375 -7.88651704788208 520.5825805664062 C 117.95491790771484 520.718017578125 240.2109375 521.4887084960938 356.26202392578125 522.41650390625 C 353.974609375 463.89453125 353.6606140136719 413.7989501953125 345.9875183105469 383.9875183105469 C 339.8221130371094 370.8558349609375 324.443115234375 365.9997253417969 315.2918701171875 355.4035949707031 C 299.10382080078125 349.7127990722656 279.1625671386719 350.7449035644531 272.2401428222656 336.6356201171875 C 263.9616394042969 323.0348815917969 269.6986999511719 297.4496765136719 256.7273254394531 276.1786193847656 C 248.0179443359375 259.6986389160156 231.1127471923828 248.72293090820312 213.2025604248047 239.0694122314453 C 204.00173950195312 234.5499725341797 193.8237762451172 231.00994873046875 176.8321990966797 229.73158264160156 C 169.5519256591797 230.0160369873047 157.46633911132812 231.9691619873047 149.89703369140625 234.1573028564453 C 139.46499633789062 237.94337463378906 131.08544921875 243.66339111328125 123.39185333251953 253.4497528076172 C 113.7982177734375 267.633544921875 113.94154357910156 292.6060791015625 105.06753540039062 303.381103515625 C 83.72628021240234 313.4130859375 32.03343963623047 306.2374267578125 -5.967936038970947 312.2548522949219" stroke-width="0.0" fill="rgb(210, 92, 59)" opacity="0.9711016" stroke="rgb(0, 0, 0)" stroke-opacity="1.0" stroke-linecap="round" stroke-linejoin="round"/>
    <path d="M 346.38397216796875 294.24884033203125 C 338.25201416015625 298.2184753417969 332.657470703125 304.6832580566406 325.5807189941406 311.6741638183594 C 320.4256591796875 318.8572998046875 317.78466796875 330.317138671875 311.3594970703125 341.3463134765625 C 310.5589294433594 352.61260986328125 322.1576232910156 356.16534423828125 329.70068359375 364.60003662109375 C 336.66241455078125 369.49267578125 343.3849792480469 374.6014099121094 353.56884765625 377.5723571777344 C 362.0365295410156 381.2920227050781 377.130859375 380.58416748046875 387.9277038574219 379.0534362792969 C 404.6314392089844 376.1958312988281 418.5270080566406 366.90936279296875 428.60443115234375 355.23529052734375 C 433.1536560058594 346.3381042480469 438.79083251953125 337.2154541015625 435.8677978515625 322.8305969238281 C 434.36883544921875 314.9429626464844 428.6932067871094 304.72772216796875 420.4273681640625 299.2322998046875 C 412.5483703613281 291.893798828125 402.5985412597656 288.03924560546875 388.6011657714844 287.0846252441406 C 376.29693603515625 285.8329772949219 358.3218688964844 288.05303955078125 346.38397216796875 294.24884033203125" stroke-width="0.0" fill="rgb(201, 176, 65)" opacity="0.9617206" stroke="rgb(0, 0, 0)" stroke-opacity="1.0" stroke-linecap="round" stroke-linejoin="round"/>
    <path d="M 521.0054931640625 310.72186279296875 C 487.71038818359375 313.54180908203125 457.9048767089844 311.2890625 434.0670166015625 312.21807861328125 C 437.6410827636719 319.27734375 437.88531494140625 335.7431335449219 435.69622802734375 341.319580078125 C 431.6056823730469 355.6777038574219 423.89703369140625 362.699951171875 415.20623779296875 368.6033935546875 C 407.5259704589844 374.314697265625 396.5115966796875 378.9156494140625 383.3297424316406 380.732666015625 C 368.3929138183594 382.9920654296875 360.92596435546875 380.21490478515625 346.6610412597656 377.65655517578125 C 356.79046630859375 411.0959777832031 355.2569580078125 467.5824890136719 359.4831237792969 522.7424926757812 C 405.7862243652344 521.2462768554688 458.1210021972656 520.048828125 518.9566650390625 518.9736938476562 C 519.8584594726562 443.325439453125 520.7470703125 375.5946350097656 521.0054931640625 310.72186279296875" stroke-width="0.0" fill="rgb(137, 98, 68)" opacity="0.87262475" stroke="rgb(0, 0, 0)" stroke-opacity="1.0" stroke-linecap="round" stroke-linejoin="round"/>
    <path d="M 314.3390808105469 101.67195892333984 C 317.6588439941406 105.9365005493164 308.7490539550781 99.5130386352539 309.10064697265625 101.84382629394531 C 301.05438232421875 117.76106262207031 296.9772033691406 135.79444885253906 290.1249084472656 153.2548370361328 C 280.05169677734375 177.47019958496094 259.8656311035156 193.8738250732422 251.5479736328125 220.06143188476562 C 250.46922302246094 232.03343200683594 252.4315185546875 252.8359375 250.3541259765625 255.54486083984375 C 272.52197265625 285.8471374511719 269.21746826171875 312.9227294921875 276.0494689941406 325.6130676269531 C 284.4527587890625 338.46295166015625 302.48260498046875 342.99951171875 310.0479736328125 341.3499755859375 C 318.3587646484375 322.4064025878906 322.15447998046875 309.2605285644531 339.2051086425781 297.6880187988281 C 351.8135986328125 289.10064697265625 369.33013916015625 284.4984436035156 391.5068054199219 284.8180847167969 C 391.03436279296875 278.3811950683594 382.6064453125 283.770751953125 384.0278625488281 276.65777587890625 C 386.9022216796875 237.8107147216797 379.8414611816406 188.5589141845703 380.4011535644531 158.03219604492188 C 373.4697265625 137.71263122558594 370.07598876953125 129.52880859375 357.685546875 119.69303131103516 C 347.1178894042969 114.03694152832031 328.2332458496094 108.40092468261719 314.3390808105469 101.67195892333984" stroke-width="0.0" fill="rgb(166, 134, 88)" opacity="0.9424993" stroke="rgb(0, 0, 0)" stroke-opacity="1.0" stroke-linecap="round" stroke-linejoin="round"/>
    <path d="M 106.33699035644531 299.6474304199219 C 109.69535064697266 298.6913757324219 118.5280990600586 302.5955810546875 124.30937194824219 305.4150695800781 C 130.6411590576172 309.0118103027344 131.81118774414062 323.49725341796875 155.82122802734375 322.1681213378906 C 167.53953552246094 315.234619140625 173.5843963623047 318.7132568359375 208.51882934570312 318.56805419921875 C 250.94192504882812 321.1270446777344 247.79388427734375 330.19403076171875 265.50201416015625 327.973876953125 C 267.597900390625 303.26434326171875 263.6658630371094 283.95550537109375 254.0719451904297 271.212646484375 C 247.5084686279297 261.07904052734375 238.70848083496094 254.50692749023438 229.48736572265625 248.50595092773438 C 217.4959716796875 241.47653198242188 206.9765625 233.96426391601562 193.90850830078125 231.6970672607422 C 180.04576110839844 229.51019287109375 173.22494506835938 228.91867065429688 162.40179443359375 231.02432250976562 C 151.42138671875 232.3598175048828 141.72413635253906 237.25135803222656 135.6320343017578 241.02142333984375 C 128.88531494140625 246.62693786621094 124.43031311035156 250.58970642089844 119.80030822753906 259.31439208984375 C 115.14677429199219 272.7039794921875 110.66879272460938 288.5791931152344 106.33699035644531 299.6474304199219" stroke-width="0.0" fill="rgb(193, 124, 85)" opacity="0.71133673" stroke="rgb(0, 0, 0)" stroke-opacity="1.0" stroke-linecap="round" stroke-linejoin="round"/>
    <path d="M 346.3995056152344 385.8498840332031 C 342.19708251953125 372.6523132324219 328.7880859375 365.3602600097656 316.74444580078125 356.6711120605469 C 287.08685302734375 360.5702819824219 255.307861328125 366.02294921875 214.62808227539062 370.8779296875 C 177.83106994628906 371.5392150878906 145.3868865966797 367.3929443359375 111.03282928466797 361.97772216796875 C 93.49007415771484 361.3863220214844 72.20304107666016 364.0054626464844 57.087947845458984 366.5861511230469 C 58.68320083618164 369.8031921386719 63.62644958496094 366.1527099609375 67.55268096923828 369.4986267089844 C 52.09073257446289 369.2144470214844 55.434165954589844 378.40771484375 47.85811233520508 380.5750732421875 C 25.515283584594727 397.4223327636719 19.966278076171875 420.03094482421875 5.994777202606201 436.8871765136719 C 1.596453309059143 438.0724182128906 6.30037260055542 427.3354187011719 2.7562508583068848 427.46038818359375 C 1.6764798164367676 454.583740234375 -0.3805379867553711 482.7652893066406 1.672349452972412 522.0823974609375 C 113.9090347290039 522.9299926757812 232.81924438476562 522.7076416015625 358.3039855957031 522.8064575195312 C 355.55596923828125 466.35540771484375 352.9499816894531 420.5330505371094 346.3995056152344 385.8498840332031" stroke-width="0.0" fill="rgb(212, 56, 35)" opacity="0.8914169" stroke="rgb(0, 0, 0)" stroke-opacity="1.0" stroke-linecap="round" stroke-linejoin="round"/>
    <path d="M 97.27294158935547 307.2320861816406 C 102.03942108154297 309.7630310058594 115.26329803466797 307.5325012207031 128.9683074951172 310.7661437988281 C 127.33132934570312 302.1549072265625 119.2274169921875 302.91168212890625 114.16972351074219 299.91729736328125 C 106.66468811035156 298.6524963378906 97.33057403564453 300.01220703125 97.27294158935547 307.2320861816406" stroke-width="0.0" fill="rgb(189, 88, 52)" opacity="0.8093513" stroke="rgb(0, 0, 0)" stroke-opacity="1.0" stroke-linecap="round" stroke-linejoin="round"/>
    <path d="M 307.0979309082031 70.93387603759766 C 305.9986877441406 90.01215362548828 307.1878967285156 85.82782745361328 298.76092529296875 97.18487548828125 C 307.90380859375 104.42418670654297 323.9007873535156 105.39851379394531 337.9044189453125 110.64752197265625 C 336.1174011230469 90.91506958007812 330.7830505371094 95.65129089355469 330.2284851074219 75.18608093261719 C 328.6076354980469 68.6440200805664 310.7191467285156 67.05897521972656 307.0979309082031 70.93387603759766" stroke-width="0.0" fill="rgb(142, 120, 90)" opacity="0.9139232" stroke="rgb(0, 0, 0)" stroke-opacity="1.0" stroke-linecap="round" stroke-linejoin="round"/>
    <path d="M 519.8822631835938 309.19305419921875 C 486.2709045410156 307.1916198730469 464.1289978027344 311.1676940917969 432.1033935546875 309.667724609375 C 436.080322265625 322.2961120605469 437.8194274902344 332.0438232421875 434.7625732421875 343.683837890625 C 431.614013671875 354.7605285644531 426.0256042480469 360.99609375 417.6830749511719 367.1059265136719 C 409.4085388183594 373.61334228515625 399.4334716796875 379.2625427246094 385.75177001953125 380.6649169921875 C 367.8955993652344 381.6706237792969 359.0599365234375 380.9927062988281 345.0145263671875 376.8946228027344 C 352.6464538574219 396.1803894042969 352.450439453125 418.7550964355469 355.4439697265625 438.7966613769531 C 409.5894470214844 440.329345703125 458.35205078125 437.0837097167969 519.5318603515625 438.2469482421875 C 519.1220703125 392.6135559082031 519.2259521484375 349.0301818847656 519.8822631835938 309.19305419921875" stroke-width="0.0" fill="rgb(148, 124, 80)" opacity="0.8695935" stroke="rgb(0, 0, 0)" stroke-opacity="1.0" stroke-linecap="round" stroke-linejoin="round"/>
    <path d="M 518.8038940429688 438.8792419433594 C 462.6811828613281 438.224365234375 409.5579833984375 441.2451171875 355.6576232910156 439.6715393066406 C 357.0275573730469 464.3397216796875 357.7111511230469 488.2590637207031 360.5673828125 518.989013671875 C 410.3270568847656 519.1801147460938 460.64691162109375 519.2538452148438 518.7017822265625 519.3268432617188 C 518.6818237304688 487.0368957519531 518.7407836914062 463.02398681640625 518.8038940429688 438.8792419433594" stroke-width="0.0" fill="rgb(141, 126, 74)" opacity="0.9481553" stroke="rgb(0, 0, 0)" stroke-opacity="1.0" stroke-linecap="round" stroke-linejoin="round"/>
    <path d="M 82.23214721679688 292.884521484375 C 80.78141784667969 298.23583984375 82.2557601928711 302.30535888671875 87.34221649169922 305.19635009765625 C 93.7074203491211 302.1486511230469 97.31657409667969 298.8011779785156 101.60913848876953 295.87744140625 C 107.80799102783203 296.81134033203125 115.11892700195312 298.774658203125 121.40127563476562 301.1142578125 C 132.29122924804688 304.7137145996094 131.78623962402344 310.3703308105469 137.0512237548828 319.5535583496094 C 140.30545043945312 321.7241516113281 143.6116485595703 324.497802734375 151.96974182128906 323.6631774902344 C 157.54202270507812 321.3951110839844 160.4786834716797 313.6589660644531 163.7396240234375 306.6145935058594 C 165.4767303466797 300.4403991699219 166.8194580078125 297.0664978027344 165.8009490966797 286.7930908203125 C 164.60667419433594 281.5994567871094 162.65963745117188 278.9766540527344 155.3874969482422 278.34625244140625 C 137.579345703125 282.21063232421875 124.9765396118164 282.53204345703125 115.14456176757812 277.7492370605469 C 95.5058364868164 278.21661376953125 87.3816909790039 284.3448181152344 82.23214721679688 292.884521484375" stroke-width="0.0" fill="rgb(149, 118, 61)" opacity="1.0" stroke="rgb(0, 0, 0)" stroke-opacity="1.0" stroke-linecap="round" stroke-linejoin="round"/>
    <path d="M 340.9385681152344 135.72621154785156 C 336.533935546875 142.3365478515625 341.5132141113281 153.47042846679688 343.3399658203125 160.0738983154297 C 348.568359375 169.62806701660156 353.2309875488281 184.87527465820312 363.0683288574219 187.2691192626953 C 370.48590087890625 186.1451873779297 369.773681640625 163.39805603027344 362.7010192871094 146.6168212890625 C 359.5787048339844 141.06546020507812 351.84918212890625 136.2767333984375 340.9385681152344 135.72621154785156" stroke-width="0.0" fill="rgb(79, 83, 67)" opacity="0.7658274" stroke="rgb(0, 0, 0)" stroke-opacity="1.0" stroke-linecap="round" stroke-linejoin="round"/>
    <path d="M -6.565611362457275 309.1703796386719 C -7.201080322265625 373.54083251953125 -7.5460968017578125 440.7663879394531 -7.826351165771484 519.190185546875 C 54.49319839477539 519.2640991210938 109.13741302490234 519.2886962890625 165.05087280273438 519.8763427734375 C 167.88319396972656 464.93255615234375 169.87620544433594 415.9602966308594 178.0881805419922 370.4774475097656 C 161.5498046875 367.85760498046875 139.9122314453125 369.1430969238281 119.94255828857422 363.8556213378906 C 116.44869232177734 362.78485107421875 113.25260162353516 356.6815185546875 107.14507293701172 354.34271240234375 C 102.97808074951172 344.9499206542969 102.36621856689453 321.36846923828125 99.57449340820312 310.37774658203125 C 65.70695495605469 308.8517150878906 32.24041748046875 308.4918518066406 -6.565611362457275 309.1703796386719" stroke-width="0.0" fill="rgb(195, 74, 58)" opacity="0.7598628" stroke="rgb(0, 0, 0)" stroke-opacity="1.0" stroke-linecap="round" stroke-linejoin="round"/>
    <path d="M 346.9586486816406 379.97076416015625 C 334.0968933105469 372.7114562988281 326.7882385253906 362.829833984375 321.3013000488281 357.89306640625 C 299.0074157714844 354.8455810546875 288.6071472167969 357.8299865722656 270.8159484863281 350.3576965332031 C 257.06829833984375 353.54010009765625 251.3981170654297 365.6375427246094 225.8218231201172 368.8944396972656 C 221.62307739257812 373.05615234375 209.11041259765625 366.4062194824219 181.37745666503906 372.97967529296875 C 171.9148406982422 413.92620849609375 169.57330322265625 460.71142578125 166.6866912841797 518.8228149414062 C 229.9390869140625 519.32421875 293.6583251953125 519.3794555664062 359.42230224609375 519.272705078125 C 353.1742858886719 465.95782470703125 352.98358154296875 418.2508239746094 346.9586486816406 379.97076416015625" stroke-width="0.0" fill="rgb(198, 78, 60)" opacity="0.81239486" stroke="rgb(0, 0, 0)" stroke-opacity="1.0" stroke-linecap="round" stroke-linejoin="round"/>
    <path d="M 118.85960388183594 259.84942626953125 C 117.82855987548828 263.5511169433594 114.34818267822266 273.4453430175781 114.02619934082031 279.0435791015625 C 141.43389892578125 280.16455078125 140.11370849609375 285.8302917480469 147.65145874023438 277.173095703125 C 166.86032104492188 277.2527160644531 166.53408813476562 280.36181640625 168.9446258544922 291.48016357421875 C 175.2025909423828 293.0944519042969 189.0310821533203 292.8595886230469 195.7941131591797 293.63604736328125 C 210.51084899902344 306.2286376953125 230.7389678955078 308.22314453125 250.41014099121094 318.3052673339844 C 255.6643829345703 313.9701232910156 262.4976501464844 309.7966003417969 264.7291259765625 299.6933288574219 C 265.7364196777344 286.21282958984375 260.7815246582031 279.98541259765625 253.6849822998047 269.79852294921875 C 237.04708862304688 255.1023712158203 219.6762237548828 238.70828247070312 198.21168518066406 231.73275756835938 C 165.1244659423828 224.60198974609375 172.86358642578125 228.8656463623047 148.17547607421875 233.37535095214844 C 133.93014526367188 238.9646453857422 124.56578826904297 245.62229919433594 118.85960388183594 259.84942626953125" stroke-width="0.0" fill="rgb(202, 99, 60)" opacity="0.71085" stroke="rgb(0, 0, 0)" stroke-opacity="1.0" stroke-linecap="round" stroke-linejoin="round"/>
    <path d="M 306.94744873046875 71.89192199707031 C 306.4525451660156 76.4484634399414 307.2532958984375 88.0933837890625 303.12249755859375 93.17347717285156 C 317.0631408691406 99.3912353515625 317.18798828125 89.66802978515625 330.7572937011719 92.38500213623047 C 331.89813232421875 81.29586029052734 330.5257873535156 74.2655258178711 327.59588623046875 71.72541046142578 C 322.8669128417969 69.19146728515625 307.8983459472656 66.70100402832031 306.94744873046875 71.89192199707031" stroke-width="0.0" fill="rgb(162, 144, 110)" opacity="1.0" stroke="rgb(0, 0, 0)" stroke-opacity="1.0" stroke-linecap="round" stroke-linejoin="round"/>
    <path d="M 264.32568359375 309.42401123046875 C 257.46600341796875 312.2724914550781 251.88047790527344 316.35345458984375 256.2955017089844 324.33612060546875 C 266.2989807128906 331.48486328125 262.98333740234375 343.6150207519531 271.7507629394531 344.0254211425781 C 267.1907958984375 330.9536437988281 265.903076171875 321.2797546386719 264.32568359375 309.42401123046875" stroke-width="0.0" fill="rgb(184, 178, 106)" opacity="0.8783286" stroke="rgb(0, 0, 0)" stroke-opacity="1.0" stroke-linecap="round" stroke-linejoin="round"/>
    <path d="M 348.23248291015625 379.4161376953125 C 353.373779296875 398.1549987792969 352.3082580566406 423.3923645019531 355.2471618652344 440.5576477050781 C 408.3395690917969 438.1188049316406 456.48004150390625 437.1480712890625 521.6976318359375 438.8606872558594 C 520.7904663085938 415.5080871582031 520.4201049804688 396.6063537597656 521.758544921875 379.618896484375 C 454.8513488769531 380.0147399902344 399.2845458984375 384.9115905761719 348.23248291015625 379.4161376953125" stroke-width="0.0" fill="rgb(160, 128, 73)" opacity="0.7918852" stroke="rgb(0, 0, 0)" stroke-opacity="1.0" stroke-linecap="round" stroke-linejoin="round"/>
    <path d="M 520.3262939453125 306.75506591796875 C 485.0815124511719 309.67034912109375 454.6121520996094 308.7042236328125 434.4189147949219 311.57830810546875 C 436.55975341796875 328.98236083984375 437.5434875488281 344.1815490722656 431.2522277832031 353.66180419921875 C 459.3135070800781 355.5348205566406 485.4971618652344 352.22412109375 520.5423583984375 353.1115417480469 C 519.3042602539062 334.4653015136719 520.8440551757812 318.01239013671875 520.3262939453125 306.75506591796875" stroke-width="0.0" fill="rgb(136, 108, 72)" opacity="0.7534488" stroke="rgb(0, 0, 0)" stroke-opacity="1.0" stroke-linecap="round" stroke-linejoin="round"/>
    <path d="M 156.58155822753906 239.86521911621094 C 154.1128692626953 244.78842163085938 156.8933563232422 243.8983612060547 155.70541381835938 245.47442626953125 C 167.48153686523438 242.68295288085938 165.98983764648438 256.68780517578125 171.54971313476562 245.78363037109375 C 172.4302978515625 242.65174865722656 161.3592529296875 240.66549682617188 156.58155822753906 239.86521911621094" stroke-width="0.0" fill="rgb(220, 192, 165)" opacity="1.0" stroke="rgb(0, 0, 0)" stroke-opacity="1.0" stroke-linecap="round" stroke-linejoin="round"/>
    <path d="M 353.9371032714844 423.8918151855469 C 354.8477783203125 429.3564758300781 351.90936279296875 434.5932922363281 355.7713623046875 440.52935791015625 C 405.86431884765625 438.044921875 458.49127197265625 439.1868591308594 518.4619140625 439.33349609375 C 517.3152465820312 433.5809631347656 517.609619140625 427.9986877441406 518.8258666992188 423.2628173828125 C 455.8307800292969 421.3965759277344 406.5765075683594 424.6271667480469 353.9371032714844 423.8918151855469" stroke-width="0.0" fill="rgb(177, 149, 115)" opacity="0.9903097" stroke="rgb(0, 0, 0)" stroke-opacity="1.0" stroke-linecap="round" stroke-linejoin="round"/>
  </g>
</svg>
