<?xml version="1.0" ?>
<svg xmlns="http://www.w3.org/2000/svg" version="1.1" width="512" height="512">
  <defs/>
  <g>
    <path d="M 306.7991638183594 108.34683227539062 C 305.6192932128906 120.11615753173828 303.4433288574219 143.29983520507812 293.26611328125 165.71641540527344 C 290.8395690917969 208.18057250976562 313.7727355957031 137.55740356445312 306.9227600097656 109.11215209960938 C 302.76275634765625 151.8839874267578 304.157470703125 125.21861267089844 306.7991638183594 108.34683227539062" stroke-width="0.0" fill="rgb(64, 89, 114)" opacity="1.0" stroke="rgb(0, 0, 0)" stroke-opacity="1.0" stroke-linecap="round" stroke-linejoin="round"/>
    <path d="M 273.3888854980469 209.6339874267578 C 273.61962890625 202.0904541015625 281.649658203125 206.99295043945312 276.2362976074219 204.3389892578125 C 276.8792724609375 203.3204345703125 266.63018798828125 206.44189453125 272.1230163574219 218.63442993164062 C 286.42413330078125 229.13497924804688 288.1330261230469 208.31309509277344 291.75958251953125 207.88307189941406 C 272.4366149902344 194.70672607421875 267.21368408203125 215.0724639892578 273.3888854980469 209.6339874267578" stroke-width="0.0" fill="rgb(67, 91, 116)" opacity="1.0" stroke="rgb(0, 0, 0)" stroke-opacity="1.0" stroke-linecap="round" stroke-linejoin="round"/>
    <path d="M 285.8519592285156 199.3521728515625 C 284.0093078613281 199.14984130859375 280.8612060546875 199.7011260986328 283.23443603515625 198.19322204589844 C 284.5093994140625 198.69932556152344 291.97821044921875 202.27003479003906 293.9583740234375 206.2018280029297 C 294.45074462890625 212.6697998046875 285.7677307128906 220.0590057373047 288.3619384765625 220.48118591308594 C 278.0047912597656 227.77011108398438 273.0634460449219 231.4805450439453 269.12518310546875 223.69869995117188 C 269.058349609375 212.87655639648438 269.31591796875 210.0542755126953 268.6654052734375 211.94712829589844 C 272.39691162109375 204.35755920410156 275.6311340332031 193.23524475097656 290.8600769042969 205.71075439453125 C 266.6679382324219 203.21746826171875 275.1366882324219 220.0457000732422 273.61358642578125 218.4403839111328 C 281.77886962890625 218.95443725585938 285.68975830078125 216.7969512939453 287.7630615234375 211.0144500732422 C 287.0601501464844 213.6257781982422 287.49285888671875 210.32235717773438 284.8779602050781 216.2887725830078 C 287.2313232421875 204.51698303222656 290.2850646972656 201.69992065429688 285.8519592285156 199.3521728515625" stroke-width="0.0" fill="rgb(31, 42, 48)" opacity="1.0" stroke="rgb(0, 0, 0)" stroke-opacity="1.0" stroke-linecap="round" stroke-linejoin="round"/>
    <path d="M 154.25796508789062 365.0921630859375 C 155.7769012451172 368.01824951171875 152.19943237304688 365.62841796875 152.38026428222656 366.9688720703125 C 149.64939880371094 373.5670166015625 147.9498748779297 377.5991516113281 148.39125061035156 376.3250427246094 C 144.62501525878906 375.31146240234375 144.74996948242188 375.8550720214844 144.75440979003906 375.7512512207031 C 145.16770935058594 375.619873046875 142.31236267089844 377.0455627441406 136.85015869140625 380.69451904296875 C 134.9617462158203 379.81793212890625 135.74835205078125 373.2701416015625 134.72174072265625 371.1412353515625 C 135.5787353515625 373.18768310546875 134.8924102783203 374.9397888183594 136.0435333251953 379.7306213378906 C 136.32093811035156 380.256591796875 132.57810974121094 379.0243835449219 134.92904663085938 380.4405517578125 C 132.81471252441406 379.37384033203125 135.6503448486328 381.10845947265625 134.0811767578125 379.7774353027344 C 132.69601440429688 379.534423828125 133.24269104003906 379.7630310058594 136.02259826660156 379.86505126953125 C 137.48329162597656 381.4114074707031 138.07928466796875 382.34771728515625 136.87232971191406 380.7359924316406 C 136.30003356933594 381.1171569824219 138.25633239746094 379.59197998046875 144.98858642578125 375.74560546875 C 150.8448028564453 376.1183776855469 154.28500366210938 380.0174560546875 152.54417419433594 378.3411560058594 C 154.53329467773438 380.04888916015625 152.08128356933594 377.40582275390625 148.51251220703125 376.3585205078125 C 151.307861328125 370.0876770019531 152.63949584960938 365.0110778808594 154.25796508789062 365.0921630859375" stroke-width="0.0" fill="rgb(255, 173, 131)" opacity="0.49343365" stroke="rgb(0, 0, 0)" stroke-opacity="1.0" stroke-linecap="round" stroke-linejoin="round"/>
    <path d="M 334.92510986328125 311.77545166015625 C 335.4433288574219 315.23138427734375 334.2021789550781 320.17291259765625 334.8842468261719 317.0732116699219 C 335.1980285644531 313.35162353515625 335.0080261230469 321.5450134277344 332.0641174316406 321.07958984375 C 334.51019287109375 321.2425231933594 335.4460754394531 316.0706787109375 334.931884765625 311.860107421875 C 340.63055419921875 312.11004638671875 344.08026123046875 314.34490966796875 345.6137390136719 317.0572814941406 C 346.6878967285156 319.5321044921875 346.0361633300781 320.3121337890625 346.1631164550781 317.89361572265625 C 346.24224853515625 321.1439208984375 346.4766845703125 317.6183166503906 346.2518005371094 321.3056335449219 C 347.266357421875 315.8655090332031 342.48626708984375 312.4104919433594 334.92510986328125 311.77545166015625" stroke-width="0.0" fill="rgb(255, 255, 166)" opacity="0.46397412" stroke="rgb(0, 0, 0)" stroke-opacity="1.0" stroke-linecap="round" stroke-linejoin="round"/>
    <path d="M 112.8772964477539 282.9533386230469 C 110.27754211425781 280.9138488769531 115.24551391601562 286.9844665527344 112.384765625 283.75152587890625 C 113.97294616699219 285.3042907714844 112.6641616821289 284.0819396972656 111.7419662475586 281.83612060546875 C 112.70793151855469 283.42767333984375 111.50906372070312 281.7994079589844 112.8772964477539 282.9533386230469" stroke-width="0.0" fill="rgb(255, 250, 196)" opacity="0.53241867" stroke="rgb(0, 0, 0)" stroke-opacity="1.0" stroke-linecap="round" stroke-linejoin="round"/>
  </g>
</svg>
