<?xml version="1.0" ?>
<svg xmlns="http://www.w3.org/2000/svg" version="1.1" width="512" height="512">
  <defs/>
  <g>
    <path d="M 293.0746765136719 190.2061767578125 C 290.6579284667969 188.7787322998047 293.16583251953125 188.8268585205078 293.7286682128906 189.79302978515625 C 293.5198974609375 188.83827209472656 293.30841064453125 188.06756591796875 303.16436767578125 193.391357421875 C 292.71978759765625 192.66015625 284.39385986328125 194.10284423828125 294.0149230957031 192.4647674560547 C 292.2217102050781 186.185302734375 278.7449951171875 183.69227600097656 284.1543884277344 187.09495544433594 C 273.9204406738281 189.26800537109375 264.7850646972656 199.91799926757812 257.84698486328125 208.79742431640625 C 253.997802734375 215.628662109375 247.47711181640625 226.81671142578125 247.73121643066406 235.02981567382812 C 249.6747589111328 235.97271728515625 249.82183837890625 241.48777770996094 245.27737426757812 246.97084045410156 C 251.57986450195312 245.48121643066406 259.8133544921875 242.5417022705078 263.2873840332031 244.3343048095703 C 261.6748352050781 243.55543518066406 266.69281005859375 243.95794677734375 265.9698486328125 244.10232543945312 C 266.1062927246094 245.221923828125 265.659912109375 239.40199279785156 266.2547912597656 239.9882354736328 C 274.8215637207031 235.30706787109375 283.3616943359375 232.65274047851562 281.5225524902344 227.33441162109375 C 286.3036804199219 228.82455444335938 282.316650390625 227.9639892578125 284.0565185546875 222.75445556640625 C 288.26806640625 226.03829956054688 288.249755859375 220.0336151123047 287.8624267578125 216.22645568847656 C 287.7932434082031 219.7975311279297 289.09454345703125 217.3316192626953 282.9342346191406 218.2057342529297 C 283.1629943847656 215.64129638671875 283.1748046875 207.40341186523438 278.709228515625 204.54556274414062 C 283.4809875488281 199.9121551513672 287.30523681640625 197.02593994140625 293.26373291015625 195.5908966064453 C 293.04150390625 199.40367126464844 292.95025634765625 206.19305419921875 294.01641845703125 202.8737030029297 C 297.8491516113281 201.97613525390625 294.5711364746094 205.9124755859375 296.600830078125 206.3199005126953 C 294.0972595214844 204.8995819091797 291.0228576660156 208.07420349121094 292.37176513671875 203.0239715576172 C 301.9808044433594 204.39283752441406 302.4502868652344 197.75396728515625 304.1700744628906 190.459228515625 C 298.998046875 188.78904724121094 289.82623291015625 193.0664520263672 293.0746765136719 190.2061767578125" stroke-width="0.0" fill="rgb(19, 33, 32)" opacity="1.0" stroke="rgb(0, 0, 0)" stroke-opacity="1.0" stroke-linecap="round" stroke-linejoin="round"/>
  </g>
</svg>
