<?xml version="1.0" ?>
<svg xmlns="http://www.w3.org/2000/svg" version="1.1" width="512" height="512">
  <defs/>
  <g>
    <path d="M 126.40214538574219 138.10472106933594 C 108.6058120727539 115.40345764160156 93.2076644897461 132.9767303466797 93.76175689697266 129.0978546142578 C 85.62659454345703 137.19081115722656 82.0644760131836 142.90504455566406 80.19605255126953 152.7973175048828 C 77.15318298339844 166.59259033203125 70.31761932373047 156.65841674804688 82.66580200195312 185.3374481201172 C 112.44328308105469 225.0364990234375 88.97003936767578 218.12294006347656 101.04673767089844 235.45001220703125 C 98.64639282226562 192.70745849609375 103.93193054199219 205.7044677734375 100.78543090820312 237.48448181152344 C 103.9403076171875 209.25717163085938 104.80609130859375 212.09388732910156 106.57154846191406 205.82484436035156 C 102.62760162353516 190.9309844970703 85.6821517944336 177.18455505371094 84.9266586303711 161.59571838378906 C 83.01908111572266 154.46371459960938 87.02769470214844 127.18974304199219 108.67945861816406 129.475830078125 C 130.47525024414062 134.02523803710938 116.24015808105469 134.6076202392578 129.56875610351562 150.06129455566406 C 129.26829528808594 118.45348358154297 111.04492950439453 117.71497344970703 126.40214538574219 138.10472106933594" stroke-width="0.0" fill="rgb(36, -103, -176)" opacity="0.40910816" stroke="rgb(0, 0, 0)" stroke-opacity="1.0" stroke-linecap="round" stroke-linejoin="round"/>
    <path d="M 350.2456970214844 -6.4677934646606445 C 345.39544677734375 -10.560708045959473 334.9754638671875 -7.736236572265625 321.8897705078125 -3.330700397491455 C 324.2832946777344 7.712487697601318 319.392578125 4.710324764251709 327.4266662597656 13.657220840454102 C 317.00872802734375 7.507751941680908 319.94757080078125 11.620979309082031 319.39971923828125 -1.7409420013427734 C 307.1711730957031 7.142571926116943 317.9998779296875 12.596839904785156 317.0149230957031 7.828631401062012 C 321.4947204589844 39.49781036376953 315.47039794921875 69.10494232177734 312.6781921386719 98.37760162353516 C 313.7393493652344 87.91285705566406 307.0041809082031 84.56950378417969 305.57684326171875 90.04871368408203 C 301.3026428222656 97.50961303710938 310.5101318359375 96.2109146118164 301.63995361328125 118.57862854003906 C 305.8462829589844 103.29724884033203 296.2634582519531 119.77396392822266 292.6699523925781 126.1921615600586 C 292.7147216796875 140.5823516845703 288.5452880859375 142.26336669921875 296.40576171875 146.20033264160156 C 284.26123046875 143.1815948486328 301.53765869140625 139.4963836669922 278.9185791015625 140.74497985839844 C 251.36192321777344 122.9373779296875 263.0368347167969 113.40202331542969 258.9078063964844 129.22683715820312 C 258.8060607910156 121.38311767578125 263.744384765625 160.47265625 228.69696044921875 134.72740173339844 C 220.69639587402344 140.44305419921875 214.4281005859375 131.7168426513672 210.94386291503906 144.64443969726562 C 221.7523956298828 198.4169921875 246.08738708496094 195.04388427734375 244.44082641601562 248.56289672851562 C 247.1927490234375 208.8553924560547 272.0471496582031 191.1027374267578 283.8472595214844 185.31533813476562 C 305.39593505859375 176.33750915527344 300.48468017578125 178.30679321289062 316.409912109375 177.47186279296875 C 333.23260498046875 110.17831420898438 343.6052551269531 74.61682891845703 350.2456970214844 -6.4677934646606445" stroke-width="0.0" fill="rgb(9, 38, 58)" opacity="0.82068807" stroke="rgb(0, 0, 0)" stroke-opacity="1.0" stroke-linecap="round" stroke-linejoin="round"/>
    <path d="M 402.7516784667969 -5.048618316650391 C 385.38348388671875 -7.988740921020508 372.5151672363281 -8.474289894104004 364.7864074707031 -9.402080535888672 C 360.4735107421875 33.6745719909668 351.36126708984375 67.37067413330078 344.5899353027344 111.68682861328125 C 337.0941162109375 117.3025131225586 336.96417236328125 166.1989288330078 323.1180114746094 178.30796813964844 C 339.0868225097656 175.72885131835938 300.5874938964844 180.8286590576172 307.061279296875 172.19264221191406 C 334.2408447265625 179.8848876953125 341.0872802734375 179.88037109375 347.3736572265625 183.79763793945312 C 358.23211669921875 188.6606903076172 364.5050048828125 194.48678588867188 372.9898376464844 203.1270751953125 C 378.6859130859375 137.23219299316406 391.482666015625 64.49622344970703 402.7516784667969 -5.048618316650391" stroke-width="0.0" fill="rgb(-6, 26, 38)" opacity="0.7658247" stroke="rgb(0, 0, 0)" stroke-opacity="1.0" stroke-linecap="round" stroke-linejoin="round"/>
    <path d="M 519.0297241210938 -7.437658309936523 C 489.5418395996094 -7.234379291534424 471.0691833496094 -6.849602699279785 454.52374267578125 -10.39178466796875 C 447.05023193359375 77.87007141113281 432.69122314453125 165.1795654296875 433.3925476074219 224.60824584960938 C 428.7799072265625 235.08978271484375 421.34564208984375 228.28890991210938 422.3163146972656 213.13134765625 C 424.626953125 149.39059448242188 436.4494934082031 73.59901428222656 445.7602233886719 -5.955888748168945 C 436.9130554199219 -8.20041275024414 422.133544921875 -3.7540981769561768 406.9538269042969 -1.7232067584991455 C 402.37359619140625 34.862667083740234 396.35125732421875 71.84642028808594 390.4957580566406 112.45479583740234 C 389.5842590332031 137.17002868652344 392.30462646484375 129.32196044921875 397.9007568359375 116.78748321533203 C 394.216796875 130.7246551513672 385.2513427734375 139.27601623535156 378.0057067871094 164.68984985351562 C 395.40203857421875 140.66372680664062 380.24261474609375 150.6334991455078 385.7101135253906 187.94622802734375 C 380.76373291015625 193.21604919433594 383.5926208496094 222.26641845703125 363.83538818359375 188.04608154296875 C 380.61907958984375 225.86355590820312 388.1253662109375 233.83067321777344 377.28668212890625 242.54315185546875 C 377.29547119140625 263.0577697753906 372.9343566894531 263.08428955078125 355.5785217285156 269.7533264160156 C 339.16455078125 269.5713806152344 317.04833984375 262.02490234375 334.617431640625 313.2162780761719 C 369.95587158203125 328.6612243652344 390.09857177734375 323.6834411621094 422.2141418457031 318.8782043457031 C 420.8194885253906 329.6689758300781 424.8570251464844 341.2491149902344 430.95697021484375 357.41253662109375 C 434.07568359375 369.4622497558594 440.5580139160156 380.69482421875 437.8620910644531 382.497314453125 C 432.63525390625 396.598876953125 430.46820068359375 402.85296630859375 427.3666687011719 408.3515625 C 423.8914794921875 420.4250793457031 416.8494873046875 420.1436462402344 393.8664855957031 433.4075012207031 C 419.2928771972656 438.31304931640625 414.447998046875 455.91412353515625 425.9175720214844 458.09881591796875 C 414.1268310546875 463.6474914550781 405.9098815917969 467.61846923828125 415.21429443359375 469.372802734375 C 411.3099670410156 468.0751037597656 404.71551513671875 466.80645751953125 401.027099609375 451.6834716796875 C 417.39019775390625 438.345703125 417.6666564941406 427.54522705078125 387.3524475097656 424.9779052734375 C 361.03741455078125 429.12640380859375 377.4015197753906 455.3216552734375 335.42437744140625 468.6624450683594 C 362.640869140625 464.6669921875 368.0887451171875 472.21551513671875 366.54144287109375 473.012451171875 C 370.8995666503906 476.8710632324219 380.8958435058594 474.1036682128906 377.2909240722656 481.816162109375 C 383.5303649902344 485.0751647949219 393.0226135253906 484.8640441894531 398.83538818359375 483.7345275878906 C 393.6431579589844 477.0508728027344 399.49639892578125 482.8504638671875 395.13916015625 468.25164794921875 C 368.8432922363281 467.3862609863281 349.3416748046875 485.4966735839844 333.9531555175781 475.4198303222656 C 313.9346618652344 481.0222473144531 297.22796630859375 486.93212890625 283.8759460449219 491.577392578125 C 312.8316345214844 474.90655517578125 342.24749755859375 477.7060241699219 351.012939453125 428.5726013183594 C 284.225830078125 436.0301818847656 236.49635314941406 487.0429992675781 172.17140197753906 487.5753173828125 C 152.96490478515625 488.1968994140625 143.7002410888672 474.8298645019531 128.9094696044922 472.5141906738281 C 112.78306579589844 462.8064270019531 112.48837280273438 460.33837890625 80.51798248291016 469.5180358886719 C 72.0733413696289 473.6590270996094 63.59654235839844 473.7887268066406 44.23645782470703 471.0357360839844 C 36.705841064453125 492.055419921875 26.526351928710938 502.2169494628906 8.374701499938965 519.3021240234375 C 23.742687225341797 501.7149963378906 35.48011779785156 491.1040954589844 49.148773193359375 483.5980529785156 C 61.52088165283203 480.79010009765625 71.14075469970703 470.5165100097656 103.58905792236328 465.3482360839844 C 104.59815216064453 464.16845703125 116.35591888427734 465.28021240234375 116.5780258178711 471.5861511230469 C 121.39362335205078 483.24444580078125 113.91464233398438 498.6676940917969 146.18682861328125 493.68682861328125 C 177.2857666015625 497.0470275878906 192.80026245117188 480.9175109863281 236.67588806152344 488.47430419921875 C 260.96954345703125 490.6958923339844 240.9622802734375 474.18212890625 266.8099365234375 479.225830078125 C 259.3349304199219 474.328125 261.37933349609375 498.3432312011719 238.32736206054688 521.104248046875 C 258.5661926269531 515.0352172851562 255.28350830078125 488.91510009765625 279.9387512207031 494.29345703125 C 286.21453857421875 498.4363708496094 300.5487976074219 495.5048522949219 331.1955261230469 500.6070556640625 C 337.6551513671875 502.8787536621094 352.7967834472656 507.1329345703125 350.6703796386719 502.69610595703125 C 345.38604736328125 516.9428100585938 355.9192199707031 502.5855407714844 356.51953125 500.84307861328125 C 369.66436767578125 498.8699951171875 357.6623840332031 504.3192138671875 367.8861083984375 516.6570434570312 C 402.41888427734375 518.423583984375 439.83416748046875 518.5587158203125 479.0182189941406 517.8374633789062 C 498.43597412109375 518.3182983398438 515.2052001953125 525.9719848632812 521.7991943359375 504.0407409667969 C 517.8748779296875 485.0663146972656 517.8955078125 477.08966064453125 518.9825439453125 466.9055480957031 C 510.7178039550781 461.8397216796875 504.85455322265625 462.3547058105469 505.43463134765625 456.4039001464844 C 503.8847351074219 453.5393371582031 509.4620056152344 448.06640625 520.7740478515625 435.5954895019531 C 519.078369140625 294.7509765625 519.1151733398438 147.14637756347656 519.0297241210938 -7.437658309936523" stroke-width="0.0" fill="rgb(-34, 30, 36)" opacity="0.5183707" stroke="rgb(0, 0, 0)" stroke-opacity="1.0" stroke-linecap="round" stroke-linejoin="round"/>
    <path d="M 182.55593872070312 331.012939453125 C 178.37991333007812 273.01318359375 171.17005920410156 270.009521484375 146.4877471923828 288.4035949707031 C 107.97518157958984 304.54742431640625 114.32438659667969 318.8260498046875 102.38140869140625 318.7046813964844 C 52.937713623046875 331.31768798828125 44.95906448364258 320.6133728027344 12.289973258972168 329.7607727050781 C 40.75225067138672 330.64886474609375 93.98148345947266 329.71282958984375 182.55593872070312 331.012939453125" stroke-width="0.0" fill="rgb(-87, -53, -53)" opacity="0.6495963" stroke="rgb(0, 0, 0)" stroke-opacity="1.0" stroke-linecap="round" stroke-linejoin="round"/>
    <path d="M 261.29296875 303.7247619628906 C 159.42469787597656 314.4593200683594 153.27976989746094 307.61846923828125 160.82965087890625 342.48065185546875 C 183.87161254882812 345.0233459472656 201.50367736816406 339.7860412597656 188.13330078125 347.85888671875 C 190.9792938232422 346.93865966796875 185.5949249267578 346.20867919921875 177.54376220703125 353.70648193359375 C 185.02528381347656 358.8177795410156 195.77786254882812 363.0004577636719 203.03533935546875 367.07879638671875 C 218.22909545898438 329.4779052734375 194.16403198242188 353.8717956542969 261.29296875 303.7247619628906" stroke-width="0.0" fill="rgb(-62, -27, -42)" opacity="0.67346483" stroke="rgb(0, 0, 0)" stroke-opacity="1.0" stroke-linecap="round" stroke-linejoin="round"/>
    <path d="M 203.12049865722656 367.3274230957031 C 186.09437561035156 363.2784729003906 170.76373291015625 357.6715087890625 176.86599731445312 353.86651611328125 C 172.6526336669922 370.50885009765625 161.54505920410156 373.24072265625 165.16957092285156 377.11956787109375 C 138.7511749267578 388.0503234863281 142.0955352783203 396.4322204589844 128.8973846435547 395.5845031738281 C 141.96636962890625 385.1855163574219 161.62960815429688 365.10394287109375 176.96908569335938 358.7997741699219 C 156.7296905517578 365.6566162109375 173.9171600341797 351.2982177734375 161.84739685058594 358.71044921875 C 145.3767547607422 355.252197265625 114.73321533203125 374.29364013671875 94.20846557617188 381.126708984375 C 97.39048767089844 380.8668212890625 112.3045654296875 389.7533264160156 110.48797607421875 390.3291320800781 C 100.86444091796875 385.0020446777344 102.43753051757812 400.5231628417969 101.24022674560547 389.09417724609375 C 109.53276062011719 382.77197265625 100.20561981201172 398.343505859375 101.70499420166016 393.6886291503906 C 122.6116943359375 416.3887634277344 105.27679443359375 409.3946533203125 116.00293731689453 429.2057189941406 C 93.10269927978516 434.4349365234375 114.37045288085938 428.83184814453125 103.28422546386719 430.51995849609375 C 102.85916137695312 420.8328857421875 104.46281433105469 440.1100158691406 94.22718811035156 432.4742431640625 C 74.9120101928711 435.1014404296875 76.22832489013672 419.1207275390625 61.085716247558594 422.60101318359375 C 35.31471252441406 418.34619140625 45.93120193481445 405.42547607421875 45.82611846923828 404.2808837890625 C 9.082771301269531 413.7947998046875 -3.020451545715332 434.4969482421875 1.015185832977295 409.4117431640625 C -6.256036758422852 424.2962341308594 -5.73612117767334 434.5501708984375 -2.1273915767669678 437.68499755859375 C 8.80340576171875 427.73223876953125 33.551307678222656 417.85345458984375 43.55002212524414 416.75848388671875 C 44.14372253417969 421.1059265136719 42.57784652709961 423.53424072265625 42.83232498168945 420.2142639160156 C 29.772045135498047 426.166015625 10.97082805633545 430.8013610839844 -1.9556005001068115 441.26202392578125 C -6.42254114151001 436.9962463378906 -6.624813556671143 437.16290283203125 0.4072023332118988 449.0458068847656 C -2.2285661697387695 442.22918701171875 29.756486892700195 444.27490234375 48.66569900512695 438.5365295410156 C 47.85918426513672 440.3575439453125 51.864322662353516 445.4460144042969 54.61265182495117 449.1039733886719 C 30.264177322387695 453.1534118652344 7.714967727661133 455.5986633300781 -1.879408359527588 469.364501953125 C -8.086265563964844 461.560302734375 -6.308172225952148 485.58203125 3.4692928791046143 524.5966186523438 C -2.948059320449829 506.77752685546875 4.9684858322143555 489.50347900390625 8.873669624328613 480.2787170410156 C 4.136688709259033 469.76580810546875 4.114627361297607 476.4063720703125 4.9976725578308105 467.3727722167969 C 7.595052242279053 461.59613037109375 10.013895988464355 461.8304748535156 28.439754486083984 458.2845458984375 C 41.20255661010742 458.22784423828125 34.22789764404297 456.0907287597656 55.17766571044922 453.0581359863281 C 58.093318939208984 456.7369689941406 68.58873748779297 460.90570068359375 63.1775016784668 462.542724609375 C 80.91663360595703 457.94085693359375 96.67388153076172 456.51068115234375 111.55268859863281 458.7684020996094 C 175.3055877685547 441.28509521484375 142.58108520507812 451.9210205078125 145.60716247558594 446.9609375 C 168.29965209960938 431.36541748046875 189.8413848876953 437.9471740722656 191.441650390625 435.990966796875 C 190.78623962402344 440.14044189453125 206.66575622558594 449.4942321777344 213.16677856445312 448.634521484375 C 208.5127410888672 433.0677795410156 201.1795654296875 415.21844482421875 201.87509155273438 413.0792541503906 C 179.7530975341797 422.5804138183594 154.6442108154297 427.8121032714844 135.27781677246094 435.1212463378906 C 134.69895935058594 429.218994140625 129.93223571777344 419.9005126953125 125.88311767578125 409.8907470703125 C 148.62925720214844 411.5170593261719 177.08958435058594 411.6916809082031 203.95944213867188 413.2119445800781 C 190.74400329589844 394.7741394042969 195.3674774169922 392.5536193847656 203.12049865722656 367.3274230957031" stroke-width="0.0" fill="rgb(-14, 2, 0)" opacity="0.8073808" stroke="rgb(0, 0, 0)" stroke-opacity="1.0" stroke-linecap="round" stroke-linejoin="round"/>
    <path d="M 343.80499267578125 183.9422607421875 C 357.4659118652344 202.91473388671875 355.6313171386719 200.7805938720703 365.8525085449219 205.27752685546875 C 358.9518127441406 208.2159881591797 359.30499267578125 226.60708618164062 371.07757568359375 223.58612060546875 C 377.44696044921875 202.6271209716797 370.19384765625 226.2602081298828 373.14251708984375 225.59970092773438 C 373.8291320800781 227.4226531982422 374.1973571777344 230.7677001953125 367.81304931640625 220.1391143798828 C 370.6241760253906 231.3756561279297 374.18719482421875 233.16127014160156 363.2745666503906 217.38088989257812 C 363.6363830566406 233.4170379638672 362.28680419921875 235.8430633544922 365.6412048339844 238.06747436523438 C 360.47900390625 230.21023559570312 355.6601867675781 241.8323974609375 359.7452697753906 253.6884765625 C 362.19439697265625 245.47320556640625 358.1478576660156 243.3448486328125 361.94830322265625 248.15670776367188 C 354.6237487792969 250.52456665039062 353.7022705078125 248.64393615722656 348.3911437988281 253.0022735595703 C 348.0978088378906 260.27581787109375 351.0428161621094 252.60826110839844 346.9462585449219 249.25062561035156 C 337.4638366699219 253.13442993164062 342.9630126953125 244.1264190673828 352.2109069824219 250.4475555419922 C 334.0294494628906 250.3409881591797 336.9502868652344 248.2115478515625 331.78839111328125 256.5439147949219 C 335.0910339355469 247.53211975097656 340.5157470703125 251.28688049316406 333.607666015625 246.044921875 C 331.80377197265625 254.91455078125 329.28973388671875 247.45681762695312 322.7156677246094 248.71644592285156 C 301.2421875 260.9051818847656 308.98370361328125 277.5617980957031 295.2267761230469 273.5796813964844 C 300.8808288574219 279.3676452636719 304.8561096191406 271.7411804199219 303.396484375 276.1718444824219 C 300.01165771484375 277.73101806640625 300.06689453125 286.018310546875 295.55712890625 284.45672607421875 C 302.07757568359375 287.3022766113281 307.3241271972656 300.31597900390625 319.84735107421875 300.5858154296875 C 326.0674133300781 305.26739501953125 333.39898681640625 313.5444641113281 323.6122131347656 315.5610656738281 C 321.9450378417969 322.2178039550781 309.7193908691406 319.50006103515625 281.54583740234375 319.13665771484375 C 289.9366455078125 321.4366760253906 299.9089660644531 321.32275390625 313.32159423828125 326.1016540527344 C 296.2978515625 324.1938781738281 287.7025146484375 321.1605224609375 277.1159973144531 321.8760070800781 C 328.1198425292969 335.3771667480469 351.3050537109375 327.63592529296875 386.8992614746094 324.8710632324219 C 416.63336181640625 323.1142883300781 403.94793701171875 327.11004638671875 415.97393798828125 331.9325866699219 C 422.27032470703125 341.6417236328125 420.02203369140625 349.4729919433594 420.6070251464844 360.8965148925781 C 414.78009033203125 358.4684753417969 416.61383056640625 359.6953125 414.2733459472656 360.43212890625 C 431.5621337890625 359.4707946777344 408.968505859375 375.7320556640625 425.0360107421875 359.07440185546875 C 428.83880615234375 380.41497802734375 416.4808349609375 368.80279541015625 422.0185241699219 373.6595458984375 C 427.13433837890625 364.7838439941406 436.3818359375 374.785400390625 432.5903625488281 385.32000732421875 C 387.33990478515625 395.75146484375 341.2918395996094 406.61346435546875 296.20391845703125 410.8782958984375 C 274.7397766113281 413.5504455566406 282.67681884765625 410.2713317871094 275.3233337402344 397.0773010253906 C 288.4780578613281 403.64532470703125 296.4063415527344 395.72064208984375 300.3782653808594 398.9236145019531 C 295.0846862792969 393.9313049316406 280.4629211425781 405.6127014160156 270.700439453125 381.70489501953125 C 297.6121826171875 387.8647766113281 297.31390380859375 386.1816711425781 298.4468688964844 383.9692077636719 C 303.0205383300781 380.54534912109375 291.6837463378906 391.46600341796875 290.237060546875 384.0128479003906 C 297.4721374511719 378.0107116699219 290.1165771484375 380.0371398925781 288.28826904296875 367.2365417480469 C 293.29541015625 358.0439758300781 290.6588439941406 358.8435363769531 297.9709777832031 367.04736328125 C 293.6481018066406 361.4588623046875 291.2627258300781 358.9976501464844 293.1278991699219 361.0905456542969 C 289.3019714355469 358.619873046875 291.18988037109375 365.4277038574219 288.5991516113281 365.540283203125 C 276.3130798339844 360.8382873535156 282.12646484375 360.31719970703125 288.0753479003906 348.027587890625 C 280.00299072265625 361.3459777832031 285.3313903808594 364.6832275390625 267.501708984375 363.3838806152344 C 262.22174072265625 356.4847717285156 268.4173583984375 352.8412780761719 266.6956787109375 350.9006652832031 C 264.7718505859375 358.0513610839844 269.36639404296875 354.7860107421875 262.971923828125 358.1286926269531 C 257.05206298828125 349.9152526855469 260.8702087402344 346.7224426269531 256.8963928222656 347.540283203125 C 263.1295471191406 368.296142578125 271.0323486328125 388.05145263671875 277.61431884765625 410.1676330566406 C 276.366455078125 431.9402160644531 264.9556579589844 441.2250061035156 264.2643127441406 457.82049560546875 C 330.8532409667969 500.0613098144531 359.0394592285156 475.3183898925781 464.545654296875 453.9150085449219 C 512.8429565429688 381.0748291015625 497.5090637207031 426.2840270996094 431.208740234375 421.7308349609375 C 432.3191223144531 412.79229736328125 444.7572021484375 410.52264404296875 441.86614990234375 394.7931823730469 C 440.0688781738281 380.10736083984375 444.8327331542969 370.003662109375 444.46759033203125 350.81298828125 C 434.99969482421875 338.65509033203125 428.8585205078125 325.47784423828125 418.8560791015625 317.5943603515625 C 411.87408447265625 312.16021728515625 404.41424560546875 310.4248352050781 397.75006103515625 313.5591125488281 C 375.1789245605469 310.9042053222656 351.7259216308594 308.90679931640625 345.4457702636719 313.7276306152344 C 361.2008056640625 322.9788818359375 370.10626220703125 312.76849365234375 377.04022216796875 303.58197021484375 C 385.6472473144531 292.3624572753906 392.6221008300781 279.0812072753906 393.548095703125 256.4996643066406 C 393.97515869140625 234.53839111328125 388.22747802734375 220.5721435546875 384.36517333984375 179.5914764404297 C 368.4809265136719 223.362548828125 378.1309814453125 192.17384338378906 343.80499267578125 183.9422607421875" stroke-width="0.0" fill="rgb(129, 165, 169)" opacity="0.6312594" stroke="rgb(0, 0, 0)" stroke-opacity="1.0" stroke-linecap="round" stroke-linejoin="round"/>
    <path d="M 259.09674072265625 128.9991912841797 C 136.55645751953125 99.12190246582031 220.66627502441406 120.47968292236328 121.17798614501953 114.99146270751953 C 134.84132385253906 124.45421600341797 150.7029266357422 119.60456085205078 144.2121124267578 128.16847229003906 C 155.3741455078125 140.16650390625 165.9510955810547 169.3695526123047 175.6641082763672 168.27574157714844 C 174.21646118164062 194.9339599609375 180.6515655517578 177.57630920410156 189.67884826660156 174.23873901367188 C 188.94529724121094 188.10595703125 184.5657501220703 184.9186248779297 185.66046142578125 201.1006622314453 C 190.2854766845703 206.1750030517578 195.68508911132812 212.4139862060547 194.35455322265625 218.04318237304688 C 179.74319458007812 209.06871032714844 190.7373504638672 225.9559326171875 173.37014770507812 224.95901489257812 C 193.28289794921875 218.9639129638672 196.65370178222656 221.71095275878906 181.31723022460938 207.31573486328125 C 180.91339111328125 230.24085998535156 173.9584503173828 238.4363250732422 162.67092895507812 236.29908752441406 C 150.04006958007812 238.4600067138672 145.41055297851562 259.1846618652344 108.32425689697266 259.56671142578125 C 126.79751586914062 271.8716735839844 125.8479232788086 270.9691162109375 135.20977783203125 271.63653564453125 C 128.32571411132812 263.889892578125 133.81027221679688 265.9662170410156 104.98351287841797 265.2772521972656 C 112.31035614013672 285.97760009765625 127.28054809570312 283.5600891113281 118.21597290039062 271.0671691894531 C 91.72932434082031 266.7748718261719 122.50827026367188 282.0647888183594 89.46536254882812 306.6300354003906 C 92.6401596069336 339.6562805175781 116.43971252441406 269.7587890625 129.20468139648438 335.2065734863281 C 126.30513000488281 328.17626953125 135.85804748535156 332.24993896484375 160.7662811279297 335.2657470703125 C 145.9653778076172 344.40521240234375 129.3691864013672 324.5377197265625 105.20274353027344 331.4599914550781 C 180.20556640625 352.1484375 161.34141540527344 335.92486572265625 212.5867919921875 338.25750732421875 C 241.79847717285156 330.950927734375 254.12950134277344 313.67425537109375 257.73675537109375 297.0365295410156 C 241.67660522460938 255.4603271484375 238.11183166503906 233.02667236328125 263.9196472167969 199.95933532714844 C 289.1404113769531 183.7898406982422 250.14279174804688 162.7266082763672 257.24090576171875 142.098876953125 C 246.4597930908203 152.1376495361328 266.4743957519531 138.0113983154297 259.09674072265625 128.9991912841797" stroke-width="0.0" fill="rgb(99, 63, 51)" opacity="0.71133584" stroke="rgb(0, 0, 0)" stroke-opacity="1.0" stroke-linecap="round" stroke-linejoin="round"/>
    <path d="M 289.9764404296875 317.396728515625 C 276.8428955078125 310.4631042480469 267.3439025878906 301.8382873535156 261.15045166015625 296.7281799316406 C 256.1081237792969 291.2850341796875 248.18707275390625 279.4119873046875 243.17816162109375 246.4419403076172 C 222.80392456054688 330.494873046875 175.84352111816406 296.01641845703125 203.84519958496094 339.9836120605469 C 230.31312561035156 333.0584411621094 265.1535339355469 329.2000427246094 299.0417785644531 324.4170227050781 C 289.0411682128906 317.0166931152344 321.8599853515625 325.9422302246094 289.9764404296875 317.396728515625" stroke-width="0.0" fill="rgb(29, 18, 14)" opacity="0.8819029" stroke="rgb(0, 0, 0)" stroke-opacity="1.0" stroke-linecap="round" stroke-linejoin="round"/>
    <path d="M 60.48317337036133 146.6034393310547 C 30.17786979675293 145.01368713378906 14.775644302368164 151.6254119873047 -8.934497833251953 147.40016174316406 C -6.552152633666992 171.10464477539062 -6.419689178466797 189.5983123779297 -6.767867565155029 205.43441772460938 C -2.7389652729034424 207.5347137451172 9.402504920959473 210.24502563476562 6.713563442230225 196.88548278808594 C 1.11196768283844 203.5727081298828 1.0402703285217285 206.21527099609375 -7.417503356933594 203.63836669921875 C -8.474535942077637 231.74862670898438 -7.88566255569458 259.6505126953125 -6.711667537689209 287.1897277832031 C 6.806982040405273 290.4312438964844 8.100889205932617 280.1819152832031 23.814329147338867 277.9014892578125 C 24.2430362701416 281.3558044433594 19.509855270385742 276.49432373046875 14.98994255065918 276.8455810546875 C 16.890371322631836 271.7002868652344 26.651884078979492 261.8096923828125 30.608335494995117 258.8482971191406 C 16.044151306152344 256.3420104980469 32.392147064208984 243.24554443359375 24.555356979370117 247.86553955078125 C 29.610483169555664 238.21241760253906 37.205841064453125 242.798095703125 40.12468338012695 240.8737030029297 C 33.848350524902344 239.3057098388672 32.44742202758789 242.70257568359375 25.445297241210938 241.4341278076172 C 24.153989791870117 232.5241241455078 36.03849411010742 226.0321502685547 48.05176544189453 230.36178588867188 C 42.4943733215332 225.30865478515625 42.22206115722656 231.9897918701172 34.3856201171875 227.53074645996094 C 42.64668273925781 222.33668518066406 36.75597381591797 216.02572631835938 48.45128631591797 214.09335327148438 C 29.71152114868164 226.19871520996094 27.217134475708008 239.86831665039062 23.26194953918457 212.829345703125 C 33.277870178222656 207.40402221679688 19.845474243164062 210.2799072265625 25.734987258911133 220.73983764648438 C 23.68997573852539 199.5205535888672 27.27459144592285 212.1422119140625 38.8676872253418 205.76031494140625 C 39.232418060302734 205.0273895263672 34.6564826965332 217.68763732910156 39.027374267578125 213.47393798828125 C 36.998130798339844 202.88699340820312 36.084842681884766 207.37091064453125 51.72860336303711 202.56150817871094 C 37.72509765625 205.03062438964844 29.044235229492188 206.91082763671875 25.475000381469727 203.8195037841797 C 34.497589111328125 193.3087921142578 30.17860984802246 199.98377990722656 47.286041259765625 197.42506408691406 C 45.359092712402344 200.3625030517578 48.17670440673828 196.3341064453125 48.02464294433594 195.19627380371094 C 31.220256805419922 196.7706298828125 35.496543884277344 194.8895721435547 42.067752838134766 189.0155792236328 C 37.758758544921875 185.74269104003906 39.54466247558594 196.88462829589844 41.30526351928711 197.16436767578125 C 37.939353942871094 186.56602478027344 34.01308822631836 191.3131103515625 24.12421989440918 183.23056030273438 C 39.738956451416016 185.73223876953125 27.24852180480957 175.34130859375 39.4854736328125 188.4170684814453 C 29.278453826904297 178.45504760742188 19.239259719848633 178.4346160888672 35.80634307861328 178.36248779296875 C 43.5265998840332 174.41067504882812 19.685007095336914 176.94883728027344 39.56215286254883 173.07260131835938 C 51.891414642333984 171.37844848632812 33.219749450683594 170.56419372558594 27.03353500366211 167.98837280273438 C 47.87388610839844 164.1562957763672 52.93973922729492 161.53591918945312 45.00588607788086 162.5570831298828 C 35.72446060180664 161.273681640625 42.675941467285156 166.0669403076172 41.771324157714844 152.23277282714844 C 41.89802932739258 151.3339385986328 41.254276275634766 156.8164520263672 39.00800323486328 162.85960388183594 C 35.8149528503418 153.5859375 43.99711990356445 155.72952270507812 31.375925064086914 155.7322540283203 C 46.35497283935547 153.59283447265625 44.02870559692383 145.66366577148438 43.13516616821289 160.02346801757812 C 48.689029693603516 142.25607299804688 43.53842544555664 149.4841766357422 60.48317337036133 146.6034393310547" stroke-width="0.0" fill="rgb(54, 0, -69)" opacity="0.19444445" stroke="rgb(0, 0, 0)" stroke-opacity="1.0" stroke-linecap="round" stroke-linejoin="round"/>
    <path d="M 32.14178466796875 289.5657043457031 C 36.30683898925781 290.7590026855469 28.771881103515625 290.629638671875 19.585933685302734 290.7119445800781 C 20.244319915771484 296.8831481933594 15.607622146606445 299.0895080566406 12.493096351623535 296.8947448730469 C 14.082632064819336 299.7311096191406 0.454183965921402 303.9169616699219 7.4217705726623535 290.6119079589844 C -1.2631906270980835 306.1206359863281 -8.506202697753906 310.67779541015625 -5.326163291931152 325.1632995605469 C 26.39307975769043 300.7596435546875 48.73871612548828 333.1278076171875 93.57829284667969 283.5014343261719 C 102.5138168334961 271.25494384765625 40.660919189453125 304.5130920410156 18.348054885864258 302.9246520996094 C 28.75960922241211 296.2677917480469 36.687744140625 293.0343322753906 32.14178466796875 289.5657043457031" stroke-width="0.0" fill="rgb(63, 57, -48)" opacity="0.21305285" stroke="rgb(0, 0, 0)" stroke-opacity="1.0" stroke-linecap="round" stroke-linejoin="round"/>
    <path d="M 83.70204162597656 497.4476318359375 C 83.60433959960938 514.5635986328125 93.06053924560547 501.9919128417969 111.08393096923828 501.2018737792969 C 125.33234405517578 495.6955871582031 130.1002960205078 495.4837646484375 123.3377685546875 492.6225280761719 C 118.53226470947266 489.94598388671875 120.43097686767578 497.5797119140625 113.36346435546875 497.39947509765625 C 159.49893188476562 494.03216552734375 165.07920837402344 484.6495056152344 205.79843139648438 495.37493896484375 C 214.06826782226562 489.3827209472656 243.6228790283203 477.614990234375 251.4517364501953 486.979248046875 C 226.94618225097656 487.33489990234375 204.90028381347656 480.7364807128906 165.07080078125 494.7447509765625 C 124.3949203491211 490.4335021972656 139.72430419921875 492.5399169921875 130.30172729492188 462.61895751953125 C 93.18042755126953 475.927978515625 102.4583511352539 473.75335693359375 83.70204162597656 497.4476318359375" stroke-width="0.0" fill="rgb(163, 164, 141)" opacity="0.62690216" stroke="rgb(0, 0, 0)" stroke-opacity="1.0" stroke-linecap="round" stroke-linejoin="round"/>
    <path d="M 106.71045684814453 126.68067169189453 C 99.85720825195312 124.8785400390625 101.7739486694336 130.67391967773438 99.23890686035156 130.86074829101562 C 87.99781036376953 130.92970275878906 82.35233306884766 135.6485595703125 80.82644653320312 162.80712890625 C 88.772705078125 144.13491821289062 84.78663635253906 152.84046936035156 86.83419036865234 160.12557983398438 C 87.86127471923828 151.68292236328125 87.19552612304688 155.18263244628906 89.72689056396484 150.41439819335938 C 94.3284912109375 151.0499267578125 84.29495239257812 151.2025909423828 95.94760131835938 155.86610412597656 C 86.55510711669922 157.07623291015625 99.39341735839844 162.37791442871094 80.55821990966797 160.72291564941406 C 88.55036163330078 172.4258270263672 90.98709106445312 189.5959014892578 103.83334350585938 196.7720184326172 C 95.40785217285156 200.42355346679688 103.05518341064453 189.9750518798828 100.58153533935547 184.02508544921875 C 107.01461791992188 180.96092224121094 100.9910888671875 193.36322021484375 109.84637451171875 181.90957641601562 C 100.73655700683594 180.53286743164062 99.60940551757812 178.63314819335938 100.00708770751953 184.154541015625 C 108.5048599243164 174.2135772705078 98.71774291992188 162.61270141601562 103.94449615478516 166.2699737548828 C 107.33907318115234 169.71009826660156 98.67755889892578 176.92962646484375 101.88866424560547 169.70074462890625 C 105.46460723876953 160.76553344726562 110.84082794189453 167.20623779296875 126.5693359375 161.7279510498047 C 121.6572265625 156.4152069091797 112.55079650878906 163.80905151367188 111.18968200683594 153.252685546875 C 120.85181427001953 147.28189086914062 114.74598693847656 152.65341186523438 126.29092407226562 152.18289184570312 C 118.21611022949219 150.6846160888672 120.21431732177734 145.2676239013672 112.39002990722656 145.68870544433594 C 108.75773620605469 157.48556518554688 116.31993103027344 148.37802124023438 117.05735778808594 157.71434020996094 C 113.09907531738281 157.7241973876953 99.20215606689453 157.5057373046875 96.03662109375 157.2566375732422 C 98.31365966796875 154.38465881347656 91.71133422851562 150.75926208496094 105.351806640625 145.63551330566406 C 93.2846450805664 154.7899932861328 93.47895050048828 151.83868408203125 113.7560043334961 151.58702087402344 C 102.22565460205078 147.2843475341797 86.83810424804688 147.2899932861328 86.74118041992188 147.35194396972656 C 87.60134887695312 139.76791381835938 92.73487091064453 132.365234375 97.47604370117188 127.04348754882812 C 103.93119812011719 131.77235412597656 110.52781677246094 127.17955780029297 119.7152328491211 133.35598754882812 C 124.20813751220703 114.0826644897461 113.57138061523438 119.44952392578125 106.71045684814453 126.68067169189453" stroke-width="0.0" fill="rgb(-125, -193, -247)" opacity="0.054061987" stroke="rgb(0, 0, 0)" stroke-opacity="1.0" stroke-linecap="round" stroke-linejoin="round"/>
    <path d="M 271.6652526855469 380.28631591796875 C 258.8816223144531 382.0456237792969 268.88885498046875 389.84027099609375 265.3693542480469 386.46160888671875 C 258.4211120605469 398.79791259765625 259.5314025878906 405.42913818359375 253.52584838867188 408.5246276855469 C 260.2519226074219 404.4725341796875 261.8633117675781 411.143798828125 252.04637145996094 419.2281799316406 C 258.68817138671875 417.927978515625 256.94598388671875 425.6903076171875 248.9605255126953 431.0003356933594 C 250.3717041015625 420.4822082519531 244.24966430664062 426.7068786621094 245.27789306640625 415.6905212402344 C 242.25921630859375 420.630126953125 242.25245666503906 416.4238586425781 241.08580017089844 416.7729187011719 C 240.2023468017578 415.72314453125 244.34202575683594 407.98052978515625 248.41050720214844 412.3533020019531 C 243.54168701171875 406.4644775390625 244.36114501953125 402.1865539550781 240.95115661621094 402.8221740722656 C 243.4245147705078 396.4804382324219 246.25050354003906 399.681884765625 253.53028869628906 400.5179443359375 C 250.36264038085938 390.9359130859375 261.7006530761719 392.7325439453125 253.19956970214844 388.4434509277344 C 258.70037841796875 379.80755615234375 253.38153076171875 387.0889892578125 253.42587280273438 389.7969055175781 C 250.82205200195312 386.6032409667969 250.5605926513672 391.71533203125 246.3347930908203 386.77349853515625 C 245.54039001464844 384.3414306640625 239.571044921875 386.21942138671875 238.67979431152344 389.56744384765625 C 246.27008056640625 387.5530700683594 242.11532592773438 391.27252197265625 236.89602661132812 396.7886657714844 C 238.97401428222656 396.2673645019531 232.36875915527344 389.644287109375 232.88072204589844 388.4279479980469 C 232.7177276611328 399.8623962402344 228.08331298828125 396.4632873535156 229.00906372070312 398.8016052246094 C 219.40548706054688 398.00665283203125 228.086181640625 402.92462158203125 225.84268188476562 392.86962890625 C 220.84107971191406 396.31060791015625 216.1924285888672 399.7481994628906 218.2606964111328 403.45123291015625 C 217.08059692382812 401.5286560058594 210.05178833007812 403.93505859375 203.88844299316406 402.49078369140625 C 207.6696319580078 405.48370361328125 212.81239318847656 400.00885009765625 205.89137268066406 393.0777587890625 C 195.74960327148438 399.3877258300781 207.12278747558594 399.2877197265625 215.1346893310547 397.17144775390625 C 209.8131103515625 392.7351989746094 210.33355712890625 399.9952087402344 205.09127807617188 392.5239562988281 C 203.02748107910156 400.57415771484375 204.0849151611328 407.8827209472656 205.19976806640625 409.2435607910156 C 207.0360107421875 403.2306823730469 203.80801391601562 404.5259704589844 204.0070343017578 403.0090026855469 C 198.2199249267578 420.03521728515625 207.41934204101562 418.90728759765625 209.62991333007812 443.2242736816406 C 212.47853088378906 444.15765380859375 218.37167358398438 437.64361572265625 214.6104736328125 440.7983093261719 C 222.52969360351562 440.8346252441406 202.76995849609375 433.2799377441406 184.33294677734375 438.515625 C 204.08843994140625 454.9585876464844 213.14715576171875 444.60638427734375 229.45999145507812 462.0553283691406 C 237.33131408691406 470.94158935546875 239.72262573242188 485.7816162109375 257.5841979980469 466.5910339355469 C 265.9521789550781 466.5297546386719 278.425537109375 453.930419921875 263.348388671875 450.4664001464844 C 269.1050720214844 444.6336669921875 272.5946350097656 433.2548522949219 278.61114501953125 415.14556884765625 C 322.3727722167969 405.1009216308594 310.8200988769531 371.6042785644531 271.6652526855469 380.28631591796875" stroke-width="0.0" fill="rgb(218, 229, 231)" opacity="0.333222" stroke="rgb(0, 0, 0)" stroke-opacity="1.0" stroke-linecap="round" stroke-linejoin="round"/>
    <path d="M 410.2720947265625 -2.225545883178711 C 405.6335144042969 37.546451568603516 397.75946044921875 73.58966064453125 395.1411437988281 118.36502838134766 C 391.58782958984375 112.27227783203125 396.27032470703125 115.38628387451172 400.45220947265625 114.3025131225586 C 397.20050048828125 125.49352264404297 391.82086181640625 133.3253173828125 385.6372985839844 146.4746551513672 C 395.6673889160156 135.4657440185547 389.0211181640625 143.8768768310547 392.5766296386719 144.2630615234375 C 391.8662109375 164.25961303710938 388.8818359375 185.8907012939453 382.4862365722656 203.1903839111328 C 385.6609191894531 200.35362243652344 392.2059631347656 197.46005249023438 386.54962158203125 205.27517700195312 C 380.7957458496094 223.95106506347656 385.0564880371094 210.6939697265625 369.90625 200.439697265625 C 391.4121398925781 224.6145782470703 391.3992919921875 256.9428405761719 378.9165954589844 261.2099609375 C 385.1622619628906 272.6729431152344 351.3102111816406 271.4937438964844 379.33233642578125 275.8731994628906 C 349.2535705566406 289.3655700683594 336.8438720703125 285.1392822265625 344.43060302734375 320.57916259765625 C 346.7481689453125 333.5123596191406 393.2339782714844 309.9904479980469 407.8233642578125 319.15692138671875 C 419.36578369140625 314.6864013671875 421.8542175292969 329.4480285644531 443.3355712890625 382.3002624511719 C 460.0151062011719 395.335205078125 476.8185119628906 367.2846984863281 484.1630554199219 351.1121826171875 C 463.96539306640625 350.7762451171875 475.95330810546875 356.2364501953125 474.3308410644531 372.4781494140625 C 485.5273132324219 373.1859436035156 478.09619140625 378.6340026855469 482.37335205078125 374.3470153808594 C 488.7583923339844 383.2086486816406 477.70147705078125 374.61431884765625 485.4397277832031 390.31109619140625 C 496.9027404785156 426.0997314453125 491.6961975097656 393.4656677246094 462.1043395996094 486.34600830078125 C 513.7760620117188 463.1083068847656 516.2200927734375 424.18280029296875 523.239013671875 416.6224365234375 C 514.1586303710938 266.0462341308594 512.537353515625 131.7325439453125 517.5264892578125 -5.818303108215332 C 496.7629699707031 -8.89909839630127 475.4241638183594 -9.664790153503418 459.6438293457031 -7.880679607391357 C 448.0509338378906 76.5157470703125 438.4858703613281 161.07015991210938 439.4327392578125 237.65492248535156 C 432.3471374511719 242.24932861328125 420.5616149902344 231.7992706298828 422.02349853515625 219.61196899414062 C 425.6824951171875 156.5727996826172 438.1505432128906 76.49690246582031 449.1858825683594 -10.495309829711914 C 436.95904541015625 -6.993552207946777 423.7962646484375 -5.5218987464904785 410.2720947265625 -2.225545883178711" stroke-width="0.0" fill="rgb(44, 81, 102)" opacity="1.0327458" stroke="rgb(0, 0, 0)" stroke-opacity="1.0" stroke-linecap="round" stroke-linejoin="round"/>
    <path d="M 426.8076171875 320.69049072265625 C 421.6142883300781 316.78887939453125 435.8426818847656 298.31182861328125 402.3175964355469 191.9082794189453 C 393.0538635253906 308.09088134765625 305.0738525390625 334.0251159667969 298.677490234375 322.6505432128906 C 283.11309814453125 328.3468017578125 332.44732666015625 328.7850646972656 348.656982421875 324.580810546875 C 383.8233337402344 311.83038330078125 377.6445007324219 315.6014404296875 405.873046875 318.7012023925781 C 414.02691650390625 319.9152526855469 415.5245361328125 316.7713623046875 419.3035583496094 324.28814697265625 C 428.4908447265625 345.46234130859375 436.90289306640625 360.8056640625 443.1493225097656 383.3448791503906 C 409.9339599609375 391.43658447265625 374.43975830078125 395.28253173828125 351.8470764160156 401.60467529296875 C 340.9002380371094 401.6618347167969 310.992919921875 410.0052185058594 278.641357421875 413.59185791015625 C 274.08514404296875 425.9787902832031 268.3196105957031 444.0644836425781 261.6670837402344 461.34210205078125 C 291.0372009277344 454.7555847167969 323.00054931640625 460.4573059082031 350.1132507324219 437.4386901855469 C 377.15191650390625 434.4831848144531 406.8746032714844 432.9830322265625 421.9201354980469 423.3965148925781 C 431.6828918457031 416.8063659667969 436.2055969238281 411.79473876953125 441.0277404785156 400.4171447753906 C 446.12823486328125 396.1839599609375 453.6822814941406 379.5032653808594 444.2723693847656 383.06085205078125 C 445.1648864746094 376.83251953125 428.9289855957031 345.5789489746094 426.8076171875 320.69049072265625" stroke-width="0.0" fill="rgb(-5, -16, -14)" opacity="0.51887953" stroke="rgb(0, 0, 0)" stroke-opacity="1.0" stroke-linecap="round" stroke-linejoin="round"/>
    <path d="M 251.27430725097656 339.5799255371094 C 266.56927490234375 363.0554504394531 268.6510009765625 380.46929931640625 281.1015930175781 414.5580139160156 C 287.6492004394531 384.29864501953125 272.5162353515625 382.7637939453125 276.1497802734375 386.9420166015625 C 276.31103515625 384.6362609863281 269.4771423339844 404.5254211425781 288.1464538574219 412.8697204589844 C 304.3049621582031 387.87689208984375 294.2191467285156 379.6332092285156 307.6145324707031 377.85797119140625 C 302.4658508300781 369.1001281738281 300.3154296875 361.10479736328125 289.87799072265625 342.0173645019531 C 259.1835021972656 337.7701110839844 266.964111328125 357.63739013671875 267.42828369140625 364.5501403808594 C 272.3905944824219 369.4538879394531 269.25921630859375 375.098388671875 275.7247009277344 373.91064453125 C 285.6050720214844 354.34075927734375 285.86370849609375 343.90240478515625 251.27430725097656 339.5799255371094" stroke-width="0.0" fill="rgb(231, 229, 218)" opacity="0.5078086" stroke="rgb(0, 0, 0)" stroke-opacity="1.0" stroke-linecap="round" stroke-linejoin="round"/>
    <path d="M 335.7608947753906 179.23280334472656 C 320.2736511230469 174.50750732421875 330.47174072265625 187.9749298095703 337.4671325683594 200.56520080566406 C 338.5149841308594 191.17193603515625 344.97198486328125 194.2405242919922 328.4632568359375 187.36997985839844 C 333.60833740234375 221.3238983154297 330.1429138183594 195.7290496826172 322.3631286621094 211.0797119140625 C 342.0836181640625 212.69180297851562 348.1319580078125 211.16455078125 342.6283264160156 211.21212768554688 C 342.9523620605469 212.05397033691406 338.86578369140625 210.65390014648438 342.02520751953125 215.08822631835938 C 342.20941162109375 215.16253662109375 344.671142578125 207.37838745117188 327.86090087890625 211.22952270507812 C 327.6687927246094 218.6299591064453 330.5888671875 213.72085571289062 317.7520751953125 221.5753936767578 C 325.9850158691406 226.3871307373047 316.8719177246094 221.4867401123047 317.965576171875 225.3806915283203 C 317.47705078125 238.24314880371094 299.14447021484375 241.02084350585938 298.74603271484375 251.96914672851562 C 292.09722900390625 265.66253662109375 287.226806640625 268.9241027832031 282.841552734375 274.1338195800781 C 291.9029235839844 269.84344482421875 295.45733642578125 269.5166015625 297.1374206542969 275.6851806640625 C 296.0322570800781 269.4777526855469 289.63287353515625 271.7457275390625 288.3983154296875 261.46429443359375 C 278.03729248046875 273.2713928222656 277.1543273925781 272.9045715332031 268.4404296875 282.04193115234375 C 275.35302734375 299.2427978515625 278.5516662597656 305.01287841796875 287.4195251464844 316.770751953125 C 303.6346130371094 309.83172607421875 299.16973876953125 308.885498046875 299.60162353515625 318.2568359375 C 312.3494873046875 317.7027893066406 321.5877990722656 315.5879211425781 309.47723388671875 303.3999938964844 C 301.6902770996094 317.45111083984375 306.04339599609375 325.84088134765625 295.8564453125 321.9854431152344 C 300.1244201660156 313.5922546386719 283.03314208984375 314.3883972167969 290.133056640625 303.2834777832031 C 285.09088134765625 296.7688903808594 284.930419921875 304.5068359375 285.4588317871094 281.2414245605469 C 268.4335021972656 281.5020751953125 266.8403015136719 287.33685302734375 273.67510986328125 286.72454833984375 C 271.9217224121094 278.6852722167969 263.1890869140625 283.36297607421875 253.88063049316406 281.2238464355469 C 263.47052001953125 299.4211730957031 266.97265625 304.1849670410156 282.2685241699219 313.918701171875 C 296.9146423339844 315.7864990234375 303.3975830078125 331.88873291015625 327.4040832519531 324.2305908203125 C 336.1384582519531 315.7308349609375 348.4934997558594 318.2998046875 353.2578430175781 313.3955383300781 C 367.10906982421875 306.9474792480469 385.02508544921875 283.0364685058594 386.1282653808594 271.9483337402344 C 392.0628662109375 259.9742126464844 390.5885314941406 238.04771423339844 383.1180725097656 222.02674865722656 C 374.392822265625 205.669677734375 363.29254150390625 186.75314331054688 335.7608947753906 179.23280334472656" stroke-width="0.0" fill="rgb(164, 167, 186)" opacity="0.4901611" stroke="rgb(0, 0, 0)" stroke-opacity="1.0" stroke-linecap="round" stroke-linejoin="round"/>
    <path d="M 187.955322265625 512.109130859375 C 246.94261169433594 531.6774291992188 259.61761474609375 519.1406860351562 266.7294616699219 516.9205932617188 C 269.2364807128906 500.28460693359375 264.35223388671875 507.4211730957031 257.2003173828125 505.2432861328125 C 266.8890380859375 495.3211364746094 269.5155944824219 504.2252197265625 276.83197021484375 498.1543884277344 C 283.7021179199219 501.0693054199219 296.6617431640625 497.1145324707031 305.7828063964844 502.1976318359375 C 302.7655944824219 501.3070068359375 303.6786804199219 508.3902893066406 300.745361328125 520.2786254882812 C 339.6733703613281 521.9315185546875 377.41693115234375 522.1907958984375 420.1732482910156 518.6378784179688 C 406.3421630859375 500.9219665527344 387.4231262207031 503.4229736328125 370.3000183105469 496.3858642578125 C 356.9898681640625 494.63775634765625 331.8063659667969 500.3266296386719 304.45379638671875 495.7928771972656 C 271.310791015625 496.17877197265625 269.7535705566406 499.88916015625 260.7562561035156 464.9996337890625 C 253.5512237548828 514.61767578125 260.096923828125 495.9262390136719 187.955322265625 512.109130859375" stroke-width="0.0" fill="rgb(169, 175, 154)" opacity="0.44575062" stroke="rgb(0, 0, 0)" stroke-opacity="1.0" stroke-linecap="round" stroke-linejoin="round"/>
    <path d="M 116.227783203125 391.8218994140625 C 101.44355010986328 386.5263671875 92.04120635986328 376.12139892578125 84.63322448730469 388.1446228027344 C 96.58302307128906 400.80621337890625 84.94310760498047 379.34307861328125 76.011962890625 405.1310729980469 C 99.81414794921875 401.73089599609375 100.9399185180664 412.83843994140625 117.46682739257812 431.390869140625 C 117.60404968261719 432.9423828125 114.42935180664062 419.58380126953125 63.03852081298828 412.6203918457031 C 95.91136932373047 418.8406066894531 90.87338256835938 430.32476806640625 99.44816589355469 428.07476806640625 C 99.63093566894531 429.91363525390625 96.72747802734375 431.70330810546875 86.70082092285156 421.3965148925781 C 70.23202514648438 422.6729431152344 63.13434982299805 408.5704650878906 49.21681213378906 404.40887451171875 C 45.184303283691406 407.8879699707031 40.267520904541016 415.200439453125 48.756526947021484 439.67425537109375 C 43.64534378051758 416.712890625 53.8866081237793 425.48193359375 79.06494140625 436.33197021484375 C 75.23851013183594 438.771728515625 74.50209045410156 435.5472717285156 80.14498901367188 436.49029541015625 C 94.3321762084961 442.3450622558594 98.10802459716797 435.7030944824219 104.92420959472656 450.5649108886719 C 116.33319854736328 452.7541198730469 107.248046875 439.17181396484375 118.94196319580078 432.40509033203125 C 135.8844757080078 459.36761474609375 143.84378051757812 427.1214599609375 124.76351165771484 428.56488037109375 C 112.37483978271484 408.5988464355469 117.98790740966797 399.7303161621094 116.227783203125 391.8218994140625" stroke-width="0.0" fill="rgb(145, 24, 52)" opacity="0.5362901" stroke="rgb(0, 0, 0)" stroke-opacity="1.0" stroke-linecap="round" stroke-linejoin="round"/>
    <path d="M 234.62147521972656 110.4128646850586 C 244.21890258789062 121.8752212524414 229.2321014404297 99.81401062011719 218.29156494140625 161.82212829589844 C 157.5869903564453 188.30963134765625 198.19752502441406 120.98779296875 135.6641387939453 116.9411392211914 C 180.57504272460938 118.83895111083984 209.9493865966797 110.77523040771484 234.62147521972656 110.4128646850586" stroke-width="0.0" fill="rgb(103, 73, 67)" opacity="0.988726" stroke="rgb(0, 0, 0)" stroke-opacity="1.0" stroke-linecap="round" stroke-linejoin="round"/>
    <path d="M 11.361209869384766 517.5514526367188 C 19.641460418701172 505.837646484375 24.776620864868164 506.670654296875 35.417518615722656 495.3236999511719 C 48.04975891113281 486.00030517578125 41.23120880126953 490.345458984375 49.79117202758789 479.4424133300781 C 59.80937576293945 482.0290222167969 96.89452362060547 459.8697509765625 114.36256408691406 466.4608154296875 C 137.4960479736328 481.2850036621094 114.50215148925781 491.6017761230469 166.86923217773438 492.5743713378906 C 203.1006317138672 480.1151428222656 184.5209503173828 506.7420959472656 219.83441162109375 484.909423828125 C 263.19482421875 497.02972412109375 231.66505432128906 467.8219299316406 273.3471374511719 476.6590881347656 C 252.86700439453125 451.98834228515625 219.84902954101562 478.1478576660156 160.87689208984375 483.64544677734375 C 158.69064331054688 480.4988098144531 152.39207458496094 472.8335876464844 146.59780883789062 471.3176574707031 C 136.98162841796875 467.4475402832031 127.373291015625 467.5431823730469 122.53671264648438 464.16009521484375 C 105.15518188476562 459.3387756347656 89.86666107177734 462.161865234375 75.04338073730469 463.7411804199219 C 68.9944076538086 467.6696472167969 46.06708526611328 469.8125305175781 41.49607467651367 473.2545166015625 C 25.004066467285156 496.5110168457031 11.464557647705078 502.1494445800781 11.361209869384766 517.5514526367188" stroke-width="0.0" fill="rgb(-28, -41, -50)" opacity="0.5396387" stroke="rgb(0, 0, 0)" stroke-opacity="1.0" stroke-linecap="round" stroke-linejoin="round"/>
    <path d="M 187.51600646972656 414.0752868652344 C 176.18484497070312 413.0227355957031 141.84193420410156 421.953369140625 135.0209197998047 436.5320129394531 C 155.9149932861328 432.2494201660156 175.8814697265625 425.2698974609375 200.6398162841797 420.33270263671875 C 202.28355407714844 422.84893798828125 208.08950805664062 407.90533447265625 187.51600646972656 414.0752868652344" stroke-width="0.0" fill="rgb(176, 194, 186)" opacity="0.6488427" stroke="rgb(0, 0, 0)" stroke-opacity="1.0" stroke-linecap="round" stroke-linejoin="round"/>
    <path d="M 365.6079406738281 325.8880615234375 C 356.712646484375 328.7955322265625 375.5391540527344 332.7183837890625 390.71844482421875 342.284912109375 C 394.01824951171875 328.5146789550781 388.3114318847656 334.4271240234375 388.90966796875 343.0129089355469 C 401.7119140625 349.5252685546875 405.8556823730469 338.6253356933594 401.56561279296875 348.2176208496094 C 404.8115234375 345.98944091796875 405.3934326171875 362.3423156738281 398.2110290527344 358.4575500488281 C 395.5148010253906 377.52252197265625 411.02362060546875 379.2013244628906 411.3890686035156 388.855224609375 C 426.6956481933594 383.40765380859375 425.6983337402344 376.60467529296875 423.7408142089844 375.59222412109375 C 420.6407775878906 381.42718505859375 421.6938171386719 375.7709045410156 414.87200927734375 374.4278564453125 C 404.9141845703125 392.778564453125 384.5289611816406 385.2191467285156 366.192138671875 400.93524169921875 C 397.62921142578125 394.8373107910156 415.1251525878906 391.8399353027344 442.02069091796875 382.1733093261719 C 436.7951965332031 360.4579772949219 424.8501281738281 338.6973876953125 416.8981628417969 320.2579345703125 C 393.1195373535156 311.3805236816406 372.917236328125 333.0232849121094 358.2130126953125 325.9317321777344 C 361.9845886230469 332.27728271484375 367.27801513671875 323.36102294921875 365.6079406738281 325.8880615234375" stroke-width="0.0" fill="rgb(215, 235, 231)" opacity="0.37711138" stroke="rgb(0, 0, 0)" stroke-opacity="1.0" stroke-linecap="round" stroke-linejoin="round"/>
    <path d="M 253.31869506835938 503.1166687011719 C 260.19268798828125 491.7846374511719 293.31536865234375 495.19805908203125 307.95538330078125 499.1024475097656 C 328.1928405761719 500.32891845703125 331.5641174316406 512.6383666992188 342.48577880859375 511.6881103515625 C 351.66278076171875 513.4263916015625 353.435546875 509.2041320800781 358.20098876953125 506.7075500488281 C 358.25408935546875 506.0682067871094 363.07769775390625 509.8720703125 365.41168212890625 519.9302978515625 C 383.59576416015625 521.2155151367188 402.8954162597656 524.4354248046875 432.59295654296875 511.48272705078125 C 415.8778076171875 496.739501953125 391.137939453125 491.9591979980469 374.4099426269531 486.38250732421875 C 339.9324035644531 482.02850341796875 326.4407958984375 481.22027587890625 287.6266174316406 491.012451171875 C 293.99957275390625 478.9484558105469 339.2266845703125 468.606689453125 282.81231689453125 459.41217041015625 C 264.3715515136719 461.5325927734375 271.52130126953125 477.93206787109375 253.31869506835938 503.1166687011719" stroke-width="0.0" fill="rgb(-110, -134, -136)" opacity="0.30285677" stroke="rgb(0, 0, 0)" stroke-opacity="1.0" stroke-linecap="round" stroke-linejoin="round"/>
    <path d="M 446.538818359375 381.32269287109375 C 425.1784362792969 385.5892028808594 425.89373779296875 409.7865905761719 392.25531005859375 420.3259582519531 C 373.17718505859375 422.8629455566406 350.2310791015625 424.16259765625 334.89837646484375 430.0733642578125 C 337.1234436035156 430.1900634765625 329.30377197265625 426.5993347167969 327.1155700683594 433.97991943359375 C 322.3596496582031 419.2899475097656 318.38470458984375 437.40838623046875 318.35577392578125 429.26690673828125 C 314.7674560546875 432.3586120605469 309.1566467285156 430.0847473144531 320.98553466796875 432.8180236816406 C 296.625 442.08245849609375 308.1684265136719 434.7980041503906 301.5846862792969 435.4364013671875 C 294.60748291015625 436.3661193847656 298.798095703125 427.2704162597656 296.582763671875 424.02545166015625 C 299.6283874511719 430.6178283691406 281.51214599609375 425.83929443359375 283.6242370605469 432.9017028808594 C 275.9024963378906 430.1454162597656 269.7604675292969 428.71148681640625 276.7178955078125 427.4946594238281 C 263.1898498535156 440.9548645019531 279.57611083984375 448.6741638183594 274.5095520019531 449.7653503417969 C 300.40411376953125 459.98175048828125 310.70849609375 489.4790954589844 339.8676452636719 460.2084655761719 C 366.9941101074219 441.7999267578125 378.0756530761719 432.253662109375 376.7289123535156 439.93829345703125 C 430.2952575683594 421.7825012207031 406.8088684082031 440.0296936035156 433.7765197753906 419.213623046875 C 471.541259765625 448.928955078125 500.63226318359375 390.2310485839844 446.538818359375 381.32269287109375" stroke-width="0.0" fill="rgb(51, 67, 71)" opacity="1.0679673" stroke="rgb(0, 0, 0)" stroke-opacity="1.0" stroke-linecap="round" stroke-linejoin="round"/>
    <path d="M 294.078857421875 494.8447570800781 C 352.5128173828125 498.2622985839844 355.872802734375 504.30670166015625 355.5074768066406 500.12408447265625 C 367.1961364746094 493.3432922363281 368.03582763671875 504.5901794433594 366.10870361328125 511.6664123535156 C 389.1844177246094 490.1195068359375 397.64666748046875 523.5785522460938 438.80621337890625 508.7203063964844 C 428.053955078125 490.1248779296875 391.4195861816406 487.0341796875 377.7115173339844 484.8808288574219 C 352.3177490234375 491.8315124511719 335.1868896484375 481.9364013671875 294.078857421875 494.8447570800781" stroke-width="0.0" fill="rgb(-3, -11, -4)" opacity="0.40854314" stroke="rgb(0, 0, 0)" stroke-opacity="1.0" stroke-linecap="round" stroke-linejoin="round"/>
    <path d="M 104.0809097290039 -3.0381760597229004 C 78.61760711669922 -2.7934322357177734 70.57138061523438 -4.309441089630127 55.450538635253906 -5.585627555847168 C 63.63994216918945 6.94013786315918 64.87366485595703 8.298637390136719 64.87646484375 8.372611999511719 C 63.375732421875 6.825770854949951 64.01653289794922 5.121891021728516 61.94002914428711 12.650928497314453 C 62.03333282470703 11.582681655883789 63.43968200683594 7.929328918457031 63.718379974365234 6.2782182693481445 C 58.72462463378906 1.8869743347167969 60.51581573486328 -5.655568599700928 39.67298126220703 -7.588725566864014 C 51.84904479980469 16.217281341552734 58.35843276977539 23.254608154296875 57.23752212524414 26.990550994873047 C 55.89289474487305 19.250511169433594 52.75387191772461 18.043901443481445 37.4304313659668 -11.4990234375 C 21.1806697845459 -12.635214805603027 16.961793899536133 -10.903168678283691 -12.743223190307617 -7.339396953582764 C 3.77372145652771 16.976808547973633 19.388479232788086 29.955753326416016 37.28817367553711 36.32448196411133 C 39.947837829589844 36.1358528137207 51.098419189453125 36.05388259887695 44.47258758544922 37.665489196777344 C 41.95282745361328 32.21958923339844 44.42346954345703 36.77195358276367 58.40523147583008 43.13459014892578 C 48.630409240722656 35.3543586730957 42.698020935058594 36.91267776489258 29.37448501586914 35.599830627441406 C 39.196250915527344 34.95829391479492 45.364498138427734 40.68186950683594 53.93243408203125 43.43326950073242 C 48.06025314331055 37.47396469116211 27.844467163085938 39.538360595703125 2.8876237869262695 12.443090438842773 C 33.049964904785156 43.42789840698242 35.214202880859375 53.24751281738281 27.43071174621582 51.486366271972656 C 27.449356079101562 52.089576721191406 24.01947021484375 64.85311889648438 19.764415740966797 70.75836181640625 C 22.40700340270996 75.5483169555664 13.611122131347656 67.4615707397461 16.923320770263672 72.38932037353516 C 20.37371253967285 74.08961486816406 22.5460205078125 65.15503692626953 28.100727081298828 51.407493591308594 C 35.049957275390625 52.25899887084961 33.629817962646484 43.30821990966797 -3.7682554721832275 5.734736442565918 C -16.43628692626953 26.363035202026367 -14.790679931640625 42.75065994262695 -15.205543518066406 58.075077056884766 C -2.271843194961548 77.32135009765625 -2.5750346183776855 83.6668472290039 -1.154425859451294 94.8338623046875 C 8.553196907043457 91.91520690917969 12.405637741088867 91.83399200439453 21.52086067199707 93.34485626220703 C -1.0962088108062744 82.52728271484375 7.485830783843994 78.79734802246094 1.7948687076568604 76.56425476074219 C 7.391284942626953 83.87065124511719 12.676048278808594 93.87504577636719 32.724517822265625 95.52179718017578 C 32.56432342529297 75.37353515625 38.20695877075195 72.02971649169922 33.91321563720703 73.8502197265625 C 32.88792037963867 74.2591552734375 38.3128662109375 75.15499114990234 32.72452926635742 76.2015380859375 C 31.389022827148438 76.99911499023438 37.616085052490234 75.03780364990234 39.130653381347656 74.1382827758789 C 36.914154052734375 71.36293029785156 33.70033264160156 76.67369842529297 33.21517562866211 85.79759216308594 C 34.692352294921875 94.2481689453125 31.88257598876953 94.68089294433594 27.74446678161621 94.42819213867188 C 27.702810287475586 94.00729370117188 23.14142608642578 98.41357421875 24.410327911376953 92.93951416015625 C 20.427947998046875 104.4025650024414 21.05586051940918 112.08476257324219 20.609657287597656 119.52774810791016 C 21.17568016052246 121.14633178710938 18.54702377319336 118.24562072753906 20.701019287109375 120.44914245605469 C 17.575986862182617 119.61553955078125 21.515161514282227 113.62567901611328 20.512840270996094 109.41645812988281 C 24.00870704650879 104.21172332763672 21.151206970214844 95.18939971923828 19.743885040283203 101.06768798828125 C 20.86547088623047 99.66957092285156 27.202672958374023 96.28782653808594 23.49567222595215 93.42256927490234 C 14.580092430114746 93.80924987792969 6.278155326843262 92.94049072265625 -3.4671273231506348 93.93294525146484 C -2.85750412940979 99.56572723388672 -5.434605121612549 104.87835693359375 3.5468027591705322 112.19229888916016 C 7.524262428283691 114.0199966430664 4.311872482299805 107.6632308959961 8.815300941467285 100.77175903320312 C 7.987119197845459 103.76284790039062 5.4358906745910645 106.45409393310547 5.412411212921143 114.26016235351562 C 12.577299118041992 112.98139953613281 14.22937297821045 109.80876922607422 13.591419219970703 112.58038330078125 C 8.828615188598633 107.7183609008789 7.471281051635742 116.82707977294922 13.91569995880127 118.95523071289062 C 12.236801147460938 117.45035552978516 9.782552719116211 113.72862243652344 -7.322052955627441 106.72718048095703 C -5.913527488708496 126.45697021484375 -5.625581741333008 132.2945556640625 -4.464530944824219 139.71737670898438 C 15.735990524291992 142.8109588623047 29.239151000976562 143.84742736816406 46.92073440551758 131.37509155273438 C 39.37087631225586 118.58230590820312 39.84074401855469 108.905029296875 39.14839553833008 95.68315887451172 C 35.52229690551758 93.76325225830078 39.72281265258789 92.87462615966797 38.28309631347656 101.5835952758789 C 39.69784927368164 98.18795013427734 37.62449645996094 106.33238983154297 38.53114700317383 111.36194610595703 C 75.291259765625 96.23430633544922 56.527469635009766 112.38175201416016 51.33085250854492 80.38633728027344 C 41.08155822753906 80.19502258300781 59.09636688232422 76.90771484375 62.74148178100586 78.55335998535156 C 58.77080535888672 73.65894317626953 63.29842758178711 70.30371856689453 80.39900970458984 68.52742004394531 C 54.92109680175781 70.31648254394531 50.59217834472656 62.274314880371094 50.319000244140625 64.38526153564453 C 52.29865264892578 63.811729431152344 46.40608596801758 62.316585540771484 43.13358688354492 59.4685173034668 C 51.255226135253906 64.3463134765625 63.05485534667969 73.05616760253906 73.71119689941406 52.913917541503906 C 72.61734771728516 47.77458190917969 60.51346969604492 42.999534606933594 58.725486755371094 32.694026947021484 C 56.36262130737305 37.627037048339844 51.99892807006836 38.980079650878906 54.25553894042969 44.77705001831055 C 54.44253158569336 39.62873077392578 58.167518615722656 30.041170120239258 59.96642303466797 29.285812377929688 C 55.639320373535156 36.327537536621094 61.39357376098633 41.35847091674805 76.08635711669922 53.7147216796875 C 78.91966247558594 48.1092529296875 85.7216567993164 41.22288513183594 93.78186798095703 13.725128173828125 C 65.2310562133789 28.347278594970703 68.40342712402344 30.115482330322266 61.69316864013672 18.453575134277344 C 68.48031616210938 26.278230667114258 61.3764533996582 24.349042892456055 79.423583984375 23.50718879699707 C 73.54828643798828 14.074762344360352 77.74708557128906 10.962519645690918 80.81367492675781 9.527862548828125 C 80.09306335449219 3.2594141960144043 82.31311798095703 0.48660391569137573 81.28430938720703 2.6915509700775146 C 80.36310577392578 5.325472354888916 80.69602966308594 8.295804977416992 80.68153381347656 8.649450302124023 C 81.36207580566406 9.264893531799316 75.08466339111328 12.984976768493652 74.18740844726562 17.855886459350586 C 78.27058410644531 19.01728057861328 84.54418182373047 18.0897216796875 92.39712524414062 18.131990432739258 C 101.29081726074219 11.586597442626953 100.79547882080078 12.625651359558105 104.0809097290039 -3.0381760597229004" stroke-width="0.0" fill="rgb(116, 76, 39)" opacity="0.34647077" stroke="rgb(0, 0, 0)" stroke-opacity="1.0" stroke-linecap="round" stroke-linejoin="round"/>
    <path d="M 226.13047790527344 206.82427978515625 C 216.5211944580078 204.22254943847656 217.4518280029297 209.49752807617188 211.0808563232422 214.02685546875 C 204.43310546875 218.66175842285156 201.7200469970703 215.25250244140625 202.47613525390625 226.072021484375 C 194.00563049316406 243.74908447265625 206.4656982421875 252.87454223632812 198.8904571533203 274.8157043457031 C 216.8999481201172 274.2124938964844 223.8072967529297 262.12713623046875 228.27334594726562 255.8641815185547 C 232.7338104248047 251.42994689941406 232.2220916748047 245.63429260253906 237.03253173828125 239.0207061767578 C 234.89332580566406 232.55731201171875 239.3914337158203 230.80926513671875 234.0021209716797 213.70840454101562 C 229.123291015625 234.72592163085938 219.65003967285156 235.0365447998047 219.28016662597656 241.55677795410156 C 219.91021728515625 240.5415496826172 218.75567626953125 241.22689819335938 219.9478759765625 242.8535919189453 C 218.76588439941406 240.6980743408203 218.54171752929688 239.72018432617188 225.5553436279297 232.44581604003906 C 222.07675170898438 236.54786682128906 220.58294677734375 233.3717803955078 218.85597229003906 231.0985870361328 C 220.9492950439453 233.74615478515625 222.67112731933594 238.37452697753906 228.53546142578125 227.8485565185547 C 231.88143920898438 225.83663940429688 223.3650360107422 219.74989318847656 213.1383056640625 221.9993438720703 C 208.52806091308594 227.95323181152344 208.01683044433594 234.1970672607422 208.03631591796875 235.1106414794922 C 209.0449981689453 236.2095184326172 207.80172729492188 235.03550720214844 208.10340881347656 234.85804748535156 C 208.199462890625 231.32859802246094 209.931640625 225.99484252929688 213.0614013671875 222.1527557373047 C 212.005615234375 222.26947021484375 219.84449768066406 219.9309539794922 226.8818817138672 223.7139129638672 C 222.4037322998047 220.18399047851562 222.80303955078125 220.3454132080078 229.60739135742188 226.2847442626953 C 231.1890411376953 220.9387664794922 234.70205688476562 215.30506896972656 226.13047790527344 206.82427978515625" stroke-width="0.0" fill="rgb(249, 236, 215)" opacity="0.50075084" stroke="rgb(0, 0, 0)" stroke-opacity="1.0" stroke-linecap="round" stroke-linejoin="round"/>
    <path d="M 198.73025512695312 187.6835479736328 C 149.42794799804688 208.97169494628906 149.88351440429688 228.56349182128906 138.28416442871094 236.9813232421875 C 133.85140991210938 236.68882751464844 135.56956481933594 247.87612915039062 136.50503540039062 253.03970336914062 C 135.59007263183594 252.46945190429688 135.33493041992188 245.88107299804688 135.5568389892578 239.73153686523438 C 115.05867767333984 254.7421112060547 111.91832733154297 241.3078155517578 102.75698852539062 240.83306884765625 C 102.29145050048828 262.662353515625 104.00109100341797 270.7506103515625 105.12629699707031 280.72406005859375 C 111.83136749267578 278.7281188964844 109.88409423828125 278.275146484375 110.71981811523438 277.21771240234375 C 109.33341217041016 278.8946838378906 105.2606430053711 286.21893310546875 123.22089385986328 286.6995849609375 C 136.25283813476562 283.4414978027344 133.60000610351562 276.6864318847656 144.80657958984375 276.68194580078125 C 139.82369995117188 259.8210144042969 129.21099853515625 263.7418212890625 142.41912841796875 268.6342468261719 C 139.78306579589844 253.7909393310547 195.99468994140625 261.8865051269531 198.73025512695312 187.6835479736328" stroke-width="0.0" fill="rgb(216, 204, 192)" opacity="0.61689574" stroke="rgb(0, 0, 0)" stroke-opacity="1.0" stroke-linecap="round" stroke-linejoin="round"/>
    <path d="M 72.54737854003906 15.958917617797852 C 71.34507751464844 15.791378021240234 69.41878509521484 18.628629684448242 70.28772735595703 22.252622604370117 C 68.17631530761719 22.626564025878906 64.8249282836914 19.30852508544922 56.71339416503906 30.727258682250977 C 67.41911315917969 24.074325561523438 72.7973861694336 22.461637496948242 78.36181640625 24.617931365966797 C 73.04674530029297 40.74014663696289 78.64620971679688 47.6630973815918 72.77584075927734 40.73310470581055 C 65.61702728271484 49.86332702636719 73.24551391601562 47.430694580078125 75.81864929199219 42.86968994140625 C 74.46379089355469 42.5944938659668 63.9389762878418 35.46144104003906 64.23542785644531 26.12147331237793 C 80.8004150390625 25.104276657104492 76.27679443359375 17.97475814819336 91.59671783447266 17.399423599243164 C 93.09705352783203 23.78330421447754 88.28284454345703 34.75151824951172 75.6234130859375 55.674808502197266 C 71.88675689697266 31.303424835205078 85.37786102294922 27.494443893432617 87.2716064453125 20.282670974731445 C 85.8639144897461 21.773303985595703 86.25535583496094 24.908931732177734 76.21940612792969 35.25676727294922 C 79.42827606201172 15.440300941467285 80.65813446044922 20.68413543701172 72.54737854003906 15.958917617797852" stroke-width="0.0" fill="rgb(266, 260, 256)" opacity="0.42609555" stroke="rgb(0, 0, 0)" stroke-opacity="1.0" stroke-linecap="round" stroke-linejoin="round"/>
    <path d="M 504.6096496582031 455.7865295410156 C 485.84765625 445.9937438964844 479.29156494140625 449.7260437011719 473.613525390625 461.99530029296875 C 464.8336181640625 470.341796875 440.3398742675781 480.92156982421875 425.56683349609375 524.70849609375 C 502.2744140625 504.7508850097656 501.4498596191406 506.9328918457031 507.7610168457031 501.595947265625 C 517.463134765625 480.6942138671875 517.4014282226562 472.0438537597656 504.6096496582031 455.7865295410156" stroke-width="0.0" fill="rgb(-40, 3, 41)" opacity="0.4506418" stroke="rgb(0, 0, 0)" stroke-opacity="1.0" stroke-linecap="round" stroke-linejoin="round"/>
    <path d="M 120.0181655883789 114.28723907470703 C 144.03770446777344 141.75137329101562 150.6333770751953 164.85629272460938 195.6226348876953 200.64222717285156 C 180.03794860839844 158.04173278808594 158.73167419433594 141.7428741455078 156.089111328125 121.03705596923828 C 148.38150024414062 124.36695098876953 150.8640899658203 124.59439849853516 154.65762329101562 120.6450424194336 C 142.6326141357422 123.47441864013672 139.09442138671875 114.28466796875 120.0181655883789 114.28723907470703" stroke-width="0.0" fill="rgb(222, 181, 148)" opacity="0.6389834" stroke="rgb(0, 0, 0)" stroke-opacity="1.0" stroke-linecap="round" stroke-linejoin="round"/>
  </g>
</svg>
