<?xml version="1.0" ?>
<svg xmlns="http://www.w3.org/2000/svg" version="1.1" width="512" height="512">
  <defs/>
  <g>
    <path d="M -4.122931480407715 -1.7648773193359375 C -6.373396873474121 170.4165496826172 -6.831418991088867 340.9541320800781 -6.8384480476379395 520.3377685546875 C 170.6661376953125 519.4248657226562 340.94427490234375 518.9395141601562 518.6339111328125 518.5992431640625 C 518.7838134765625 340.36505126953125 519.4238891601562 169.96775817871094 519.92236328125 -0.8176428079605103 C 340.6666564941406 -1.0227855443954468 170.3333282470703 -1.5987969636917114 -4.122931480407715 -1.7648773193359375" stroke-width="0.0" fill="rgb(217, 188, 160)" opacity="1.0" stroke="rgb(0, 0, 0)" stroke-opacity="1.0" stroke-linecap="round" stroke-linejoin="round"/>
    <path d="M 520.312744140625 -7.6998066902160645 C 434.7050476074219 -7.461933135986328 360.4077453613281 -7.1170549392700195 288.20526123046875 -3.51920223236084 C 277.0010986328125 53.20872497558594 266.2453918457031 105.3399658203125 254.49928283691406 156.7337646484375 C 253.5233612060547 160.6270751953125 251.46900939941406 165.59866333007812 249.9924774169922 166.51333618164062 C 244.60275268554688 169.26963806152344 236.6997833251953 168.01719665527344 231.48277282714844 170.3682403564453 C 233.30982971191406 184.857421875 245.50762939453125 190.84022521972656 251.9266357421875 215.41519165039062 C 260.5796203613281 202.80856323242188 268.40484619140625 192.520263671875 281.9579772949219 185.7369842529297 C 290.2318420410156 180.56126403808594 299.00335693359375 177.7853240966797 314.2749328613281 176.47694396972656 C 324.509521484375 175.3047637939453 341.27655029296875 179.094482421875 351.014892578125 184.0079803466797 C 361.1285400390625 189.9944610595703 369.13543701171875 195.54071044921875 376.1731872558594 205.48597717285156 C 380.9745788574219 210.70175170898438 382.4429626464844 216.71237182617188 386.21240234375 222.84584045410156 C 389.6736145019531 234.70384216308594 391.6212158203125 244.54879760742188 390.49627685546875 256.8428039550781 C 390.2181701660156 266.6512451171875 386.8167724609375 276.86590576171875 383.09967041015625 284.27032470703125 C 376.4550476074219 296.7087707519531 367.8944091796875 305.72064208984375 356.85723876953125 314.1590576171875 C 373.1266174316406 317.02435302734375 384.7249755859375 311.52728271484375 399.01318359375 314.8807678222656 C 410.2245788574219 317.0550231933594 418.86407470703125 322.8918151855469 424.49139404296875 331.86834716796875 C 431.4478759765625 342.9781188964844 437.40765380859375 358.3197937011719 440.4532775878906 375.06707763671875 C 441.7261047363281 382.1318664550781 441.6195068359375 400.0445251464844 436.4262390136719 410.1808776855469 C 432.1988525390625 422.1435852050781 423.46356201171875 424.3192138671875 415.72113037109375 428.1505432128906 C 393.58697509765625 435.9884338378906 366.4389953613281 440.7894287109375 344.7872619628906 449.6436462402344 C 300.4306945800781 455.5306396484375 268.24871826171875 463.515380859375 242.70501708984375 464.2629699707031 C 223.09266662597656 463.3401184082031 218.5611114501953 455.1459045410156 211.99131774902344 446.7156066894531 C 206.4111328125 436.5845642089844 200.91246032714844 421.0163879394531 198.02516174316406 405.6549072265625 C 195.91085815429688 392.21942138671875 197.2952880859375 383.4224548339844 199.83180236816406 372.58538818359375 C 202.54698181152344 360.08935546875 207.58131408691406 351.10357666015625 213.86441040039062 339.9433288574219 C 194.70445251464844 339.3509216308594 185.7369384765625 345.1668701171875 160.956787109375 342.4239196777344 C 150.095703125 340.82666015625 141.1162109375 340.20391845703125 133.2953643798828 334.85162353515625 C 119.16446685791016 320.48822021484375 109.85842895507812 296.50628662109375 102.76679229736328 276.98779296875 C 64.6041030883789 291.1907958984375 31.512805938720703 305.6846008300781 1.0389809608459473 321.4259033203125 C 0.8062114119529724 383.8489685058594 0.9188160300254822 450.00408935546875 0.9774930477142334 519.2941284179688 C 170.80419921875 519.154541015625 340.8235778808594 519.379150390625 520.2033081054688 519.8031005859375 C 520.3897705078125 340.6682434082031 520.4710083007812 170.33399963378906 520.312744140625 -7.6998066902160645" stroke-width="0.0" fill="rgb(78, 120, 73)" opacity="0.92394346" stroke="rgb(0, 0, 0)" stroke-opacity="1.0" stroke-linecap="round" stroke-linejoin="round"/>
    <path d="M 350.7568359375 185.16656494140625 C 344.7833557128906 181.56051635742188 334.31573486328125 179.55618286132812 328.9773254394531 178.08102416992188 C 312.5968017578125 177.27561950683594 304.2390441894531 177.32733154296875 293.3684387207031 182.01869201660156 C 282.8133544921875 184.75906372070312 275.29364013671875 190.2637939453125 268.4642028808594 196.5091552734375 C 261.20001220703125 203.8724365234375 254.88888549804688 210.9322052001953 251.08407592773438 221.85055541992188 C 246.39564514160156 234.2639923095703 247.0048065185547 245.4177703857422 246.71849060058594 257.5542907714844 C 247.6763916015625 272.41583251953125 253.2897491455078 281.7873840332031 259.04791259765625 291.6217956542969 C 264.6431579589844 298.75750732421875 272.5397644042969 306.61151123046875 280.2274169921875 312.6233825683594 C 290.79327392578125 318.9631042480469 298.49761962890625 322.7447204589844 317.64581298828125 322.0357360839844 C 286.7310485839844 324.4683532714844 259.2315979003906 330.31768798828125 234.26736450195312 333.6546936035156 C 221.54666137695312 337.1527099609375 216.48316955566406 339.0544128417969 210.0949249267578 348.486572265625 C 205.23953247070312 357.7735290527344 200.05517578125 367.7994079589844 198.91873168945312 384.2033996582031 C 196.48788452148438 395.7536926269531 198.6727752685547 397.026611328125 200.20396423339844 409.88275146484375 C 202.17823791503906 421.3171691894531 206.6237030029297 432.8345947265625 210.61033630371094 442.35638427734375 C 217.98109436035156 451.1346435546875 219.8715362548828 459.7696228027344 241.39981079101562 463.62725830078125 C 274.83001708984375 461.5000915527344 313.1510314941406 453.3551330566406 352.24700927734375 446.02001953125 C 373.44122314453125 437.46051025390625 399.643798828125 433.9888916015625 421.9426574707031 424.19622802734375 C 431.3586120605469 419.8134765625 435.4476318359375 409.8003845214844 436.74383544921875 406.24017333984375 C 442.6402893066406 394.69122314453125 439.94976806640625 376.3460998535156 438.1556701660156 362.8377380371094 C 431.9744873046875 346.72607421875 425.3931884765625 332.2742004394531 417.3110656738281 324.24261474609375 C 409.31097412109375 317.6531066894531 403.1229553222656 315.1986083984375 382.5538024902344 314.69061279296875 C 374.6932678222656 316.96295166015625 359.66876220703125 313.998291015625 339.7561950683594 320.04437255859375 C 354.8540344238281 314.4514465332031 364.3477478027344 307.5446472167969 372.191162109375 298.9197692871094 C 380.7334899902344 287.75640869140625 388.1380615234375 276.4385070800781 390.0445556640625 255.55731201171875 C 390.97906494140625 238.5072784423828 386.0731506347656 222.79913330078125 380.3663330078125 214.22669982910156 C 372.8873596191406 199.7230987548828 361.8592834472656 191.14891052246094 350.7568359375 185.16656494140625" stroke-width="0.0" fill="rgb(134, 123, 67)" opacity="1.0" stroke="rgb(0, 0, 0)" stroke-opacity="1.0" stroke-linecap="round" stroke-linejoin="round"/>
    <path d="M 103.24219512939453 118.61905670166016 C 83.32063293457031 125.0272216796875 82.66273498535156 134.27105712890625 78.11998748779297 139.7670440673828 C 76.59368896484375 149.01829528808594 74.8683853149414 156.77029418945312 77.61763000488281 166.13966369628906 C 80.33023834228516 183.99908447265625 93.03076934814453 196.56991577148438 101.28629302978516 217.0066680908203 C 98.86270141601562 234.75732421875 100.28831481933594 254.90029907226562 103.83979034423828 274.01507568359375 C 108.92070770263672 288.1270751953125 114.09044647216797 301.883544921875 121.63558959960938 315.16168212890625 C 128.83013916015625 327.8883361816406 134.0437774658203 335.0661315917969 150.2062530517578 338.68951416015625 C 177.36341857910156 344.1681213378906 194.22886657714844 339.2764587402344 217.4398651123047 334.78411865234375 C 231.216064453125 321.6899108886719 239.07090759277344 301.44537353515625 249.18063354492188 277.49896240234375 C 244.26934814453125 257.3389892578125 244.5348663330078 238.4824981689453 250.10360717773438 219.4394073486328 C 240.70640563964844 190.8435516357422 225.06910705566406 176.90171813964844 223.96917724609375 152.96885681152344 C 221.33287048339844 127.90552520751953 232.343017578125 126.44584655761719 235.78968811035156 109.09294891357422 C 214.72439575195312 104.0615463256836 171.60858154296875 102.71256256103516 126.60655212402344 107.91099548339844 C 114.45054626464844 107.07544708251953 122.87033081054688 121.44400024414062 103.24219512939453 118.61905670166016" stroke-width="0.0" fill="rgb(238, 118, 42)" opacity="0.7791266" stroke="rgb(0, 0, 0)" stroke-opacity="1.0" stroke-linecap="round" stroke-linejoin="round"/>
    <path d="M 223.75465393066406 335.0844421386719 C 249.85731506347656 329.5801086425781 275.3515625 327.7284851074219 298.22076416015625 322.1645202636719 C 285.64190673828125 316.9122314453125 277.7629089355469 311.9411315917969 270.589111328125 305.6312561035156 C 262.98486328125 298.7446594238281 257.2314758300781 290.1246032714844 252.07127380371094 281.68524169921875 C 245.15444946289062 302.6444396972656 234.0609130859375 316.2364501953125 223.75465393066406 335.0844421386719" stroke-width="0.0" fill="rgb(59, 52, 40)" opacity="1.0" stroke="rgb(0, 0, 0)" stroke-opacity="1.0" stroke-linecap="round" stroke-linejoin="round"/>
    <path d="M 73.95997619628906 143.541259765625 C 48.42327117919922 146.07424926757812 23.42205238342285 149.0899658203125 -6.453071117401123 150.85269165039062 C -6.5921430587768555 206.97959899902344 -6.561885833740234 263.92401123046875 -0.46176156401634216 323.15460205078125 C 25.81004524230957 301.02349853515625 67.51251220703125 289.9214782714844 103.20770263671875 275.77386474609375 C 100.41415405273438 252.36376953125 97.70694732666016 229.5389862060547 96.41284942626953 210.25823974609375 C 90.44190216064453 194.15846252441406 80.11961364746094 186.57762145996094 76.39069366455078 170.90626525878906 C 72.24131774902344 164.88800048828125 75.072998046875 151.76055908203125 73.95997619628906 143.541259765625" stroke-width="0.0" fill="rgb(217, 177, 141)" opacity="1.0" stroke="rgb(0, 0, 0)" stroke-opacity="1.0" stroke-linecap="round" stroke-linejoin="round"/>
    <path d="M 289.1351013183594 -5.467501640319824 C 274.70001220703125 58.14308547973633 264.348876953125 120.27165985107422 250.08090209960938 169.53936767578125 C 241.06271362304688 188.36483764648438 245.69444274902344 197.25198364257812 252.44973754882812 213.81695556640625 C 263.8931884765625 197.90821838378906 277.7751770019531 182.89674377441406 303.841796875 177.3856964111328 C 305.1073913574219 177.3209991455078 316.5048522949219 175.15859985351562 334.8526916503906 178.45077514648438 C 342.33843994140625 180.25205993652344 352.15814208984375 183.46595764160156 356.7957458496094 187.62606811523438 C 367.70452880859375 194.306640625 375.78704833984375 204.01248168945312 381.6325988769531 213.2727508544922 C 387.32080078125 224.1406707763672 391.0616149902344 234.65699768066406 391.437744140625 252.0451202392578 C 390.62200927734375 264.5070495605469 389.192626953125 273.6332092285156 383.9991149902344 284.2599792480469 C 378.6463317871094 295.3685607910156 371.48516845703125 302.6451416015625 362.793701171875 310.5147705078125 C 371.49993896484375 315.4339904785156 381.75457763671875 309.7353210449219 403.8563232421875 313.8695983886719 C 421.3866271972656 320.15460205078125 422.5018310546875 333.1866760253906 443.408447265625 343.63983154296875 C 456.423095703125 345.325927734375 472.679443359375 344.2575378417969 487.95941162109375 345.02105712890625 C 487.5022277832031 350.6645812988281 482.17486572265625 346.2974853515625 486.9363098144531 352.5953369140625 C 483.2828369140625 350.21917724609375 481.3603820800781 346.7193908691406 480.24151611328125 348.09832763671875 C 478.4534606933594 360.5146484375 481.0052795410156 359.8448791503906 477.4763488769531 371.5390625 C 474.19622802734375 374.1170654296875 473.3145751953125 368.88885498046875 473.2821350097656 371.6144714355469 C 474.04290771484375 358.5824279785156 468.4739074707031 364.2870788574219 474.7371520996094 358.2808532714844 C 467.1810607910156 350.08941650390625 471.4497375488281 362.6583251953125 463.9530029296875 356.804931640625 C 461.6357421875 363.44525146484375 471.8955078125 356.7918701171875 468.76849365234375 364.75311279296875 C 464.6823425292969 369.47491455078125 465.9185791015625 358.61151123046875 462.1358337402344 370.5046081542969 C 462.86871337890625 366.96429443359375 475.20550537109375 367.9045104980469 467.5531921386719 373.9454040527344 C 463.87188720703125 371.6713562011719 468.2025146484375 370.1786193847656 455.1914978027344 374.9939270019531 C 458.81158447265625 377.60369873046875 468.17376708984375 373.7911376953125 462.4359130859375 387.3448791503906 C 461.2060852050781 371.4880676269531 463.90576171875 374.62066650390625 454.4776916503906 385.2698669433594 C 461.7263488769531 373.879150390625 462.6402282714844 375.9495849609375 479.98455810546875 377.58062744140625 C 476.6542053222656 384.1719970703125 472.07354736328125 377.25164794921875 472.5863342285156 378.46160888671875 C 465.3583068847656 388.428466796875 477.7287292480469 380.920166015625 478.37158203125 385.7421569824219 C 480.7184143066406 391.84173583984375 463.46185302734375 383.7041320800781 474.02203369140625 392.77471923828125 C 507.4041748046875 387.4887390136719 481.8677978515625 408.45025634765625 509.7278747558594 398.6344909667969 C 511.6864929199219 265.5969543457031 511.2867126464844 130.39625549316406 517.952392578125 -7.987009525299072 C 433.4292297363281 -7.577925205230713 359.1418151855469 -7.23964786529541 289.1351013183594 -5.467501640319824" stroke-width="0.0" fill="rgb(70, 107, 75)" opacity="0.77413476" stroke="rgb(0, 0, 0)" stroke-opacity="1.0" stroke-linecap="round" stroke-linejoin="round"/>
    <path d="M 426.9311218261719 337.2316589355469 C 418.7809143066406 326.4490661621094 416.111083984375 315.1886291503906 384.8541564941406 315.1749267578125 C 338.9936828613281 321.7040710449219 278.3414306640625 325.1720275878906 228.92588806152344 334.5595397949219 C 219.5955352783203 337.19866943359375 213.59361267089844 341.84368896484375 210.0208282470703 348.5821533203125 C 205.53282165527344 356.51531982421875 200.187744140625 367.7303466796875 197.85260009765625 389.2233581542969 C 197.48089599609375 401.46942138671875 201.7666473388672 424.3419189453125 208.75973510742188 437.7479248046875 C 213.1783905029297 446.9557189941406 217.7873077392578 454.8409729003906 225.68896484375 459.26129150390625 C 232.06407165527344 463.1341857910156 239.46234130859375 464.02532958984375 251.66070556640625 462.80828857421875 C 282.4408264160156 458.95440673828125 309.6922302246094 454.393798828125 337.3078308105469 448.5489807128906 C 365.7332458496094 441.57232666015625 395.50640869140625 432.9693603515625 421.7610168457031 424.55987548828125 C 432.33648681640625 417.5827331542969 439.3274230957031 408.14471435546875 440.11614990234375 389.1844482421875 C 441.3379211425781 370.307373046875 435.44171142578125 353.1357116699219 426.9311218261719 337.2316589355469" stroke-width="0.0" fill="rgb(217, 194, 166)" opacity="0.96994615" stroke="rgb(0, 0, 0)" stroke-opacity="1.0" stroke-linecap="round" stroke-linejoin="round"/>
    <path d="M 324.6266174316406 177.8206787109375 C 313.3986511230469 173.17193603515625 291.620361328125 179.67041015625 279.7408142089844 187.90708923339844 C 271.5833740234375 192.94967651367188 264.6430358886719 200.02041625976562 259.9290466308594 205.8231658935547 C 254.9110107421875 212.91957092285156 248.1457061767578 222.07421875 246.76905822753906 239.8429718017578 C 243.85208129882812 252.38775634765625 247.37118530273438 270.5011291503906 253.0000457763672 281.3108215332031 C 258.14013671875 290.5854797363281 263.6277160644531 298.81048583984375 269.95465087890625 304.214111328125 C 277.5481262207031 311.2127685546875 286.33587646484375 317.6464538574219 300.1406555175781 321.1571044921875 C 315.8824157714844 323.44775390625 338.08740234375 320.3401794433594 349.1717834472656 316.1786804199219 C 361.2440490722656 310.1402893066406 367.91094970703125 303.5519714355469 374.5182800292969 295.6493225097656 C 380.1734313964844 288.2477722167969 384.9359130859375 279.8955078125 387.3974609375 270.4311828613281 C 390.2541809082031 262.3009338378906 391.0788879394531 250.97323608398438 389.510498046875 239.75534057617188 C 387.11761474609375 230.43637084960938 386.6245422363281 217.71156311035156 380.2213439941406 212.83209228515625 C 376.3052062988281 203.81094360351562 368.6013488769531 198.4224853515625 363.1195983886719 192.58749389648438 C 352.32818603515625 186.0281982421875 343.3906555175781 178.33030700683594 324.6266174316406 177.8206787109375" stroke-width="0.0" fill="rgb(228, 212, 186)" opacity="1.0" stroke="rgb(0, 0, 0)" stroke-opacity="1.0" stroke-linecap="round" stroke-linejoin="round"/>
    <path d="M 9.317367553710938 519.8236694335938 C 145.70953369140625 521.3399047851562 276.9754638671875 521.6805419921875 420.1645202636719 521.2028198242188 C 406.98443603515625 499.3395080566406 390.1744689941406 497.3438720703125 372.3528137207031 493.57940673828125 C 357.70574951171875 490.6881408691406 332.420166015625 497.2109680175781 309.06243896484375 495.543701171875 C 282.2982482910156 495.4934997558594 273.8272705078125 483.1925048828125 250.75634765625 480.6922302246094 C 218.71429443359375 485.38885498046875 192.22137451171875 493.31390380859375 162.34739685058594 486.9684753417969 C 140.80194091796875 484.95428466796875 127.67678833007812 472.0914001464844 109.31619262695312 468.0420227050781 C 87.97990417480469 465.58477783203125 79.40017700195312 472.6817932128906 64.04924774169922 475.955322265625 C 46.20830535888672 485.192626953125 29.576112747192383 494.784423828125 9.317367553710938 519.8236694335938" stroke-width="0.0" fill="rgb(119, 65, 40)" opacity="0.88366437" stroke="rgb(0, 0, 0)" stroke-opacity="1.0" stroke-linecap="round" stroke-linejoin="round"/>
    <path d="M 51.4883918762207 396.25927734375 C 45.48660659790039 402.8835144042969 40.8629150390625 412.86968994140625 41.94135284423828 425.5830993652344 C 44.18064880371094 439.5668640136719 50.40167999267578 448.4161071777344 61.4577751159668 455.54266357421875 C 70.61013793945312 459.82269287109375 83.83821868896484 461.5523986816406 96.95560455322266 459.8152160644531 C 113.52080535888672 458.6948547363281 121.15164947509766 455.4906311035156 128.20091247558594 445.25054931640625 C 132.34149169921875 439.7767028808594 132.91159057617188 427.276611328125 130.3627166748047 416.3017272949219 C 125.56055450439453 404.03045654296875 117.65969848632812 395.1893310546875 109.52157592773438 388.15435791015625 C 100.98273468017578 382.94891357421875 91.31907653808594 380.20257568359375 76.615966796875 382.82281494140625 C 67.16765594482422 382.987548828125 56.30895233154297 388.96014404296875 51.4883918762207 396.25927734375" stroke-width="0.0" fill="rgb(188, 74, 81)" opacity="0.9184043" stroke="rgb(0, 0, 0)" stroke-opacity="1.0" stroke-linecap="round" stroke-linejoin="round"/>
    <path d="M 111.06147003173828 128.05870056152344 C 104.1813735961914 126.53995513916016 98.50338745117188 128.98875427246094 95.19586181640625 131.21067810058594 C 91.17698669433594 136.54586791992188 85.44364166259766 140.15841674804688 84.52179718017578 150.64576721191406 C 84.91255187988281 159.1213836669922 84.89542388916016 167.7069091796875 87.92032623291016 173.85113525390625 C 92.8304443359375 182.70225524902344 96.79124450683594 195.24940490722656 107.14410400390625 201.347900390625 C 114.12702178955078 189.0393829345703 121.9456787109375 176.2852325439453 126.05354309082031 161.3177490234375 C 126.07647705078125 152.93142700195312 126.9576187133789 145.22792053222656 124.23812866210938 139.89366149902344 C 121.52640533447266 132.92828369140625 112.79539489746094 128.6409149169922 111.06147003173828 128.05870056152344" stroke-width="0.0" fill="rgb(234, 197, 167)" opacity="0.8914257" stroke="rgb(0, 0, 0)" stroke-opacity="1.0" stroke-linecap="round" stroke-linejoin="round"/>
    <path d="M 118.77864074707031 119.82151794433594 C 103.57535552978516 117.3338851928711 97.85006713867188 120.00247955322266 90.33281707763672 124.1758041381836 C 83.52029418945312 129.85647583007812 78.19778442382812 136.5626983642578 76.1707763671875 148.20635986328125 C 75.01355743408203 159.5279083251953 76.74681091308594 167.3247833251953 79.96287536621094 175.8447723388672 C 85.98892974853516 189.90020751953125 93.89418029785156 201.48902893066406 101.55029296875 216.09912109375 C 102.37503814697266 207.86253356933594 106.29769134521484 206.71517944335938 106.30236053466797 201.31529235839844 C 96.75636291503906 193.36781311035156 92.06231689453125 182.86546325683594 87.66203308105469 172.37814331054688 C 85.08885192871094 164.38661193847656 83.79460144042969 157.99514770507812 85.11317443847656 148.54925537109375 C 87.53050994873047 140.78244018554688 90.13359069824219 134.03538513183594 97.29196166992188 130.8453369140625 C 104.33507537841797 125.99362182617188 112.79251861572266 127.99591827392578 120.10545349121094 131.99703979492188 C 116.08975982666016 123.43292236328125 118.82566833496094 118.59766387939453 118.77864074707031 119.82151794433594" stroke-width="0.0" fill="rgb(238, 157, 103)" opacity="0.87248516" stroke="rgb(0, 0, 0)" stroke-opacity="1.0" stroke-linecap="round" stroke-linejoin="round"/>
    <path d="M 128.57147216796875 328.443115234375 C 119.04422760009766 311.7150573730469 110.31037139892578 296.67034912109375 104.24659729003906 276.8778076171875 C 66.43244171142578 291.1368713378906 28.0029354095459 302.9583740234375 -7.1859822273254395 328.7682800292969 C 36.91356658935547 327.5380554199219 82.67829895019531 330.7950744628906 128.57147216796875 328.443115234375" stroke-width="0.0" fill="rgb(75, 105, 61)" opacity="1.0" stroke="rgb(0, 0, 0)" stroke-opacity="1.0" stroke-linecap="round" stroke-linejoin="round"/>
    <path d="M 121.1792221069336 120.74259948730469 C 165.4937744140625 113.6015625 210.9466094970703 121.71887969970703 233.0241241455078 113.28630828857422 C 240.6958770751953 103.7760238647461 196.8977813720703 104.99166107177734 158.3423614501953 104.95870971679688 C 148.125732421875 106.53316497802734 135.1455535888672 104.69434356689453 125.42172241210938 108.34744262695312 C 121.07257080078125 107.15894317626953 112.84523010253906 114.4149169921875 121.1792221069336 120.74259948730469" stroke-width="0.0" fill="rgb(183, 107, 61)" opacity="1.0" stroke="rgb(0, 0, 0)" stroke-opacity="1.0" stroke-linecap="round" stroke-linejoin="round"/>
    <path d="M 262.3940734863281 464.7247619628906 C 252.67396545410156 462.5686340332031 234.27845764160156 466.34954833984375 221.4087677001953 460.96124267578125 C 210.42816162109375 454.8448181152344 209.10467529296875 437.5707702636719 206.84153747558594 437.15313720703125 C 171.43943786621094 434.18695068359375 162.70950317382812 435.75250244140625 138.01654052734375 442.0107421875 C 133.605224609375 442.3738098144531 132.51321411132812 455.6482238769531 115.6002426147461 458.3029479980469 C 97.35810852050781 460.48150634765625 85.1956558227539 458.2639465332031 80.47625732421875 460.01824951171875 C 64.2728500366211 464.37030029296875 62.3480224609375 457.14276123046875 53.28230667114258 451.83673095703125 C 29.65006446838379 461.32708740234375 5.8733062744140625 454.4114685058594 2.3977408409118652 471.2237854003906 C 9.252276420593262 499.4558410644531 -2.192758321762085 484.1622009277344 1.8529267311096191 521.5008544921875 C 1.9819360971450806 521.8263549804688 9.910497665405273 523.4850463867188 14.15468692779541 511.0448303222656 C 31.41036033630371 496.4081115722656 41.357078552246094 492.60589599609375 48.01601028442383 472.6807556152344 C 69.6888198852539 483.04742431640625 78.98664855957031 459.82415771484375 118.33598327636719 466.78045654296875 C 130.5916748046875 474.3874816894531 141.28298950195312 482.6042175292969 166.18521118164062 487.87060546875 C 190.96463012695312 488.1847839355469 207.65264892578125 489.3398132324219 225.65199279785156 483.3667297363281 C 238.42713928222656 480.7808837890625 254.71514892578125 474.830322265625 262.3940734863281 464.7247619628906" stroke-width="0.0" fill="rgb(74, 109, 69)" opacity="1.0" stroke="rgb(0, 0, 0)" stroke-opacity="1.0" stroke-linecap="round" stroke-linejoin="round"/>
    <path d="M 127.57372283935547 410.0138244628906 C 129.42889404296875 417.79522705078125 134.09530639648438 428.7596435546875 135.71902465820312 439.9453125 C 163.0769805908203 439.0074768066406 179.8448486328125 429.3068542480469 202.5460968017578 424.1246643066406 C 200.6180419921875 410.24163818359375 202.50930786132812 408.77435302734375 201.1412811279297 413.014404296875 C 176.74623107910156 411.12799072265625 146.139892578125 411.5589294433594 127.57372283935547 410.0138244628906" stroke-width="0.0" fill="rgb(76, 114, 73)" opacity="1.0" stroke="rgb(0, 0, 0)" stroke-opacity="1.0" stroke-linecap="round" stroke-linejoin="round"/>
    <path d="M 223.6106414794922 342.3135986328125 C 215.0572967529297 336.7267761230469 210.76931762695312 346.8918762207031 205.16903686523438 358.6168518066406 C 200.3838348388672 373.9637756347656 195.57672119140625 387.4052429199219 199.61465454101562 407.8869323730469 C 202.75584411621094 425.4503173828125 208.0996856689453 438.11322021484375 215.04071044921875 449.8007507324219 C 218.56051635742188 453.33489990234375 222.2033233642578 457.32861328125 227.8146514892578 460.64453125 C 234.9921417236328 464.3534851074219 244.9552459716797 463.8552551269531 255.07345581054688 462.1562194824219 C 262.10174560546875 459.478515625 266.38092041015625 450.4489440917969 269.3242492675781 441.04840087890625 C 274.3589172363281 426.4901428222656 274.59039306640625 409.7688293457031 270.990234375 390.3230895996094 C 266.50579833984375 374.7027587890625 261.4267883300781 361.7630310058594 253.73867797851562 350.0048828125 C 246.76365661621094 340.74591064453125 231.10768127441406 342.5150146484375 223.6106414794922 342.3135986328125" stroke-width="0.0" fill="rgb(222, 196, 176)" opacity="0.8743227" stroke="rgb(0, 0, 0)" stroke-opacity="1.0" stroke-linecap="round" stroke-linejoin="round"/>
    <path d="M 417.6968688964844 320.8136901855469 C 406.0621032714844 317.7520751953125 386.8376770019531 316.8770446777344 376.1917419433594 315.8345947265625 C 354.627197265625 317.9492492675781 342.6645202636719 327.35931396484375 326.7593688964844 330.0886535644531 C 307.76702880859375 337.114013671875 286.17254638671875 342.3681640625 257.044677734375 346.7848205566406 C 265.71795654296875 368.8017272949219 273.0685119628906 390.7935485839844 279.8946533203125 413.57122802734375 C 274.9145202636719 428.4925842285156 267.42724609375 444.9830627441406 263.98736572265625 462.1757507324219 C 270.7695617675781 470.0462646484375 283.9533386230469 467.229248046875 295.2095031738281 467.86236572265625 C 296.8882141113281 460.6979064941406 292.85455322265625 457.1910095214844 292.2767333984375 464.2835388183594 C 284.994140625 461.28759765625 294.4831848144531 452.30633544921875 290.8785400390625 460.1476745605469 C 282.4143371582031 460.3963928222656 316.638916015625 458.18365478515625 314.7281494140625 458.3046875 C 312.4793701171875 461.3877868652344 316.86065673828125 460.9925842285156 316.8875427246094 458.2811584472656 C 320.2320556640625 458.5268859863281 318.0338134765625 466.0256042480469 319.4399108886719 470.6299743652344 C 318.96282958984375 467.51568603515625 316.3815002441406 468.0452880859375 326.813232421875 468.4113464355469 C 344.7532958984375 455.4891662597656 364.40325927734375 442.9894714355469 380.0989685058594 433.4342041015625 C 409.1246643066406 420.5491943359375 420.07586669921875 430.3104553222656 428.5682067871094 422.8589172363281 C 435.673095703125 414.6435241699219 441.3991394042969 393.8858947753906 442.7479553222656 382.97393798828125 C 435.49346923828125 358.8596496582031 426.6380615234375 339.3013916015625 417.6968688964844 320.8136901855469" stroke-width="0.0" fill="rgb(164, 156, 128)" opacity="0.5317614" stroke="rgb(0, 0, 0)" stroke-opacity="1.0" stroke-linecap="round" stroke-linejoin="round"/>
    <path d="M 348.70770263671875 0.6650308966636658 C 321.9754943847656 1.8660036325454712 294.8951721191406 -0.008615761995315552 287.9100036621094 -6.566251277923584 C 276.4535217285156 53.46802520751953 263.816650390625 102.79918670654297 255.67771911621094 155.28793334960938 C 252.18215942382812 160.471435546875 255.0263671875 162.41058349609375 248.6800079345703 164.32997131347656 C 244.0835418701172 162.51492309570312 230.1096954345703 165.9291534423828 226.428955078125 168.10350036621094 C 229.71316528320312 183.88711547851562 240.87074279785156 194.86729431152344 247.53761291503906 214.16722106933594 C 260.0470886230469 210.63673400878906 262.2623291015625 194.9591522216797 279.5823974609375 186.98109436035156 C 290.7996826171875 178.9115753173828 301.8316345214844 176.3900146484375 316.2949523925781 176.06675720214844 C 323.4226379394531 144.7303466796875 330.72271728515625 115.14811706542969 338.6630859375 86.62127685546875 C 340.2085876464844 58.609153747558594 347.8392333984375 34.11915969848633 348.70770263671875 0.6650308966636658" stroke-width="0.0" fill="rgb(69, 107, 66)" opacity="0.88869923" stroke="rgb(0, 0, 0)" stroke-opacity="1.0" stroke-linecap="round" stroke-linejoin="round"/>
    <path d="M 11.143929481506348 518.7344360351562 C 90.94937133789062 521.3598022460938 169.73780822753906 519.8460693359375 245.98780822753906 517.9915771484375 C 255.55926513671875 503.20697021484375 261.9467468261719 492.0388488769531 264.41632080078125 482.8085021972656 C 271.174072265625 477.5622863769531 258.6773986816406 468.97235107421875 258.59722900390625 472.7864990234375 C 247.5666046142578 474.1036071777344 245.37704467773438 482.3262939453125 236.65476989746094 485.3962097167969 C 207.28656005859375 486.1450500488281 209.56881713867188 492.3049621582031 161.69876098632812 488.1937561035156 C 131.23110961914062 480.87139892578125 124.8104248046875 467.5921630859375 107.85302734375 465.8338623046875 C 89.07279968261719 466.692138671875 75.51655578613281 472.46405029296875 65.56672668457031 477.16925048828125 C 47.2725944519043 486.91448974609375 30.838115692138672 496.4704895019531 11.143929481506348 518.7344360351562" stroke-width="0.0" fill="rgb(224, 186, 150)" opacity="1.0" stroke="rgb(0, 0, 0)" stroke-opacity="1.0" stroke-linecap="round" stroke-linejoin="round"/>
    <path d="M 244.52981567382812 518.8458862304688 C 301.1985778808594 521.2850952148438 355.1214294433594 521.6124267578125 416.501953125 517.422119140625 C 413.7856750488281 498.7530212402344 389.6366271972656 499.32769775390625 370.8177185058594 487.9862365722656 C 341.87994384765625 493.8356628417969 329.8048095703125 497.9347839355469 295.85919189453125 495.2665710449219 C 275.6568603515625 495.5086364746094 280.03582763671875 489.3150634765625 267.46978759765625 480.90936279296875 C 261.7926025390625 490.3441467285156 259.0619812011719 503.080322265625 244.52981567382812 518.8458862304688" stroke-width="0.0" fill="rgb(131, 112, 83)" opacity="1.0" stroke="rgb(0, 0, 0)" stroke-opacity="1.0" stroke-linecap="round" stroke-linejoin="round"/>
    <path d="M 390.1603698730469 -1.0490151643753052 C 389.2275390625 -0.28814697265625 384.48040771484375 2.7767786979675293 383.9757995605469 12.760944366455078 C 373.1301574707031 69.84626770019531 365.7445068359375 128.45599365234375 354.2339782714844 183.80960083007812 C 357.22308349609375 187.58059692382812 361.0064392089844 190.23165893554688 366.3674621582031 191.2920684814453 C 373.2386169433594 184.01597595214844 373.55157470703125 165.538330078125 377.84466552734375 145.76316833496094 C 381.8211975097656 100.93927764892578 391.6809997558594 58.40591812133789 398.6927490234375 8.36530876159668 C 397.8648681640625 1.4736649990081787 398.6936340332031 1.094173550605774 390.1603698730469 -1.0490151643753052" stroke-width="0.0" fill="rgb(38, 57, 45)" opacity="1.0" stroke="rgb(0, 0, 0)" stroke-opacity="1.0" stroke-linecap="round" stroke-linejoin="round"/>
    <path d="M 338.0175476074219 326.7872009277344 C 333.9119873046875 324.00189208984375 307.0205078125 330.3176574707031 297.3356628417969 324.6821594238281 C 265.2027282714844 329.4884033203125 234.40072631835938 332.17218017578125 211.98431396484375 338.86541748046875 C 224.09254455566406 343.48956298828125 240.99696350097656 341.2496337890625 255.9477996826172 348.6046142578125 C 284.1192626953125 339.55926513671875 314.793212890625 337.9511413574219 338.0175476074219 326.7872009277344" stroke-width="0.0" fill="rgb(238, 212, 188)" opacity="1.0" stroke="rgb(0, 0, 0)" stroke-opacity="1.0" stroke-linecap="round" stroke-linejoin="round"/>
    <path d="M 417.8037414550781 321.4917297363281 C 406.6296081542969 316.963134765625 384.4574890136719 317.0905456542969 365.9508972167969 316.7636413574219 C 353.8218994140625 323.03118896484375 336.8719482421875 323.5340881347656 338.3636474609375 332.3761291503906 C 311.69580078125 337.5278015136719 284.7355041503906 340.91595458984375 257.6854248046875 346.6479797363281 C 264.3321838378906 368.02777099609375 273.32647705078125 388.23095703125 279.9736328125 413.03314208984375 C 335.2905578613281 405.1141052246094 387.76593017578125 395.30523681640625 442.67816162109375 384.3066711425781 C 437.0006408691406 361.25537109375 426.64892578125 341.4288635253906 417.8037414550781 321.4917297363281" stroke-width="0.0" fill="rgb(160, 171, 178)" opacity="0.88577855" stroke="rgb(0, 0, 0)" stroke-opacity="1.0" stroke-linecap="round" stroke-linejoin="round"/>
    <path d="M 441.8789367675781 384.088134765625 C 386.7535400390625 396.0223083496094 333.4496154785156 405.676513671875 280.1923828125 413.7188720703125 C 274.69268798828125 427.1872253417969 268.9876403808594 443.26885986328125 264.2354431152344 460.0855712890625 C 291.3254699707031 457.1140441894531 310.6375427246094 452.27642822265625 342.2546081542969 455.5229797363281 C 360.5609130859375 449.39599609375 370.7388000488281 435.36590576171875 389.01873779296875 429.8949279785156 C 404.9334411621094 424.28192138671875 417.22259521484375 427.1186828613281 425.1947021484375 425.3021545410156 C 434.251220703125 419.24285888671875 439.7901611328125 401.29302978515625 441.8789367675781 384.088134765625" stroke-width="0.0" fill="rgb(206, 229, 206)" opacity="1.0" stroke="rgb(0, 0, 0)" stroke-opacity="1.0" stroke-linecap="round" stroke-linejoin="round"/>
    <path d="M 329.1732177734375 496.1505432128906 C 322.12823486328125 506.7236328125 330.68402099609375 505.9361877441406 338.9678649902344 517.3527221679688 C 363.2894287109375 520.0543823242188 391.97283935546875 522.3329467773438 415.3926696777344 514.072021484375 C 412.9609680175781 499.2908935546875 386.66192626953125 498.2922058105469 373.4930114746094 488.7472839355469 C 353.4402160644531 489.666259765625 340.52996826171875 495.7411804199219 329.1732177734375 496.1505432128906" stroke-width="0.0" fill="rgb(156, 142, 106)" opacity="1.0" stroke="rgb(0, 0, 0)" stroke-opacity="1.0" stroke-linecap="round" stroke-linejoin="round"/>
    <path d="M 243.7497100830078 522.3948974609375 C 283.7188415527344 523.6890869140625 309.9429931640625 523.7161254882812 333.3775329589844 522.1641845703125 C 326.3111267089844 503.4978942871094 325.543212890625 497.2017822265625 324.11517333984375 497.1340637207031 C 303.7532043457031 494.630615234375 290.3389892578125 496.6561584472656 280.3117370605469 492.990966796875 C 257.097900390625 493.1878662109375 259.0429382324219 499.50543212890625 243.7497100830078 522.3948974609375" stroke-width="0.0" fill="rgb(172, 162, 128)" opacity="0.97393495" stroke="rgb(0, 0, 0)" stroke-opacity="1.0" stroke-linecap="round" stroke-linejoin="round"/>
  </g>
</svg>
