<?xml version="1.0" ?>
<svg xmlns="http://www.w3.org/2000/svg" version="1.1" width="512" height="512">
  <defs/>
  <g>
    <path d="M 20.04631996154785 190.5389862060547 C 36.301551818847656 201.14881896972656 16.672958374023438 192.04156494140625 47.92390441894531 194.4991455078125 C 39.18236541748047 191.6820068359375 33.2655029296875 194.99560546875 43.701011657714844 187.7875213623047 C 39.529727935791016 197.22991943359375 54.6285285949707 190.64805603027344 46.57835388183594 200.3534393310547 C 54.991432189941406 179.33465576171875 45.2751579284668 203.5309600830078 40.26749801635742 183.1958770751953 C 48.771236419677734 193.41119384765625 62.78740692138672 189.26846313476562 67.7192611694336 192.01296997070312 C 67.12345886230469 183.1381072998047 53.698333740234375 175.26426696777344 48.048343658447266 173.93287658691406 C 47.465614318847656 171.80345153808594 51.957908630371094 167.2268524169922 49.95616912841797 167.2647247314453 C 46.210018157958984 176.18055725097656 32.328548431396484 172.0014190673828 35.770389556884766 185.48690795898438 C 26.180009841918945 183.21270751953125 32.65528869628906 177.18276977539062 28.612855911254883 172.301025390625 C 43.30056381225586 169.75839233398438 32.79450225830078 173.83457946777344 34.26367950439453 162.06573486328125 C 45.96222686767578 168.5887451171875 39.313899993896484 170.60398864746094 38.09417724609375 182.3946533203125 C 44.07537078857422 170.99053955078125 42.71455383300781 157.7598114013672 40.886714935302734 166.30194091796875 C 36.52094650268555 165.00416564941406 38.59049606323242 153.27468872070312 31.95186424255371 160.97711181640625 C 21.2586612701416 162.07257080078125 31.171276092529297 168.61012268066406 21.083980560302734 168.72268676757812 C 24.97016716003418 173.5304412841797 26.89208984375 160.6702880859375 40.2191162109375 166.2411346435547 C 30.751163482666016 171.80569458007812 22.61945343017578 173.63755798339844 19.452205657958984 174.66552734375 C 27.72138786315918 170.1515655517578 29.99650001525879 173.59519958496094 28.633296966552734 183.0257568359375 C 29.363304138183594 172.10903930664062 34.171905517578125 171.0271453857422 26.917661666870117 170.0053253173828 C 29.58112144470215 179.9988250732422 17.139057159423828 188.98919677734375 4.36014986038208 189.75296020507812 C 4.124900817871094 182.36732482910156 18.783876419067383 191.60443115234375 19.048425674438477 184.52745056152344 C 16.40604019165039 196.65628051757812 18.569555282592773 191.3402099609375 20.04631996154785 190.5389862060547" stroke-width="0.0" fill="rgb(187, 205, 134)" opacity="0.7786354" stroke="rgb(0, 0, 0)" stroke-opacity="1.0" stroke-linecap="round" stroke-linejoin="round"/>
    <path d="M 138.21636962890625 222.29415893554688 C 135.1175079345703 235.62896728515625 148.35226440429688 229.8974609375 156.92288208007812 230.0277862548828 C 161.832763671875 222.11949157714844 159.4860382080078 222.7919921875 187.5196533203125 215.14344787597656 C 197.32473754882812 182.36094665527344 203.26235961914062 177.11038208007812 205.53529357910156 164.98780822753906 C 247.33401489257812 167.62008666992188 266.7473449707031 167.1280517578125 281.7338562011719 170.27850341796875 C 333.1107482910156 175.4387664794922 327.1518859863281 169.32386779785156 311.1500549316406 240.76702880859375 C 322.4660949707031 178.87306213378906 328.3154296875 179.992919921875 315.5473937988281 172.41505432128906 C 279.9526062011719 165.13088989257812 189.84124755859375 159.12051391601562 167.49461364746094 169.1483612060547 C 165.08673095703125 174.7744140625 149.19827270507812 203.549560546875 139.36778259277344 224.01437377929688 C 140.04608154296875 226.69300842285156 137.6643524169922 228.93862915039062 180.85891723632812 222.87954711914062 C 138.64808654785156 228.81097412109375 139.08737182617188 230.95240783691406 138.21636962890625 222.29415893554688" stroke-width="0.0" fill="rgb(-116, -88, -93)" opacity="0.37475345" stroke="rgb(0, 0, 0)" stroke-opacity="1.0" stroke-linecap="round" stroke-linejoin="round"/>
    <path d="M 327.7796325683594 186.8820343017578 C 323.73614501953125 184.659423828125 329.8043212890625 176.07081604003906 316.1007995605469 169.92144775390625 C 316.8563537597656 170.43695068359375 308.9481201171875 169.2089385986328 251.51974487304688 161.90237426757812 C 307.2757263183594 166.5355224609375 321.7240905761719 169.59539794921875 320.27264404296875 170.99447631835938 C 327.8030700683594 172.01699829101562 330.03460693359375 193.42982482910156 325.943115234375 184.39646911621094 C 323.5416259765625 196.76068115234375 319.74444580078125 214.91244506835938 316.76971435546875 227.27381896972656 C 309.9630432128906 239.10987854003906 304.63006591796875 242.4270782470703 267.8044128417969 234.28138732910156 C 291.6863098144531 242.30523681640625 293.0301818847656 239.69076538085938 220.7207489013672 231.15464782714844 C 264.91845703125 218.02684020996094 237.45993041992188 237.82315063476562 199.24131774902344 225.75625610351562 C 128.79832458496094 219.44920349121094 304.7583312988281 225.46792602539062 189.18679809570312 216.19314575195312 C 144.91201782226562 228.13174438476562 185.37750244140625 225.82078552246094 139.48892211914062 234.35397338867188 C 161.76844787597656 241.5252227783203 151.8387908935547 242.5094451904297 165.110107421875 242.4569091796875 C 156.84707641601562 234.03651428222656 147.50048828125 235.3755340576172 145.807861328125 237.7921142578125 C 180.63519287109375 234.65806579589844 195.77540588378906 227.31106567382812 228.24098205566406 238.2266082763672 C 233.93484497070312 231.85293579101562 258.2666320800781 236.6875457763672 315.4566650390625 246.4142608642578 C 255.6062469482422 247.96463012695312 242.30889892578125 235.2541046142578 225.4093475341797 230.0516815185547 C 287.5194091796875 233.6350860595703 273.7419128417969 241.7763214111328 302.7143249511719 240.93572998046875 C 321.66473388671875 235.7655029296875 318.0267028808594 228.73440551757812 327.7796325683594 186.8820343017578" stroke-width="0.0" fill="rgb(38, 59, 79)" opacity="0.51375043" stroke="rgb(0, 0, 0)" stroke-opacity="1.0" stroke-linecap="round" stroke-linejoin="round"/>
    <path d="M 167.75155639648438 435.2152099609375 C 95.39295196533203 439.7933044433594 140.28671264648438 432.1647644042969 106.53863525390625 416.4731140136719 C 122.40758514404297 438.7703552246094 121.5743408203125 428.3155517578125 107.53520965576172 433.10772705078125 C 91.28839111328125 432.3326416015625 123.07057189941406 419.1054992675781 82.57845306396484 426.0604553222656 C 97.32768249511719 434.0231018066406 78.75953674316406 422.71868896484375 100.94470977783203 431.8277282714844 C 59.14167785644531 440.3865051269531 59.619564056396484 413.12811279296875 20.123680114746094 439.7217712402344 C 7.079099178314209 455.31304931640625 58.64376449584961 442.18756103515625 71.74385833740234 442.1156921386719 C 57.55032730102539 440.19207763671875 65.46465301513672 435.3812561035156 74.56973266601562 450.25030517578125 C 80.56298065185547 445.4219970703125 109.0796127319336 434.3840637207031 90.74073028564453 447.76165771484375 C 78.07270812988281 444.7535705566406 73.4814682006836 436.3772277832031 77.93431091308594 446.63922119140625 C 78.13471984863281 459.3502197265625 81.25547790527344 441.09136962890625 87.51200866699219 442.6158752441406 C 84.87771606445312 450.8504638671875 113.13924407958984 453.25384521484375 96.21920776367188 445.0160827636719 C 130.01107788085938 429.4124450683594 168.58421325683594 461.18695068359375 167.75155639648438 435.2152099609375" stroke-width="0.0" fill="rgb(-39, -41, -43)" opacity="0.27988064" stroke="rgb(0, 0, 0)" stroke-opacity="1.0" stroke-linecap="round" stroke-linejoin="round"/>
    <path d="M 2.258784770965576 279.9593811035156 C 50.683326721191406 292.3270263671875 35.84144973754883 283.4012451171875 43.27949905395508 322.9029235839844 C 30.609285354614258 317.9114074707031 48.08045196533203 305.47625732421875 30.556856155395508 302.9732360839844 C 9.790753364562988 289.0980224609375 29.853086471557617 349.14459228515625 38.62059020996094 301.4518737792969 C 31.913291931152344 343.520751953125 72.58761596679688 308.33197021484375 64.90118408203125 328.7386169433594 C 45.94972229003906 432.5103454589844 61.2681999206543 324.6125793457031 58.67998504638672 330.3355712890625 C 25.3552303314209 313.15283203125 43.917640686035156 342.6622009277344 42.78962707519531 333.4450378417969 C 38.22395324707031 330.86444091796875 66.52349853515625 325.5755920410156 54.346458435058594 332.5368957519531 C 57.21659851074219 341.1114501953125 50.833457946777344 334.2584228515625 22.696157455444336 335.49285888671875 C 4.884016036987305 350.4168701171875 23.932369232177734 357.8385314941406 30.11691665649414 345.0421142578125 C 53.3659553527832 340.43878173828125 45.715267181396484 344.2392578125 37.32951354980469 342.2601013183594 C 38.807613372802734 333.90185546875 46.8885383605957 338.6307067871094 53.74713134765625 337.4052734375 C 56.69102096557617 364.35498046875 35.4371223449707 326.7062072753906 -20.872007369995117 349.168701171875 C -3.6729683876037598 419.6280212402344 0.2787766456604004 428.4746398925781 48.94771194458008 400.8729553222656 C 41.78938293457031 448.7979431152344 101.82089233398438 407.4847717285156 146.95846557617188 419.6102294921875 C 177.77069091796875 415.90618896484375 203.98377990722656 431.2954406738281 198.0253143310547 417.3272399902344 C 202.1483154296875 419.67486572265625 211.24195861816406 409.2716979980469 194.8748779296875 417.24853515625 C 206.55670166015625 432.59478759765625 234.2209930419922 420.0384826660156 246.72897338867188 411.3619079589844 C 271.4958801269531 421.2843017578125 323.6023864746094 419.1459655761719 294.82281494140625 412.8581848144531 C 307.6170349121094 384.70172119140625 306.41510009765625 409.5797424316406 358.472412109375 403.6861267089844 C 311.934326171875 403.7157287597656 332.4407043457031 380.46185302734375 336.869873046875 406.5581970214844 C 364.1990661621094 384.77593994140625 365.4854431152344 383.6698913574219 424.3529357910156 379.87554931640625 C 380.8351745605469 378.9799499511719 400.4414978027344 364.54449462890625 403.5290832519531 354.3249816894531 C 400.0491027832031 348.4466552734375 395.70208740234375 355.5914001464844 389.9400329589844 382.5000915527344 C 431.05816650390625 372.03753662109375 458.92889404296875 369.4681701660156 447.7093200683594 368.15142822265625 C 472.40631103515625 363.98828125 468.3074951171875 365.4426574707031 475.58721923828125 343.93865966796875 C 478.51910400390625 341.3559875488281 481.8548889160156 313.34552001953125 476.00750732421875 287.4792785644531 C 459.4098815917969 280.1762390136719 498.8291320800781 291.6166076660156 487.28912353515625 260.09765625 C 459.8327331542969 237.0141143798828 463.4184265136719 242.58151245117188 456.54522705078125 221.8784942626953 C 432.84814453125 152.4590301513672 451.8124694824219 207.9324951171875 472.7991943359375 167.96099853515625 C 333.40875244140625 181.84046936035156 328.83233642578125 159.893310546875 273.92755126953125 160.10598754882812 C 232.6310272216797 157.59329223632812 140.44137573242188 150.75668334960938 98.61840057373047 187.45025634765625 C 185.29135131835938 153.04330444335938 207.75839233398438 159.87271118164062 243.6779022216797 159.3514862060547 C 274.7422790527344 161.8680419921875 306.3787536621094 164.70339965820312 336.9013977050781 169.68905639648438 C 331.4071960449219 202.6048126220703 318.6968994140625 247.54898071289062 322.858154296875 266.6650390625 C 318.9623718261719 291.58404541015625 308.4398498535156 311.7429504394531 308.1769104003906 317.65283203125 C 267.2594909667969 280.5038757324219 291.5372619628906 333.2744140625 287.9967346191406 264.5350341796875 C 325.2994689941406 264.064453125 314.521728515625 276.58831787109375 315.3527526855469 291.0787353515625 C 322.3357849121094 262.39306640625 318.44451904296875 262.47479248046875 318.7842712402344 256.6441955566406 C 251.7223358154297 265.23150634765625 324.76824951171875 250.29592895507812 257.0744934082031 361.7233581542969 C 197.0203399658203 319.5606994628906 198.239501953125 323.8977355957031 229.3400421142578 294.5030517578125 C 234.0017852783203 293.4927062988281 228.96820068359375 262.49652099609375 197.24896240234375 268.1397705078125 C 235.59661865234375 260.1170654296875 227.503173828125 291.510986328125 225.3966064453125 297.2141418457031 C 233.3935546875 303.3594665527344 219.25198364257812 318.31024169921875 212.57760620117188 311.24444580078125 C 205.44090270996094 317.3896179199219 185.56654357910156 313.06060791015625 192.51806640625 277.9879455566406 C 190.61126708984375 336.4062805175781 241.05075073242188 303.75152587890625 216.65444946289062 274.0850830078125 C 238.1374053955078 296.2688293457031 210.9174346923828 322.830078125 197.41944885253906 311.5459289550781 C 186.90733337402344 301.787353515625 187.25567626953125 304.2148132324219 185.02157592773438 293.6750183105469 C 190.04896545410156 283.58367919921875 186.9374237060547 275.6737976074219 196.8114013671875 269.61572265625 C 169.79676818847656 294.06048583984375 204.3394012451172 298.0433044433594 141.20654296875 284.6691589355469 C 173.0095672607422 303.9146728515625 167.7224578857422 291.2655944824219 130.35348510742188 287.356689453125 C 133.8724822998047 274.18011474609375 70.63800048828125 265.1089172363281 62.16009521484375 291.03936767578125 C 88.60989379882812 287.6045227050781 119.08527374267578 289.32098388671875 159.12489318847656 294.9517517089844 C 172.11459350585938 298.2466735839844 179.36306762695312 293.072998046875 217.96951293945312 333.14837646484375 C 185.48585510253906 320.3152160644531 181.11436462402344 345.4713439941406 238.55154418945312 340.3026123046875 C 163.18125915527344 360.54376220703125 172.81695556640625 335.1901550292969 202.02378845214844 328.6656799316406 C 172.438232421875 331.35394287109375 146.26260375976562 320.56976318359375 109.10279083251953 320.08404541015625 C 149.3987579345703 323.8646240234375 189.82916259765625 325.333984375 217.12327575683594 332.46832275390625 C 210.47409057617188 340.5267639160156 157.67449951171875 325.9354553222656 117.05249786376953 326.7102355957031 C 156.48947143554688 327.6539306640625 193.41604614257812 329.2522277832031 186.86993408203125 335.1931457519531 C 191.70846557617188 334.9040832519531 178.32228088378906 337.1386413574219 187.0755615234375 330.1648864746094 C 173.43533325195312 343.5345764160156 181.9398651123047 352.40582275390625 179.24789428710938 375.41748046875 C 152.2310791015625 354.7359313964844 204.8975067138672 360.7882995605469 104.55939483642578 351.2054443359375 C 16.180166244506836 326.5984191894531 70.3870849609375 346.8931884765625 170.88983154296875 346.9577941894531 C 176.7106170654297 337.0745544433594 165.6817626953125 342.5787658691406 89.01331329345703 331.73773193359375 C 132.9876708984375 340.8699645996094 183.02267456054688 343.033203125 174.4156951904297 345.4259033203125 C 138.45518493652344 341.6351013183594 104.65674591064453 337.1929931640625 64.381591796875 332.88189697265625 C 60.646934509277344 327.141845703125 105.07952117919922 338.4994812011719 111.01947784423828 335.2987365722656 C 93.26742553710938 331.1305236816406 78.86661529541016 332.52838134765625 74.23716735839844 328.430419921875 C 78.30104064941406 329.8168640136719 98.12596893310547 331.64898681640625 176.64903259277344 339.7012023925781 C 157.52642822265625 332.3902587890625 102.3526611328125 332.74114990234375 63.59558868408203 324.0377502441406 C 80.6053237915039 324.44732666015625 103.37342834472656 329.8910827636719 177.4069061279297 335.02777099609375 C 129.0266571044922 326.6201171875 78.77323913574219 326.3377685546875 51.835201263427734 317.8826904296875 C 96.70425415039062 324.80633544921875 123.42678833007812 325.9583740234375 150.1431427001953 328.1540832519531 C 108.04946899414062 321.0884704589844 68.77759552001953 320.4038391113281 50.50846481323242 313.2786865234375 C 77.15768432617188 319.4381103515625 94.06536102294922 318.3249206542969 107.28312683105469 321.11541748046875 C 112.61590576171875 317.1047058105469 71.19309997558594 315.5794677734375 45.37906265258789 311.4101257324219 C 76.26009368896484 308.8313903808594 127.59178924560547 317.5447082519531 102.17460632324219 317.03619384765625 C 85.98149871826172 313.80999755859375 52.43349075317383 312.6283874511719 61.5768928527832 307.0636291503906 C 70.75473022460938 310.0495910644531 106.25302124023438 313.123046875 201.00311279296875 322.345947265625 C 151.80006408691406 309.67431640625 61.3333625793457 313.4471740722656 43.757625579833984 298.65521240234375 C 79.1015625 306.194091796875 108.0615463256836 311.83282470703125 107.88616180419922 307.17144775390625 C 103.45223999023438 307.6574401855469 77.0314712524414 303.655029296875 63.882225036621094 302.3206481933594 C 72.6096420288086 296.8943786621094 96.58355712890625 303.7341003417969 137.0631561279297 307.5057067871094 C 99.61804962158203 299.02783203125 98.2582015991211 307.15081787109375 54.01513671875 299.4532470703125 C 68.74195098876953 290.4417419433594 116.74608612060547 305.48040771484375 139.4619598388672 298.88702392578125 C 116.5953598022461 287.7528076171875 112.70625305175781 313.1976013183594 78.55652618408203 293.5737609863281 C 113.69184112548828 301.92523193359375 153.16317749023438 298.23468017578125 183.40164184570312 308.7720031738281 C 158.73361206054688 304.23895263671875 149.262939453125 304.208984375 138.58273315429688 302.8981018066406 C 132.6796417236328 315.0308532714844 160.82516479492188 303.1697692871094 186.95335388183594 313.32391357421875 C 171.0924835205078 309.44830322265625 150.00442504882812 307.18182373046875 138.2356719970703 305.9879150390625 C 132.98532104492188 302.6407775878906 170.73887634277344 308.33905029296875 184.89886474609375 309.56048583984375 C 149.2237091064453 293.9791259765625 131.21754455566406 296.0552978515625 79.69928741455078 292.04486083984375 C 98.73651885986328 303.0275573730469 51.353492736816406 299.5354309082031 71.34217071533203 289.9307556152344 C 51.98456954956055 295.3929138183594 71.25631713867188 293.9776611328125 56.659156799316406 321.712890625 C 43.599117279052734 321.8880615234375 57.63405990600586 317.1714782714844 46.20914077758789 312.07965087890625 C 47.223453521728516 312.8321838378906 48.160614013671875 309.72003173828125 58.99437713623047 311.2134094238281 C 60.056495666503906 300.0090026855469 64.26985931396484 291.9832458496094 90.58084869384766 288.7850036621094 C 70.64759063720703 291.165283203125 63.92218017578125 297.94927978515625 56.8315315246582 297.58538818359375 C 68.0114517211914 289.2753601074219 63.89580535888672 280.1598205566406 66.30876922607422 283.9866027832031 C 57.59481430053711 283.22760009765625 66.11874389648438 293.2060546875 55.99896240234375 295.182861328125 C 49.31662368774414 299.7848205566406 55.533958435058594 296.8430480957031 43.806724548339844 297.5158996582031 C 56.5058479309082 296.8529357910156 65.21082305908203 290.2298583984375 59.035011291503906 282.10675048828125 C 56.41891098022461 287.572021484375 53.54068374633789 295.780029296875 45.045387268066406 295.4420471191406 C 25.697477340698242 288.0806579589844 46.508426666259766 261.3556213378906 2.258784770965576 279.9593811035156" stroke-width="0.0" fill="rgb(34, 28, -39)" opacity="0.34156838" stroke="rgb(0, 0, 0)" stroke-opacity="1.0" stroke-linecap="round" stroke-linejoin="round"/>
    <path d="M 287.75848388671875 339.80224609375 C 279.5957336425781 341.5477600097656 274.86322021484375 350.0844421386719 272.2183837890625 363.6819152832031 C 271.48211669921875 372.5903015136719 273.3819580078125 382.8290710449219 278.6324768066406 387.912109375 C 285.796875 393.2490234375 289.9513244628906 388.06866455078125 292.1679992675781 385.8393859863281 C 296.75189208984375 380.4011535644531 300.3991394042969 371.0542907714844 299.5583190917969 360.11175537109375 C 300.6372985839844 356.1362609863281 297.2772521972656 339.41571044921875 287.75848388671875 339.80224609375" stroke-width="0.0" fill="rgb(136, 138, 121)" opacity="2.2582982" stroke="rgb(0, 0, 0)" stroke-opacity="1.0" stroke-linecap="round" stroke-linejoin="round"/>
    <path d="M 294.38623046875 426.9562072753906 C 270.38140869140625 410.02972412109375 251.69761657714844 433.96942138671875 282.52288818359375 409.7728271484375 C 264.3765563964844 414.3327331542969 270.5428466796875 434.6306457519531 232.09030151367188 428.0253601074219 C 231.67062377929688 437.7353210449219 255.0232696533203 436.40228271484375 259.3249816894531 433.0704040527344 C 259.6264343261719 439.5314636230469 248.19239807128906 432.8954772949219 268.1281433105469 427.7456359863281 C 265.8365478515625 428.3749694824219 282.44342041015625 430.5339050292969 279.5438537597656 428.46044921875 C 287.2065124511719 433.1072692871094 277.8257751464844 430.2629089355469 294.38623046875 426.9562072753906" stroke-width="0.0" fill="rgb(7, 42, -42)" opacity="0.39194506" stroke="rgb(0, 0, 0)" stroke-opacity="1.0" stroke-linecap="round" stroke-linejoin="round"/>
    <path d="M 511.0743103027344 498.0927429199219 C 519.7794799804688 488.977783203125 536.1865234375 469.1793518066406 509.8919677734375 467.82440185546875 C 507.330322265625 496.12139892578125 496.94342041015625 488.77593994140625 493.4285583496094 493.4071044921875 C 479.2701721191406 492.0796813964844 499.1203308105469 481.2176513671875 496.5148010253906 491.169921875 C 477.30743408203125 475.1806945800781 472.5298767089844 488.5482482910156 482.3746643066406 477.87353515625 C 479.62237548828125 477.8728942871094 479.21258544921875 481.10986328125 471.7672119140625 487.0174560546875 C 479.565185546875 482.68316650390625 473.3564147949219 489.1770324707031 482.9927062988281 485.8299560546875 C 488.21392822265625 496.5389099121094 475.2782897949219 486.5027770996094 469.8331604003906 493.1031188964844 C 476.12603759765625 485.8370361328125 459.0612487792969 491.4658508300781 464.5476379394531 484.0160827636719 C 461.2539978027344 483.68682861328125 467.32379150390625 491.7327575683594 453.0895080566406 486.52874755859375 C 457.9070129394531 485.5853576660156 453.79486083984375 480.0670471191406 457.4415588378906 479.26727294921875 C 456.3280029296875 480.41143798828125 458.8879089355469 488.782470703125 447.5537109375 484.1357421875 C 453.6992492675781 482.8545227050781 442.61785888671875 465.4338684082031 449.8871765136719 473.48870849609375 C 440.244384765625 476.72100830078125 446.1720275878906 480.43634033203125 440.64349365234375 476.0440979003906 C 439.83245849609375 470.1573181152344 455.1506652832031 491.23785400390625 442.7520751953125 480.2879638671875 C 438.6040344238281 482.10382080078125 421.4864807128906 486.6203918457031 427.925048828125 480.93408203125 C 427.4460754394531 485.0139465332031 425.5970458984375 475.237548828125 421.7686767578125 489.58526611328125 C 417.2939147949219 475.025390625 433.91796875 482.2044982910156 433.9357604980469 477.20025634765625 C 426.9796447753906 480.2292175292969 433.0094909667969 470.4336242675781 424.02569580078125 478.0594787597656 C 419.7631530761719 481.529296875 414.9638977050781 475.2341613769531 412.21820068359375 478.7127990722656 C 408.4367980957031 477.62884521484375 413.7342224121094 470.7696228027344 411.9440002441406 474.734375 C 413.4703063964844 475.0458679199219 405.7594299316406 478.21990966796875 410.759521484375 477.673095703125 C 386.46795654296875 479.6388854980469 397.6772155761719 476.60919189453125 380.67364501953125 474.3926696777344 C 380.73870849609375 482.6847229003906 374.0957946777344 474.50335693359375 368.137939453125 477.0334777832031 C 366.129150390625 481.4711608886719 386.6902160644531 476.7617492675781 389.1623840332031 478.0123291015625 C 394.4195556640625 480.04571533203125 390.3414611816406 485.4334716796875 397.604736328125 481.79400634765625 C 403.06658935546875 485.2753601074219 426.142578125 488.9429016113281 406.4581604003906 479.7310485839844 C 417.5950927734375 480.5854797363281 413.7511901855469 487.95538330078125 424.20452880859375 489.2272644042969 C 440.5091247558594 490.1644592285156 456.4773254394531 492.7354736328125 476.96923828125 496.7806091308594 C 480.30535888671875 485.7490539550781 473.2649230957031 497.3238220214844 490.15130615234375 490.8182067871094 C 484.3329162597656 497.8293762207031 485.142822265625 492.1429443359375 500.81573486328125 498.182373046875 C 489.8474426269531 495.8726806640625 514.183837890625 504.3683776855469 511.0743103027344 498.0927429199219" stroke-width="0.0" fill="rgb(154, 151, 152)" opacity="0.77506477" stroke="rgb(0, 0, 0)" stroke-opacity="1.0" stroke-linecap="round" stroke-linejoin="round"/>
    <path d="M 513.4271850585938 341.9995422363281 C 502.3601989746094 337.8961486816406 510.6530456542969 339.5821228027344 503.6155700683594 344.1045837402344 C 498.1557922363281 340.5060119628906 503.15716552734375 331.7665710449219 517.8646240234375 342.6021728515625 C 511.77777099609375 335.9341735839844 495.50543212890625 332.51568603515625 501.3493347167969 340.59454345703125 C 486.7164611816406 340.641357421875 508.94671630859375 340.98406982421875 488.9706115722656 348.962158203125 C 495.37445068359375 339.1747741699219 491.4920654296875 337.38287353515625 500.7271728515625 338.1171875 C 494.188232421875 326.2025451660156 491.6229248046875 337.6889953613281 495.10400390625 324.8438720703125 C 489.94464111328125 331.6802978515625 492.06781005859375 326.6075744628906 495.58441162109375 342.9609680175781 C 491.7131042480469 331.3187561035156 479.66705322265625 347.3489074707031 479.0286865234375 336.9096984863281 C 486.66790771484375 340.524658203125 482.6182861328125 342.7223205566406 487.8776550292969 333.6823425292969 C 477.444091796875 339.1776123046875 481.6266784667969 335.31768798828125 480.94378662109375 334.17608642578125 C 486.4390563964844 337.53375244140625 482.1210632324219 328.676025390625 491.251708984375 346.6410827636719 C 478.66046142578125 335.7182312011719 483.2055969238281 349.8205871582031 478.7235412597656 340.8981628417969 C 474.4717712402344 344.390869140625 476.4712219238281 354.4991455078125 472.1143493652344 356.18682861328125 C 475.1424865722656 363.4947509765625 484.9861145019531 355.7730712890625 495.2131652832031 355.4837341308594 C 483.7773742675781 348.967529296875 474.9709777832031 352.8639221191406 480.4696044921875 346.1341552734375 C 486.0000915527344 341.2545166015625 487.64837646484375 355.99493408203125 491.465087890625 349.35107421875 C 508.0555114746094 355.13360595703125 500.4381103515625 345.26947021484375 513.3046875 350.0544738769531 C 518.2249755859375 345.7444152832031 505.1969299316406 340.4322509765625 505.8058776855469 345.80712890625 C 512.5153198242188 340.32318115234375 504.4354248046875 354.618896484375 499.2571105957031 346.4189758300781 C 500.6673583984375 340.12255859375 506.62109375 342.21148681640625 513.4271850585938 341.9995422363281" stroke-width="0.0" fill="rgb(147, 166, 139)" opacity="0.7739109" stroke="rgb(0, 0, 0)" stroke-opacity="1.0" stroke-linecap="round" stroke-linejoin="round"/>
    <path d="M 489.4468078613281 386.5403137207031 C 457.58441162109375 384.33697509765625 491.8847961425781 395.2341003417969 492.7967529296875 356.0191650390625 C 464.1412353515625 385.3331298828125 495.2427062988281 384.034423828125 456.4134216308594 382.7738952636719 C 466.2855224609375 376.3513488769531 463.636962890625 391.2421569824219 470.8385314941406 383.9288635253906 C 467.10968017578125 374.5942687988281 449.1185607910156 384.2900695800781 464.7060241699219 377.1304626464844 C 461.7772521972656 372.7120361328125 451.9129638671875 383.0030212402344 453.35845947265625 381.849365234375 C 449.44549560546875 372.1576843261719 455.4775390625 383.6043395996094 428.31634521484375 373.9988098144531 C 444.23516845703125 376.53997802734375 438.88250732421875 379.453369140625 419.70880126953125 376.926025390625 C 434.2462463378906 369.2481994628906 442.9587707519531 371.9488525390625 446.1304626464844 366.3704833984375 C 443.6975402832031 371.4481506347656 445.1371765136719 376.2064514160156 450.3839416503906 376.659912109375 C 451.3037109375 368.9482116699219 431.439208984375 371.2599792480469 469.370361328125 362.9107666015625 C 439.8262634277344 344.39544677734375 436.4183654785156 340.668212890625 417.57366943359375 341.40069580078125 C 282.013671875 374.24359130859375 343.9057312011719 374.8115234375 295.6297607421875 317.85284423828125 C 316.3654479980469 382.9251403808594 300.77105712890625 410.6394348144531 226.0758514404297 403.6723327636719 C 256.1572265625 427.0813293457031 284.0218811035156 407.6891174316406 321.0 415.3579406738281 C 304.7550354003906 412.43511962890625 312.8323669433594 421.1574401855469 311.68463134765625 407.9201965332031 C 322.1699523925781 406.51904296875 313.32940673828125 405.71600341796875 320.7796325683594 407.2604064941406 C 316.16162109375 414.4309387207031 324.42340087890625 408.0014953613281 304.0821838378906 414.9306945800781 C 331.04376220703125 415.2673645019531 324.1312561035156 395.3243408203125 333.82159423828125 408.4364013671875 C 339.9776306152344 406.9016418457031 329.9918518066406 414.8763122558594 325.9771423339844 418.4064025878906 C 339.9186096191406 416.2538757324219 325.86712646484375 405.22406005859375 338.0777282714844 409.5355529785156 C 331.4837341308594 412.7414245605469 352.9297180175781 412.93048095703125 353.39013671875 407.4407653808594 C 345.2949523925781 409.2684631347656 335.10577392578125 407.591796875 342.12664794921875 402.938232421875 C 347.66461181640625 410.2845153808594 347.9916687011719 397.749755859375 367.07745361328125 406.9743957519531 C 335.27423095703125 409.4828796386719 372.5626525878906 408.1529541015625 371.826416015625 416.76812744140625 C 379.5663757324219 417.0555725097656 386.5445251464844 406.7679748535156 391.1224670410156 414.418701171875 C 381.6321105957031 414.3521423339844 386.54254150390625 407.754638671875 395.2291259765625 409.89581298828125 C 366.8203125 415.44268798828125 403.5825500488281 426.37493896484375 378.72149658203125 420.54278564453125 C 400.565185546875 421.4710388183594 396.42071533203125 419.7781982421875 394.8840637207031 423.4425964355469 C 415.3930969238281 414.8375244140625 397.6419982910156 435.3370666503906 410.3365783691406 417.77154541015625 C 401.41796875 415.0807800292969 403.7198181152344 413.87939453125 392.4350280761719 414.4841613769531 C 391.0880126953125 406.27001953125 391.9342041015625 415.52020263671875 400.1741027832031 411.533447265625 C 399.52496337890625 407.2630615234375 385.78668212890625 408.3729248046875 383.33746337890625 407.4639587402344 C 401.5638122558594 405.7580261230469 394.1654357910156 409.9403076171875 394.77801513671875 400.9876708984375 C 398.26153564453125 402.22222900390625 387.1719970703125 407.4553527832031 367.23272705078125 400.8806457519531 C 411.6628112792969 404.0509033203125 387.2607421875 398.71929931640625 404.0351867675781 405.1066589355469 C 409.0396423339844 392.33587646484375 386.63397216796875 404.73291015625 399.53704833984375 395.8074035644531 C 411.5268249511719 400.75860595703125 398.56695556640625 398.6158447265625 422.3804016113281 398.709228515625 C 415.69464111328125 385.634033203125 395.257080078125 402.229248046875 411.245361328125 390.0240478515625 C 399.82501220703125 390.0975341796875 410.27252197265625 395.08502197265625 398.20819091796875 394.29571533203125 C 403.1126708984375 395.5768127441406 410.4121398925781 388.9010925292969 392.2797546386719 387.8294982910156 C 429.7132263183594 392.9806213378906 409.35198974609375 383.025390625 420.4500732421875 394.654541015625 C 415.2103271484375 378.83953857421875 418.32476806640625 398.2652587890625 412.9951477050781 389.59613037109375 C 411.35406494140625 384.83892822265625 423.5910339355469 386.8482666015625 420.6303405761719 393.6846618652344 C 417.1755065917969 387.69635009765625 436.10205078125 387.0741882324219 427.54986572265625 362.593505859375 C 430.1160583496094 392.73028564453125 427.2307434082031 381.6901550292969 418.9286193847656 394.8597106933594 C 429.465087890625 387.3045959472656 423.4664611816406 390.1440734863281 431.07208251953125 388.381103515625 C 436.9532775878906 394.42047119140625 453.2652587890625 398.7694396972656 422.2347412109375 395.8179016113281 C 449.3889465332031 393.8019104003906 433.721435546875 388.71746826171875 445.3789978027344 380.8030090332031 C 446.949951171875 394.9506530761719 450.7408752441406 391.61724853515625 438.77545166015625 389.5355529785156 C 448.0720520019531 395.65325927734375 460.35888671875 390.0922546386719 443.6146240234375 382.19140625 C 435.23236083984375 394.5730895996094 468.46160888671875 389.9915771484375 459.2086181640625 395.8892517089844 C 467.465087890625 395.4778747558594 458.5029296875 404.8783264160156 453.1225891113281 385.3555603027344 C 468.8801574707031 401.993408203125 461.4385681152344 387.3012390136719 464.30108642578125 381.9307556152344 C 484.89447021484375 381.2547302246094 462.48748779296875 386.5420837402344 478.0442199707031 395.1347961425781 C 477.88623046875 391.08636474609375 486.48858642578125 393.9694519042969 489.4468078613281 386.5403137207031" stroke-width="0.0" fill="rgb(-172, -175, -288)" opacity="0.17128922" stroke="rgb(0, 0, 0)" stroke-opacity="1.0" stroke-linecap="round" stroke-linejoin="round"/>
    <path d="M 202.92196655273438 273.1618957519531 C 211.28750610351562 259.410888671875 189.16018676757812 273.5811767578125 188.16627502441406 284.60943603515625 C 196.79957580566406 281.4249572753906 177.92431640625 295.4023132324219 190.6138153076172 304.6062316894531 C 188.17941284179688 282.68377685546875 234.60202026367188 290.41558837890625 223.31211853027344 311.7159729003906 C 186.46470642089844 314.7388916015625 232.1390380859375 325.218994140625 224.04263305664062 299.4656066894531 C 224.00543212890625 298.5487060546875 232.78919982910156 299.2893371582031 223.30760192871094 286.062255859375 C 221.67506408691406 302.5947265625 218.4015655517578 255.64767456054688 192.6058349609375 280.0252685546875 C 214.57301330566406 266.3465270996094 218.88510131835938 277.81982421875 222.9576416015625 290.2120361328125 C 197.7754364013672 268.5146179199219 183.7154541015625 301.9552307128906 202.92196655273438 273.1618957519531" stroke-width="0.0" fill="rgb(7, 19, 23)" opacity="0.29786882" stroke="rgb(0, 0, 0)" stroke-opacity="1.0" stroke-linecap="round" stroke-linejoin="round"/>
    <path d="M 56.002384185791016 255.77066040039062 C 34.401329040527344 258.9947509765625 51.26795196533203 256.7085876464844 7.901607990264893 255.17047119140625 C 32.13359832763672 284.4082946777344 15.339738845825195 270.7204284667969 34.41368103027344 292.2197265625 C 32.36479568481445 245.99990844726562 44.876312255859375 278.2180480957031 49.01602554321289 272.86334228515625 C 59.919803619384766 290.27923583984375 69.17790985107422 284.95281982421875 65.88346862792969 277.0054016113281 C 49.29469299316406 270.8652038574219 36.26400375366211 266.8238525390625 36.81650161743164 265.6259765625 C 57.90188217163086 255.8636474609375 36.685455322265625 257.4518127441406 56.002384185791016 255.77066040039062" stroke-width="0.0" fill="rgb(11, 30, 31)" opacity="0.37445444" stroke="rgb(0, 0, 0)" stroke-opacity="1.0" stroke-linecap="round" stroke-linejoin="round"/>
    <path d="M 203.7920379638672 159.3685760498047 C 194.37171936035156 156.1405487060547 160.2544708251953 163.0869598388672 173.56591796875 162.68592834472656 C 275.1953430175781 142.99005126953125 353.2307434082031 184.5972900390625 427.5151672363281 169.06796264648438 C 337.43035888671875 176.38406372070312 291.6935729980469 156.86569213867188 203.7920379638672 159.3685760498047" stroke-width="0.0" fill="rgb(-158, -85, 2)" opacity="0.4279332" stroke="rgb(0, 0, 0)" stroke-opacity="1.0" stroke-linecap="round" stroke-linejoin="round"/>
    <path d="M 468.6947937011719 249.9697265625 C 462.4288330078125 232.52191162109375 446.9861755371094 241.68368530273438 471.5801086425781 219.30447387695312 C 428.82342529296875 244.415283203125 371.82122802734375 237.9534454345703 320.3673400878906 246.07301330566406 C 346.3495178222656 245.5246124267578 347.01116943359375 258.9515075683594 320.6151428222656 252.98892211914062 C 359.6309814453125 244.90565490722656 332.0685119628906 258.7686767578125 321.8225402832031 246.05194091796875 C 319.1512451171875 257.6239013671875 326.2464904785156 261.61627197265625 318.41796875 286.00677490234375 C 317.4945068359375 297.3625793457031 309.8044128417969 309.0 311.756103515625 320.86627197265625 C 328.889892578125 336.6202697753906 318.6601257324219 350.1599426269531 321.55364990234375 337.0740051269531 C 348.2552185058594 325.8434143066406 387.2786865234375 315.29669189453125 421.6002197265625 302.8490905761719 C 431.8671569824219 317.5162658691406 437.3033142089844 295.6322021484375 448.791015625 289.2868347167969 C 455.32110595703125 282.7544860839844 458.07220458984375 275.3921813964844 462.0102844238281 246.66282653808594 C 458.3743591308594 275.60595703125 465.8625183105469 270.9005432128906 466.56097412109375 284.4494323730469 C 460.1821594238281 280.5271301269531 456.86181640625 288.4632263183594 451.8876953125 298.1622009277344 C 453.17974853515625 291.0857849121094 460.2919616699219 286.70123291015625 460.9930114746094 284.0374755859375 C 470.4273681640625 287.7623596191406 480.4654846191406 282.9524841308594 465.2669982910156 285.0325012207031 C 466.1871337890625 271.1395568847656 478.9538879394531 265.0106506347656 468.6947937011719 249.9697265625" stroke-width="0.0" fill="rgb(149, 185, 197)" opacity="1.2593875" stroke="rgb(0, 0, 0)" stroke-opacity="1.0" stroke-linecap="round" stroke-linejoin="round"/>
    <path d="M 314.7247314453125 263.4931945800781 C 319.3795471191406 241.62637329101562 303.5871276855469 272.00048828125 319.00482177734375 241.23751831054688 C 317.2333679199219 261.86920166015625 312.8265075683594 256.4257507324219 315.7129821777344 273.4944763183594 C 313.7811279296875 262.4133605957031 288.5213317871094 261.8302917480469 246.1324005126953 274.556884765625 C 231.1747589111328 292.60565185546875 231.31700134277344 261.5348815917969 231.0989227294922 298.9198913574219 C 230.7783966064453 284.7902526855469 215.8990478515625 278.6813659667969 272.05426025390625 271.9163513183594 C 216.1711883544922 278.9588928222656 224.35894775390625 291.3488464355469 228.8856658935547 295.62469482421875 C 221.2473907470703 329.34417724609375 189.0321502685547 301.81390380859375 209.22341918945312 318.134521484375 C 207.47447204589844 326.09625244140625 183.37564086914062 301.879150390625 181.88861083984375 298.8742980957031 C 187.05728149414062 286.8700256347656 185.69293212890625 255.75379943847656 232.91116333007812 263.32550048828125 C 187.51394653320312 258.62249755859375 190.2730255126953 281.7112121582031 182.95152282714844 299.819091796875 C 165.2659149169922 289.57000732421875 154.9530487060547 294.1373291015625 142.9767303466797 285.9580078125 C 122.66879272460938 287.8283996582031 112.60291290283203 284.0580139160156 77.38094329833984 285.54736328125 C 58.24894714355469 294.5809020996094 78.98995208740234 282.6820983886719 66.04459381103516 301.4210205078125 C 53.015953063964844 295.03863525390625 73.78643035888672 287.1283264160156 61.68003463745117 261.916015625 C 70.48957824707031 287.0906677246094 58.6358642578125 289.12957763671875 58.07097244262695 293.79833984375 C 52.852386474609375 301.70635986328125 40.72224807739258 297.9186096191406 44.15208435058594 295.1837158203125 C 55.32857131958008 297.89892578125 56.37753677368164 288.444091796875 59.87748336791992 283.40277099609375 C 55.87530517578125 297.5539855957031 53.86740493774414 290.2359924316406 54.9102897644043 293.63720703125 C 44.1740608215332 303.7038269042969 34.967586517333984 287.1266174316406 33.07664108276367 285.14544677734375 C 38.14314270019531 312.2503967285156 36.87078094482422 273.6825866699219 39.43501663208008 322.4684143066406 C 40.735103607177734 323.3109130859375 57.92153549194336 325.7508544921875 55.397735595703125 325.9668273925781 C 57.78937530517578 328.6898193359375 42.63212203979492 326.9918518066406 39.64755630493164 326.23504638671875 C 44.26450729370117 334.320068359375 45.063018798828125 323.5246276855469 44.44744873046875 334.98931884765625 C 48.426292419433594 337.2991943359375 36.49714660644531 338.00390625 39.843074798583984 332.4335632324219 C 37.40803527832031 339.98553466796875 42.386714935302734 346.20977783203125 45.809059143066406 349.3354187011719 C 47.23685836791992 346.6099548339844 49.81863784790039 334.51678466796875 41.27088928222656 338.52655029296875 C 47.09947204589844 336.94732666015625 47.027774810791016 343.1656799316406 46.84977340698242 339.19952392578125 C 46.246742248535156 346.48968505859375 47.38335037231445 343.7563171386719 42.94563674926758 343.1698303222656 C 42.58657455444336 353.88409423828125 50.71515655517578 352.7129211425781 53.46221923828125 362.23480224609375 C 52.74825668334961 312.99462890625 61.8258056640625 339.6833190917969 57.63649368286133 323.8139343261719 C 53.84428024291992 314.7178649902344 68.87199401855469 322.03924560546875 76.8995361328125 322.7549743652344 C 72.1540756225586 321.19866943359375 69.80791473388672 322.9281005859375 62.77231979370117 320.6250305175781 C 68.7334976196289 326.7440490722656 63.38286209106445 321.9352111816406 73.96212005615234 325.24365234375 C 70.17127227783203 327.6041564941406 63.7700080871582 321.888671875 62.39314651489258 327.2281494140625 C 60.151405334472656 339.1400451660156 60.58906173706055 345.79248046875 64.51441955566406 330.9619140625 C 60.017337799072266 334.3836364746094 58.964534759521484 349.3570556640625 62.35999298095703 362.3992004394531 C 16.47112464904785 355.4568786621094 81.01702117919922 425.403564453125 188.41433715820312 401.7138977050781 C 50.06087875366211 354.3985290527344 81.95925903320312 394.5390319824219 74.1618881225586 351.8160705566406 C 42.55751419067383 338.0581359863281 56.273067474365234 330.8215026855469 166.36837768554688 349.8703308105469 C 99.10761260986328 372.2637634277344 72.19251251220703 338.218505859375 85.40308380126953 363.7076721191406 C 84.69701385498047 343.7321472167969 90.5626220703125 371.4892883300781 169.79315185546875 349.5135498046875 C 188.1320037841797 371.87652587890625 129.69313049316406 352.1130676269531 156.89598083496094 361.3836975097656 C 163.24038696289062 406.47918701171875 152.1747283935547 376.4090576171875 172.31436157226562 376.8013916015625 C 164.21932983398438 352.6354675292969 181.72462463378906 374.5815734863281 174.83364868164062 338.7782897949219 C 173.8798828125 344.5708312988281 163.81808471679688 336.9627380371094 113.19325256347656 336.84576416015625 C 148.8579864501953 340.5673522949219 186.16529846191406 344.72149658203125 174.999755859375 345.5490417480469 C 140.1751251220703 341.2072448730469 106.07259368896484 338.1912841796875 78.04913330078125 333.8528747558594 C 71.79749298095703 330.1805725097656 111.01485443115234 338.9217529296875 156.87869262695312 339.62896728515625 C 102.16627502441406 332.816162109375 77.82795715332031 332.5606689453125 62.2216796875 326.7748107910156 C 66.53721618652344 328.9250183105469 128.43203735351562 334.4035339355469 171.62806701660156 339.44854736328125 C 183.0041961669922 334.9608459472656 134.29776000976562 335.63909912109375 67.59443664550781 324.73345947265625 C 88.74337005615234 326.5189208984375 149.07078552246094 333.09515380859375 171.7845001220703 335.37445068359375 C 193.3473663330078 331.43695068359375 101.79320526123047 329.7098388671875 58.9969596862793 318.71588134765625 C 99.42733764648438 326.232177734375 123.21508026123047 321.5329284667969 158.79183959960938 330.00732421875 C 115.8778076171875 325.29144287109375 91.29246520996094 319.0931091308594 56.37855529785156 317.1800842285156 C 76.8865966796875 310.0122985839844 77.3962631225586 316.5215759277344 239.7993927001953 329.4372863769531 C 140.18667602539062 315.5765380859375 83.0966567993164 314.2740478515625 60.52667236328125 308.5339050292969 C 68.96900177001953 308.0879211425781 101.5426025390625 313.3735046386719 107.27904510498047 313.20147705078125 C 115.37908172607422 309.6257629394531 85.31698608398438 310.42120361328125 60.249229431152344 305.5799255371094 C 71.16718292236328 303.1836853027344 111.43517303466797 312.85601806640625 160.4432373046875 312.25750732421875 C 107.01785278320312 305.5546875 73.01911163330078 305.3924255371094 52.42244338989258 300.5986328125 C 72.26326751708984 298.88812255859375 93.2166976928711 302.4048767089844 139.54302978515625 306.3560791015625 C 100.33973693847656 305.56005859375 73.46698760986328 302.14501953125 68.8161849975586 301.11846923828125 C 54.39823913574219 292.58941650390625 94.74275207519531 298.5489196777344 126.72854614257812 301.6412048339844 C 143.35995483398438 289.69024658203125 99.86215209960938 309.65142822265625 68.00012969970703 294.73309326171875 C 105.6648178100586 283.9469909667969 147.54025268554688 305.200439453125 165.2961883544922 303.9521179199219 C 148.3448944091797 301.752197265625 155.94264221191406 304.9381408691406 112.11553192138672 301.0382080078125 C 153.09117126464844 308.6361083984375 167.1841583251953 294.5181884765625 186.5464324951172 313.1722106933594 C 171.0105743408203 311.3911437988281 145.4883575439453 308.6709289550781 95.59835815429688 304.3357849121094 C 154.57748413085938 307.71038818359375 184.66038513183594 309.2325134277344 188.91632080078125 314.54388427734375 C 178.55770874023438 314.4241943359375 149.44239807128906 309.3583984375 116.36225891113281 310.46820068359375 C 164.90988159179688 314.0519104003906 177.8494873046875 316.4510192871094 190.70327758789062 317.5624084472656 C 185.49057006835938 312.7068176269531 184.28025817871094 305.022216796875 172.2283477783203 305.5004577636719 C 148.2936248779297 300.7394104003906 125.98096466064453 296.9349365234375 97.21502685546875 290.70745849609375 C 72.55364227294922 288.2391052246094 65.08892059326172 295.0326843261719 59.70344543457031 301.86358642578125 C 68.02991485595703 301.99237060546875 57.40790939331055 302.3453369140625 60.34048080444336 321.22613525390625 C 56.07658004760742 315.4546203613281 54.831077575683594 316.2138366699219 49.765201568603516 309.52178955078125 C 54.82984161376953 323.17999267578125 54.03718948364258 313.8074951171875 43.092445373535156 319.4199523925781 C 43.10569381713867 312.7537841796875 40.30933380126953 317.7631530761719 40.25907516479492 295.7355041503906 C 58.39583206176758 313.7758483886719 63.44258117675781 289.8009948730469 53.9249267578125 325.11322021484375 C 61.147056579589844 290.79400634765625 64.59429168701172 301.6549072265625 72.65355682373047 289.1683349609375 C 109.66798400878906 290.83868408203125 110.07693481445312 287.5728454589844 157.63638305664062 294.90277099609375 C 175.47103881835938 296.7495422363281 180.39324951171875 302.43585205078125 184.46017456054688 300.4369201660156 C 192.13388061523438 313.4860534667969 197.89779663085938 319.5994873046875 199.33436584472656 335.3874206542969 C 190.95254516601562 331.2867431640625 190.54849243164062 336.6751708984375 191.37303161621094 329.2096252441406 C 177.076171875 328.7129821777344 146.1649932861328 324.4302062988281 108.90216827392578 320.8904724121094 C 151.14419555664062 320.3070373535156 184.3826141357422 329.46636962890625 190.2718505859375 328.51873779296875 C 198.2794647216797 338.0066833496094 160.88453674316406 323.8542175292969 121.02312469482422 326.5483093261719 C 156.51402282714844 327.5927429199219 187.99234008789062 335.8034362792969 195.0087432861328 331.7710266113281 C 212.98672485351562 349.1245422363281 179.889892578125 325.5836486816406 181.65785217285156 339.6211853027344 C 172.14236450195312 391.451904296875 208.83888244628906 390.26629638671875 83.68541717529297 375.41046142578125 C 222.70616149902344 433.76141357421875 234.3592987060547 413.8824768066406 245.3671417236328 365.85162353515625 C 228.53941345214844 366.83538818359375 205.94639587402344 364.0564880371094 183.14552307128906 362.51263427734375 C 166.955078125 343.30560302734375 206.00405883789062 354.876220703125 197.81178283691406 348.1228332519531 C 226.17811584472656 353.02203369140625 223.69346618652344 344.84173583984375 221.04086303710938 355.232177734375 C 216.49327087402344 350.49749755859375 213.55776977539062 359.9373779296875 208.85240173339844 351.4353332519531 C 200.8040771484375 352.44256591796875 211.16064453125 350.9833068847656 212.3007354736328 354.1925964355469 C 234.5109405517578 355.3831481933594 208.875732421875 348.4244689941406 235.16819763183594 350.8368835449219 C 242.3071746826172 354.96728515625 230.35025024414062 353.04925537109375 231.83868408203125 356.2606201171875 C 234.69522094726562 353.12664794921875 240.2522430419922 358.1943359375 235.2763214111328 346.6238708496094 C 198.04220581054688 337.3765869140625 170.1739959716797 353.33160400390625 183.62184143066406 334.4525451660156 C 214.6056365966797 343.1178894042969 181.6307373046875 338.22265625 230.40963745117188 341.0874328613281 C 244.89862060546875 344.3350524902344 235.68508911132812 359.05950927734375 243.86709594726562 353.14825439453125 C 250.22682189941406 340.662841796875 251.50357055664062 328.79437255859375 272.3222961425781 309.8316650390625 C 281.8770751953125 303.6839294433594 285.560546875 305.0654602050781 284.205078125 304.3791198730469 C 285.3516540527344 300.4449462890625 308.4571838378906 311.9700927734375 306.08941650390625 316.27490234375 C 295.0350036621094 298.0538024902344 263.08642578125 304.09332275390625 243.31735229492188 364.9212341308594 C 274.0934143066406 306.63714599609375 283.005859375 303.31988525390625 304.63836669921875 322.0146179199219 C 310.8230895996094 294.4388732910156 318.63873291015625 295.0613708496094 314.7247314453125 263.4931945800781" stroke-width="0.0" fill="rgb(-498, -410, -324)" opacity="0.19711818" stroke="rgb(0, 0, 0)" stroke-opacity="1.0" stroke-linecap="round" stroke-linejoin="round"/>
    <path d="M 305.5667724609375 314.2733459472656 C 289.6893310546875 301.25958251953125 281.8623046875 310.3382263183594 282.472900390625 306.7301025390625 C 269.9739685058594 316.3615417480469 251.78953552246094 332.6376647949219 244.39720153808594 363.6396179199219 C 273.92352294921875 314.5424499511719 267.60552978515625 403.9758605957031 240.4165802001953 364.7181396484375 C 93.25943756103516 416.924072265625 71.987548828125 339.029052734375 155.7118377685547 418.16192626953125 C 252.56655883789062 402.6546936035156 232.99168395996094 434.40386962890625 296.1784362792969 410.3667907714844 C 299.0224914550781 417.60162353515625 312.2254333496094 388.4566955566406 318.42877197265625 405.5498962402344 C 364.05560302734375 364.7428894042969 308.9028625488281 380.2820129394531 328.05389404296875 357.6775207519531 C 327.3661193847656 322.8789978027344 333.7515869140625 309.12738037109375 322.5434265136719 269.2673645019531 C 309.0162658691406 321.1580505371094 306.7900695800781 316.8086242675781 305.5667724609375 314.2733459472656" stroke-width="0.0" fill="rgb(-124, -143, -78)" opacity="0.17692019" stroke="rgb(0, 0, 0)" stroke-opacity="1.0" stroke-linecap="round" stroke-linejoin="round"/>
    <path d="M 472.127197265625 283.8735656738281 C 470.1168518066406 279.5810546875 455.9724426269531 274.953369140625 447.8967590332031 311.1553955078125 C 455.7060852050781 281.4587707519531 466.80718994140625 281.1480712890625 475.772705078125 296.6722412109375 C 462.68505859375 277.5588684082031 454.4083251953125 302.34454345703125 445.35662841796875 321.7758483886719 C 444.91973876953125 329.792236328125 442.52227783203125 341.34326171875 407.048828125 348.71649169921875 C 378.8612976074219 362.84149169921875 371.5605773925781 365.0641174316406 420.93597412109375 369.9031677246094 C 439.30841064453125 365.9405517578125 456.59405517578125 367.2224426269531 465.31402587890625 365.41180419921875 C 459.3756103515625 363.4633483886719 484.7281188964844 366.0152587890625 474.06329345703125 357.0129699707031 C 475.8861083984375 346.4519958496094 481.9949035644531 312.0016174316406 478.878173828125 309.44378662109375 C 481.3912048339844 305.11328125 478.0821533203125 287.4023132324219 472.127197265625 283.8735656738281" stroke-width="0.0" fill="rgb(-112, -104, -63)" opacity="0.3424804" stroke="rgb(0, 0, 0)" stroke-opacity="1.0" stroke-linecap="round" stroke-linejoin="round"/>
    <path d="M 76.08270263671875 352.90826416015625 C 75.79169464111328 357.57904052734375 77.25739288330078 360.50286865234375 77.1695556640625 372.498779296875 C 96.99974060058594 375.5233154296875 133.10659790039062 380.0666198730469 156.92970275878906 382.27490234375 C 157.5806121826172 374.1170654296875 154.83958435058594 361.3522644042969 156.1309051513672 362.048828125 C 145.08819580078125 363.85980224609375 152.9387969970703 352.90374755859375 151.19834899902344 380.2331848144531 C 146.79913330078125 382.1769714355469 148.66041564941406 373.8841857910156 146.6539306640625 371.7798156738281 C 146.26373291015625 379.8912353515625 146.8336944580078 381.6734619140625 143.44529724121094 378.91278076171875 C 143.1246337890625 381.1173095703125 141.82888793945312 357.02447509765625 139.57028198242188 360.3463134765625 C 142.38116455078125 384.0486755371094 141.60386657714844 379.34234619140625 135.9317626953125 377.9557800292969 C 137.182861328125 387.98291015625 138.20811462402344 359.948974609375 133.75360107421875 361.0908508300781 C 139.2642822265625 359.5664367675781 136.8479766845703 355.4915466308594 138.3178253173828 378.52093505859375 C 123.15933227539062 378.07586669921875 128.4991455078125 379.08935546875 126.14704132080078 362.12548828125 C 125.99797058105469 358.680908203125 162.93447875976562 363.3764343261719 97.26140594482422 355.7121887207031 C 130.23377990722656 365.0229187011719 123.75321197509766 351.0890808105469 125.5042724609375 377.3524475097656 C 115.65742492675781 376.87432861328125 115.6304931640625 376.8082580566406 115.94950866699219 369.0992431640625 C 118.87897491455078 367.40045166015625 100.92526245117188 351.5586853027344 149.2458038330078 360.0740966796875 C 137.73960876464844 356.0366516113281 77.49315643310547 352.299560546875 128.35711669921875 357.7012634277344 C 98.89544677734375 356.2982177734375 110.44895935058594 368.49493408203125 111.11746978759766 376.0341796875 C 106.14230346679688 376.1377258300781 107.48295593261719 368.3390197753906 105.56182861328125 369.5347595214844 C 105.01273345947266 371.55084228515625 105.2812728881836 377.22991943359375 101.7615966796875 374.1355895996094 C 103.1960220336914 363.6648254394531 106.64839935302734 371.8245544433594 97.60462188720703 352.5721740722656 C 101.04894256591797 373.3746337890625 99.97335815429688 344.042236328125 105.3890151977539 363.7420654296875 C 112.11459350585938 354.1243896484375 96.8955307006836 354.4503173828125 99.70927429199219 361.6776428222656 C 77.84851837158203 357.5763854980469 114.34951782226562 382.00872802734375 90.80711364746094 371.9339599609375 C 91.17924499511719 343.29510498046875 87.05970001220703 354.5611877441406 90.28184509277344 372.187744140625 C 83.80429077148438 377.6617126464844 89.48446655273438 356.420166015625 85.1944580078125 371.4503173828125 C 79.39942169189453 356.0645446777344 86.75208282470703 376.2806396484375 80.76863098144531 371.182373046875 C 78.72953033447266 349.21649169921875 81.36811065673828 354.399169921875 76.08270263671875 352.90826416015625" stroke-width="0.0" fill="rgb(6, 10, 14)" opacity="0.91066504" stroke="rgb(0, 0, 0)" stroke-opacity="1.0" stroke-linecap="round" stroke-linejoin="round"/>
    <path d="M 323.0487060546875 167.63487243652344 C 374.4006042480469 177.61709594726562 406.6102294921875 162.30844116210938 396.85498046875 177.71128845214844 C 412.6853942871094 179.85232543945312 420.028076171875 177.9190216064453 433.267333984375 182.78147888183594 C 436.09759521484375 186.61187744140625 444.4386901855469 212.85157775878906 445.8391418457031 223.89735412597656 C 430.7688293457031 222.78866577148438 423.79327392578125 220.53187561035156 400.8565979003906 219.3413543701172 C 403.4058837890625 231.68031311035156 398.3350830078125 232.55841064453125 405.3134460449219 238.34774780273438 C 424.64874267578125 236.53421020507812 451.1473693847656 233.03738403320312 447.0417785644531 233.97451782226562 C 455.8807067871094 227.9742431640625 442.6423034667969 197.9816131591797 435.7364196777344 174.30247497558594 C 453.1695251464844 173.50340270996094 415.0574951171875 163.45188903808594 323.0487060546875 167.63487243652344" stroke-width="0.0" fill="rgb(82, 94, 76)" opacity="1.0844069" stroke="rgb(0, 0, 0)" stroke-opacity="1.0" stroke-linecap="round" stroke-linejoin="round"/>
    <path d="M 340.6715087890625 174.13641357421875 C 331.3295593261719 179.6873321533203 350.5349426269531 175.4116668701172 382.0660095214844 177.32232666015625 C 387.92938232421875 196.91680908203125 383.9867248535156 197.96168518066406 384.4444274902344 221.6727294921875 C 362.1130065917969 216.87200927734375 341.7543640136719 217.41749572753906 327.8290100097656 217.5321807861328 C 323.939453125 241.33029174804688 319.6883544921875 243.25648498535156 338.20098876953125 242.2500762939453 C 317.0050048828125 244.89256286621094 323.6896667480469 248.22494506835938 343.1365661621094 242.7407989501953 C 326.99127197265625 228.99610900878906 356.48944091796875 231.890869140625 341.5963439941406 230.16758728027344 C 330.3013916015625 236.8388671875 339.8925476074219 228.62608337402344 337.5129089355469 220.9949493408203 C 343.4651184082031 223.79751586914062 352.0694274902344 225.98147583007812 355.2489929199219 229.47569274902344 C 346.2080078125 230.2314910888672 350.40618896484375 245.639892578125 332.8016052246094 240.072509765625 C 378.13800048828125 244.05210876464844 377.9847412109375 238.7458038330078 397.05718994140625 239.72003173828125 C 391.2377014160156 202.46022033691406 391.63580322265625 175.65016174316406 384.4831848144531 174.07757568359375 C 388.4775085449219 172.28028869628906 332.56787109375 173.5045928955078 340.6715087890625 174.13641357421875" stroke-width="0.0" fill="rgb(-48, -30, -13)" opacity="0.5383981" stroke="rgb(0, 0, 0)" stroke-opacity="1.0" stroke-linecap="round" stroke-linejoin="round"/>
    <path d="M 236.11663818359375 163.8466033935547 C 171.89418029785156 165.68377685546875 174.69674682617188 154.6304168701172 163.76502990722656 179.7050323486328 C 192.2272491455078 145.34652709960938 152.4950408935547 217.75350952148438 140.93064880371094 225.0868377685547 C 170.75888061523438 225.7327423095703 154.14028930664062 225.37680053710938 172.20669555664062 211.5565185546875 C 170.75804138183594 218.6540985107422 181.8190155029297 216.0655517578125 176.01657104492188 205.8505859375 C 182.0449676513672 205.19471740722656 182.91494750976562 209.91090393066406 191.43516540527344 209.10292053222656 C 185.9962158203125 209.3206329345703 180.4427947998047 215.89524841308594 150.37510681152344 213.2174530029297 C 177.75045776367188 205.23106384277344 198.10997009277344 204.67999267578125 182.6097412109375 204.2898406982422 C 183.24151611328125 199.69007873535156 187.4406280517578 197.0981903076172 183.73995971679688 201.0661163330078 C 179.982666015625 196.3209686279297 172.671142578125 192.5492401123047 166.9914093017578 197.29380798339844 C 167.0266876220703 186.47171020507812 168.55844116210938 210.55934143066406 164.8472900390625 220.4304962158203 C 167.2364959716797 199.92999267578125 162.66114807128906 199.7390594482422 164.4256134033203 196.07090759277344 C 172.65309143066406 181.29080200195312 177.1468505859375 170.970947265625 182.71974182128906 169.3992462158203 C 188.77952575683594 177.3639678955078 172.13284301757812 183.13145446777344 183.70323181152344 180.7189178466797 C 192.72018432617188 191.0946044921875 185.19723510742188 187.81198120117188 174.10279846191406 188.73524475097656 C 184.47628784179688 192.00820922851562 178.1085662841797 183.21768188476562 181.65225219726562 196.73263549804688 C 180.64418029785156 181.41566467285156 187.03656005859375 192.8629150390625 188.64321899414062 189.24192810058594 C 190.5193634033203 195.04258728027344 184.5726318359375 201.8081817626953 183.8033905029297 199.36892700195312 C 188.0037078857422 198.85879516601562 190.73622131347656 194.7880096435547 188.50416564941406 197.02854919433594 C 195.64532470703125 178.71954345703125 193.61444091796875 178.60240173339844 184.18765258789062 169.1111297607422 C 231.44863891601562 169.00454711914062 171.36888122558594 166.98797607421875 236.11663818359375 163.8466033935547" stroke-width="0.0" fill="rgb(-162, -122, -172)" opacity="0.20351379" stroke="rgb(0, 0, 0)" stroke-opacity="1.0" stroke-linecap="round" stroke-linejoin="round"/>
    <path d="M 65.50470733642578 304.84173583984375 C 99.43463897705078 310.6703186035156 116.171142578125 305.977294921875 105.61273956298828 313.016845703125 C 97.26567840576172 311.4237060546875 69.5230712890625 310.3526306152344 64.49800109863281 307.8815002441406 C 74.37020874023438 305.108642578125 121.38318634033203 317.001953125 105.71771240234375 307.3561706542969 C 104.3259048461914 306.6097717285156 81.23053741455078 304.9664306640625 64.33206939697266 302.2908630371094 C 54.95396423339844 296.11309814453125 107.70294952392578 309.0357666015625 112.29771423339844 303.6776123046875 C 98.5999984741211 302.9710388183594 74.77020263671875 300.00555419921875 66.89899444580078 299.08929443359375 C 65.41564178466797 296.26934814453125 98.31936645507812 302.1690979003906 164.0514373779297 305.5956726074219 C 107.11942291259766 298.4090576171875 64.14157104492188 297.2901916503906 78.0320053100586 295.5584716796875 C 103.33714294433594 297.5252380371094 140.1432647705078 301.2601013183594 175.552734375 304.64337158203125 C 183.26171875 312.2458801269531 145.67141723632812 303.3100891113281 116.84141540527344 302.48052978515625 C 150.16627502441406 305.7010498046875 180.25653076171875 304.4913024902344 184.51324462890625 310.7701110839844 C 178.56890869140625 311.7315979003906 130.07717895507812 302.9919128417969 87.290771484375 303.4730529785156 C 148.68316650390625 308.989501953125 176.92071533203125 311.9878845214844 188.7487030029297 313.50946044921875 C 157.7361297607422 296.4556884765625 139.4736785888672 302.6534118652344 125.34761047363281 296.6579284667969 C 86.26509857177734 297.09600830078125 84.91764068603516 290.3938293457031 68.71286010742188 296.1377868652344 C 55.61368942260742 306.6091003417969 80.02989196777344 302.2007141113281 65.50470733642578 304.84173583984375" stroke-width="0.0" fill="rgb(-29, -29, -32)" opacity="0.64010435" stroke="rgb(0, 0, 0)" stroke-opacity="1.0" stroke-linecap="round" stroke-linejoin="round"/>
    <path d="M 51.06154251098633 312.9669494628906 C 106.41407012939453 324.2467956542969 205.8393096923828 327.2845764160156 195.0829620361328 331.701171875 C 182.85073852539062 331.277099609375 141.18994140625 324.6233825683594 63.488685607910156 319.6569519042969 C 148.58334350585938 330.7459716796875 195.86883544921875 331.0025939941406 196.27374267578125 334.1856384277344 C 201.8629913330078 339.8519592285156 178.5363311767578 329.832763671875 183.90228271484375 338.6470947265625 C 172.88865661621094 337.9116516113281 193.40866088867188 346.5289306640625 181.4886016845703 357.8440246582031 C 184.12197875976562 344.0547790527344 189.50262451171875 350.3357238769531 198.5600128173828 347.7016906738281 C 174.41708374023438 347.71234130859375 175.29867553710938 341.33502197265625 205.07643127441406 346.8670349121094 C 179.3875274658203 336.9062805175781 178.47979736328125 347.9156799316406 181.39540100097656 341.2213439941406 C 180.63865661621094 334.4815673828125 180.8654327392578 336.70294189453125 198.92218017578125 338.52703857421875 C 199.27728271484375 339.9554748535156 192.96009826660156 323.7751159667969 194.9557647705078 327.57354736328125 C 176.35369873046875 326.4130859375 124.57476043701172 320.0074462890625 51.06154251098633 312.9669494628906" stroke-width="0.0" fill="rgb(-22, -21, -20)" opacity="0.70965195" stroke="rgb(0, 0, 0)" stroke-opacity="1.0" stroke-linecap="round" stroke-linejoin="round"/>
    <path d="M 385.4081726074219 185.3871612548828 C 388.5777282714844 201.36268615722656 389.21832275390625 215.49049377441406 390.4583740234375 218.14498901367188 C 367.1418151855469 217.6890411376953 345.99591064453125 216.955322265625 334.1707763671875 218.86863708496094 C 334.44000244140625 210.81179809570312 335.12646484375 204.4387969970703 338.52557373046875 197.16757202148438 C 334.0661926269531 211.1056365966797 335.3808288574219 218.72816467285156 332.5427551269531 223.1998748779297 C 347.48211669921875 224.32113647460938 365.55474853515625 223.16525268554688 385.3601379394531 220.2992401123047 C 381.72552490234375 199.86764526367188 386.7998962402344 199.65634155273438 385.4081726074219 185.3871612548828" stroke-width="0.0" fill="rgb(17, 39, 20)" opacity="0.67867446" stroke="rgb(0, 0, 0)" stroke-opacity="1.0" stroke-linecap="round" stroke-linejoin="round"/>
    <path d="M 322.8436584472656 244.6431427001953 C 337.68048095703125 239.4003448486328 333.222412109375 244.6611328125 334.1019287109375 238.8273162841797 C 340.1595153808594 238.44265747070312 329.6853942871094 236.4450225830078 333.8581237792969 231.8500518798828 C 335.69805908203125 227.14614868164062 337.7317199707031 226.59156799316406 348.3941955566406 222.47589111328125 C 361.04449462890625 231.65084838867188 342.38702392578125 229.00949096679688 347.2367248535156 249.1553955078125 C 353.18817138671875 216.22869873046875 377.4587097167969 237.6448516845703 392.10394287109375 235.93553161621094 C 391.4945068359375 227.48651123046875 390.7483215332031 216.85098266601562 388.5903625488281 219.64300537109375 C 369.5555114746094 218.72308349609375 334.86602783203125 242.0186004638672 329.1088562011719 207.38844299316406 C 327.8712463378906 236.0651092529297 322.7418212890625 232.58242797851562 322.8436584472656 244.6431427001953" stroke-width="0.0" fill="rgb(-31, 9, -22)" opacity="0.27999315" stroke="rgb(0, 0, 0)" stroke-opacity="1.0" stroke-linecap="round" stroke-linejoin="round"/>
    <path d="M 337.52557373046875 223.5956573486328 C 337.5944519042969 234.1988067626953 335.4276123046875 223.6226348876953 346.7201843261719 227.0882568359375 C 349.11883544921875 227.02587890625 355.20928955078125 235.4501190185547 351.978515625 239.683349609375 C 365.0909423828125 238.6920928955078 378.1813049316406 236.6015625 384.6280517578125 236.61236572265625 C 384.77825927734375 231.22250366210938 382.1987609863281 227.1775360107422 384.6476745605469 216.06948852539062 C 380.43890380859375 231.53602600097656 374.3457946777344 228.71197509765625 382.8157043457031 232.5272979736328 C 375.57080078125 230.66836547851562 370.116943359375 226.0977783203125 374.80389404296875 227.23138427734375 C 373.0061340332031 224.1198272705078 380.089599609375 223.7200164794922 377.1153869628906 218.12144470214844 C 350.3382263183594 218.9591522216797 336.57147216796875 213.51612854003906 337.52557373046875 223.5956573486328" stroke-width="0.0" fill="rgb(13, 32, 14)" opacity="1.0207192" stroke="rgb(0, 0, 0)" stroke-opacity="1.0" stroke-linecap="round" stroke-linejoin="round"/>
    <path d="M 452.91778564453125 365.8013916015625 C 415.3020324707031 344.5583801269531 405.6885070800781 351.34344482421875 402.42401123046875 351.869873046875 C 380.49200439453125 354.7218017578125 358.17950439453125 362.55322265625 334.6572265625 367.80145263671875 C 324.38909912109375 374.9549560546875 313.5931396484375 368.8985290527344 306.46087646484375 394.7181396484375 C 371.1720275878906 384.0953674316406 347.8063049316406 382.8916015625 419.3072814941406 374.0184326171875 C 412.5640563964844 358.06817626953125 435.53009033203125 364.14544677734375 452.91778564453125 365.8013916015625" stroke-width="0.0" fill="rgb(-14, -12, 4)" opacity="0.7036264" stroke="rgb(0, 0, 0)" stroke-opacity="1.0" stroke-linecap="round" stroke-linejoin="round"/>
    <path d="M 315.1694030761719 331.8419189453125 C 321.3802795410156 340.4669189453125 313.14459228515625 354.3612365722656 328.1570129394531 361.2096252441406 C 330.8922424316406 360.7388610839844 345.0736389160156 356.9178161621094 359.4471435546875 353.1852111816406 C 390.1122741699219 345.6104736328125 410.29571533203125 340.36798095703125 434.2810363769531 334.4446105957031 C 439.41436767578125 321.74041748046875 441.51171875 300.3343200683594 449.576171875 289.3034973144531 C 460.4353942871094 271.1683349609375 475.99755859375 279.89080810546875 483.05548095703125 291.9952697753906 C 471.02630615234375 226.4747314453125 459.38226318359375 234.17376708984375 465.935302734375 252.1977081298828 C 444.1605224609375 273.0019836425781 443.2694396972656 270.2462158203125 430.17681884765625 270.77239990234375 C 437.6717224121094 272.9901428222656 441.77752685546875 269.852783203125 455.52032470703125 266.361083984375 C 435.0384826660156 266.6587829589844 426.2877197265625 266.05712890625 417.7682800292969 266.5768127441406 C 415.04583740234375 256.0944519042969 411.2642517089844 261.8267517089844 406.33978271484375 260.9796142578125 C 397.9427490234375 263.5989685058594 405.8631591796875 263.65191650390625 393.9539489746094 264.14306640625 C 400.5223693847656 265.00482177734375 396.1038513183594 276.689697265625 397.45111083984375 290.7000732421875 C 395.64105224609375 282.6841125488281 397.8406677246094 277.9919128417969 395.08868408203125 278.7723083496094 C 375.13336181640625 275.9590148925781 350.6627502441406 277.2507019042969 330.0277099609375 283.7230529785156 C 327.9584045410156 276.9010314941406 326.8785705566406 268.58935546875 320.8355407714844 252.42025756835938 C 326.6492614746094 274.0533142089844 313.97467041015625 296.18212890625 308.28216552734375 316.74188232421875 C 320.72247314453125 331.7882995605469 308.5711364746094 332.1473083496094 315.1694030761719 331.8419189453125" stroke-width="0.0" fill="rgb(57, 105, 121)" opacity="0.57596546" stroke="rgb(0, 0, 0)" stroke-opacity="1.0" stroke-linecap="round" stroke-linejoin="round"/>
    <path d="M 133.02371215820312 282.3293762207031 C 92.04108428955078 274.2593688964844 117.12020111083984 261.6239929199219 102.136474609375 266.63519287109375 C 103.20257568359375 267.3854064941406 108.14958190917969 266.014404296875 107.13912963867188 257.2489929199219 C 99.38407135009766 257.362060546875 96.0962142944336 260.2471008300781 112.60250854492188 255.86488342285156 C 93.55791473388672 258.67437744140625 89.59260559082031 257.1017761230469 82.31172943115234 260.8326110839844 C 70.67688751220703 258.4707336425781 76.62190246582031 257.57977294921875 61.878353118896484 293.5270690917969 C 83.2647476196289 276.75079345703125 109.6572494506836 291.4098815917969 133.02371215820312 282.3293762207031" stroke-width="0.0" fill="rgb(157, 203, 240)" opacity="0.76901996" stroke="rgb(0, 0, 0)" stroke-opacity="1.0" stroke-linecap="round" stroke-linejoin="round"/>
    <path d="M 178.82093811035156 160.8862762451172 C 181.72254943847656 160.36627197265625 184.51611328125 160.06065368652344 185.8350067138672 159.66419982910156 C 207.8690643310547 154.85227966308594 242.853515625 156.85311889648438 268.6014099121094 160.90597534179688 C 239.62928771972656 157.00802612304688 210.6153564453125 156.57757568359375 178.82093811035156 160.8862762451172" stroke-width="0.0" fill="rgb(103, 115, 133)" opacity="0.953994" stroke="rgb(0, 0, 0)" stroke-opacity="1.0" stroke-linecap="round" stroke-linejoin="round"/>
  </g>
</svg>
