<?xml version="1.0" ?>
<svg xmlns="http://www.w3.org/2000/svg" version="1.1" width="512" height="512">
  <defs/>
  <g>
    <path d="M -1.3885881900787354 -1.557628870010376 C -1.159523844718933 170.3333282470703 -0.8265235424041748 340.6666564941406 -1.0858434438705444 518.8560180664062 C 169.7472381591797 518.4345703125 340.1881103515625 518.4959716796875 519.2330322265625 518.7640380859375 C 519.8075561523438 340.7576904296875 520.3280029296875 170.37338256835938 520.4732666015625 -0.7277272343635559 C 340.6666564941406 -1.2064766883850098 170.3333282470703 -1.4533557891845703 -1.3885881900787354 -1.557628870010376" stroke-width="0.0" fill="rgb(104, 131, 83)" opacity="1.0" stroke="rgb(0, 0, 0)" stroke-opacity="1.0" stroke-linecap="round" stroke-linejoin="round"/>
    <path d="M 33.4710693359375 282.29339599609375 C 35.653175354003906 296.0460510253906 35.76523208618164 316.2205810546875 37.0045051574707 338.5895690917969 C 45.65656661987305 352.7913513183594 45.64083480834961 369.239501953125 61.27485275268555 377.47747802734375 C 88.83643341064453 383.3592529296875 128.3594512939453 382.6856994628906 167.302490234375 388.4200439453125 C 173.1999053955078 384.4423522949219 191.78208923339844 388.51007080078125 208.3378143310547 385.8441467285156 C 210.2731475830078 392.58709716796875 224.4825897216797 387.6062316894531 230.1614532470703 390.8135070800781 C 238.90945434570312 399.35968017578125 254.13729858398438 406.8241882324219 261.1341247558594 409.77587890625 C 274.7007141113281 411.9974060058594 285.8341064453125 410.9493408203125 291.4399108886719 407.8418884277344 C 297.86767578125 402.9662170410156 302.1746520996094 397.0593566894531 309.05963134765625 393.3033752441406 C 310.1537170410156 386.36883544921875 313.86126708984375 380.345458984375 314.2345275878906 376.9212646484375 C 338.3434753417969 363.9537048339844 370.53765869140625 360.7282409667969 394.380859375 354.2877197265625 C 401.9796142578125 362.8139953613281 399.5672607421875 353.47808837890625 400.6170349121094 350.3991394042969 C 402.3621520996094 351.2978210449219 402.2046203613281 357.2760009765625 403.22528076171875 358.232666015625 C 429.1437072753906 355.3695068359375 445.8959045410156 363.8910217285156 458.9145812988281 361.3945007324219 C 468.2196960449219 359.3572998046875 472.2294921875 354.5550842285156 473.1216125488281 348.222900390625 C 479.0283508300781 335.9700622558594 478.10675048828125 320.5916748046875 482.7569274902344 305.369140625 C 480.6705017089844 290.1535949707031 480.8934326171875 273.12213134765625 476.5577087402344 259.8053894042969 C 471.5885314941406 244.69215393066406 460.34326171875 236.85018920898438 456.186767578125 226.6712646484375 C 449.83154296875 206.1083221435547 444.6316223144531 185.9113311767578 438.0193786621094 174.65087890625 C 426.5830993652344 166.1852264404297 416.4623718261719 162.19151306152344 403.1091613769531 157.92832946777344 C 383.062255859375 154.2655029296875 360.0129699707031 151.43907165527344 337.93634033203125 149.2080841064453 C 305.16705322265625 147.764404296875 271.515380859375 147.30906677246094 240.02130126953125 148.1953887939453 C 215.70693969726562 149.10455322265625 200.49127197265625 152.18182373046875 181.28546142578125 157.29147338867188 C 174.21600341796875 159.7458038330078 169.80943298339844 164.8807373046875 165.54849243164062 169.86947631835938 C 152.77239990234375 190.80386352539062 143.0057373046875 215.44244384765625 131.10653686523438 229.89393615722656 C 108.83332061767578 242.4051971435547 77.54713439941406 240.7856903076172 51.89418029785156 252.5356903076172 C 42.42483901977539 256.94732666015625 34.52009201049805 263.2574462890625 33.4710693359375 282.29339599609375" stroke-width="0.0" fill="rgb(50, 64, 69)" opacity="0.9590085" stroke="rgb(0, 0, 0)" stroke-opacity="1.0" stroke-linecap="round" stroke-linejoin="round"/>
    <path d="M -3.814871311187744 358.9806213378906 C -6.701364517211914 403.7936096191406 -6.8878865242004395 457.0689392089844 -6.877183437347412 519.2922973632812 C 169.44497680664062 519.33935546875 339.3849182128906 520.2700805664062 518.9210205078125 521.0210571289062 C 518.9879150390625 456.2259521484375 519.1044921875 401.27618408203125 521.2364501953125 351.8754577636719 C 509.04510498046875 354.02191162109375 500.37738037109375 351.7565612792969 489.2049255371094 354.4673767089844 C 500.87158203125 348.82135009765625 500.0064697265625 345.4828186035156 502.3215026855469 341.876708984375 C 497.24859619140625 349.8800048828125 493.3497619628906 355.3341064453125 477.57537841796875 355.1069030761719 C 472.068603515625 353.3513488769531 473.54425048828125 363.6973876953125 457.2759704589844 365.6981506347656 C 445.77239990234375 367.4381103515625 432.60577392578125 363.9150085449219 419.015380859375 367.3078918457031 C 382.3009948730469 372.8547668457031 348.689208984375 382.7480163574219 318.3553466796875 391.38482666015625 C 311.9742431640625 393.6478576660156 305.65692138671875 402.77294921875 304.9978332519531 406.8661193847656 C 294.9267883300781 407.47412109375 282.0296325683594 417.9197692871094 255.48599243164062 410.2502746582031 C 228.61134338378906 397.1205749511719 142.31472778320312 395.50457763671875 61.29631042480469 381.68743896484375 C 57.94165802001953 379.4434509277344 52.530033111572266 377.88946533203125 50.11091995239258 372.94464111328125 C 42.06282043457031 360.54864501953125 39.055728912353516 344.5958251953125 26.947851181030273 336.3736267089844 C 19.216115951538086 345.24102783203125 10.734735488891602 339.5643005371094 7.383772850036621 343.6718444824219 C 12.642411231994629 348.126220703125 3.30932879447937 339.0888366699219 -3.814871311187744 358.9806213378906" stroke-width="0.0" fill="rgb(185, 183, 178)" opacity="0.8755174" stroke="rgb(0, 0, 0)" stroke-opacity="1.0" stroke-linecap="round" stroke-linejoin="round"/>
    <path d="M 480.72357177734375 319.3482666015625 C 479.2384948730469 332.9244689941406 476.62884521484375 343.21856689453125 471.5161437988281 355.6308898925781 C 483.8778076171875 356.2129821777344 496.96063232421875 351.5140075683594 519.3103637695312 353.80224609375 C 520.2183837890625 346.48870849609375 520.7605590820312 337.8335266113281 519.3060913085938 326.7398681640625 C 501.41497802734375 321.8030090332031 490.0653381347656 321.24468994140625 480.72357177734375 319.3482666015625" stroke-width="0.0" fill="rgb(94, 118, 56)" opacity="0.91909015" stroke="rgb(0, 0, 0)" stroke-opacity="1.0" stroke-linecap="round" stroke-linejoin="round"/>
    <path d="M 38.99716567993164 336.9835510253906 C 40.668312072753906 344.822265625 42.68553924560547 348.8018798828125 47.6583366394043 353.5664367675781 C 52.42615509033203 352.654296875 55.28774642944336 356.2707214355469 59.88252258300781 355.06048583984375 C 63.03941345214844 355.7324523925781 67.98023986816406 362.3806457519531 70.58450317382812 367.21136474609375 C 69.38419342041016 357.0296936035156 82.22640991210938 355.67474365234375 94.18452453613281 356.1437072753906 C 101.68607330322266 356.12451171875 123.14591217041016 359.3235778808594 146.8787384033203 363.33062744140625 C 159.38389587402344 363.0081787109375 161.969970703125 372.90545654296875 155.58258056640625 381.250244140625 C 181.46246337890625 369.7768859863281 217.22811889648438 372.41680908203125 241.06744384765625 366.9316101074219 C 251.9946746826172 355.4959411621094 253.480224609375 333.8505859375 264.3805236816406 321.6913757324219 C 272.172119140625 312.4360656738281 278.532470703125 307.70068359375 287.8135986328125 308.6026611328125 C 298.5340270996094 309.0950927734375 305.88580322265625 313.0392761230469 309.1587829589844 323.2331848144531 C 316.768310546875 334.1874694824219 314.96734619140625 346.98614501953125 315.3044128417969 359.9415283203125 C 317.677734375 358.8823547363281 316.06292724609375 366.1625671386719 325.26068115234375 365.2446594238281 C 362.3671875 356.1285095214844 399.97705078125 347.24237060546875 434.0286865234375 337.2394714355469 C 446.8924865722656 330.2845458984375 441.79058837890625 307.30181884765625 453.85986328125 295.23590087890625 C 457.0884094238281 289.1820983886719 461.1207580566406 284.8260498046875 461.8404235839844 285.2779846191406 C 458.3265686035156 284.4203186035156 465.7899475097656 282.7441101074219 479.0155944824219 284.31353759765625 C 479.79144287109375 267.39910888671875 474.939208984375 256.0623474121094 468.5854797363281 246.01629638671875 C 464.0406494140625 241.43756103515625 459.2334289550781 234.84280395507812 458.36944580078125 234.46998596191406 C 408.2630920410156 233.9170379638672 372.81646728515625 243.19503784179688 332.6968078613281 243.51068115234375 C 296.4510498046875 238.09725952148438 256.554931640625 235.4337615966797 217.34344482421875 230.40126037597656 C 190.81166076660156 229.44619750976562 161.79689025878906 227.01657104492188 133.1760711669922 230.61209106445312 C 106.6947250366211 244.03372192382812 67.8011245727539 242.27342224121094 48.99565887451172 256.37506103515625 C 41.89019775390625 260.2139587402344 37.34095764160156 274.0104675292969 40.053977966308594 288.7139587402344 C 34.03417205810547 299.0335998535156 41.070735931396484 313.94366455078125 38.99716567993164 336.9835510253906" stroke-width="0.0" fill="rgb(121, 157, 190)" opacity="1.0" stroke="rgb(0, 0, 0)" stroke-opacity="1.0" stroke-linecap="round" stroke-linejoin="round"/>
    <path d="M 133.85760498046875 228.71852111816406 C 207.10992431640625 224.203857421875 260.8595275878906 237.61968994140625 353.99560546875 242.36949157714844 C 375.8387451171875 237.00474548339844 418.7704772949219 237.1419677734375 455.7539367675781 231.29075622558594 C 451.9434814453125 210.001220703125 446.21746826171875 190.72723388671875 438.8968200683594 175.71163940429688 C 423.6009826660156 167.17555236816406 400.1814270019531 159.93153381347656 379.5707702636719 154.17294311523438 C 350.77740478515625 150.48428344726562 322.902587890625 148.4715118408203 299.06964111328125 148.70851135253906 C 268.57733154296875 146.1453857421875 241.0244903564453 149.0382843017578 215.38018798828125 149.9947509765625 C 201.1811065673828 152.220947265625 187.2770538330078 155.40101623535156 174.4718475341797 160.42059326171875 C 159.55421447753906 174.35781860351562 149.71456909179688 202.42095947265625 133.85760498046875 228.71852111816406" stroke-width="0.0" fill="rgb(118, 142, 165)" opacity="1.0" stroke="rgb(0, 0, 0)" stroke-opacity="1.0" stroke-linecap="round" stroke-linejoin="round"/>
    <path d="M 290.3856506347656 309.2503356933594 C 282.7746887207031 307.35577392578125 278.7574157714844 310.37481689453125 271.369384765625 314.59478759765625 C 264.85345458984375 320.3619079589844 260.1206970214844 327.6977844238281 256.0643310546875 336.463623046875 C 251.63824462890625 349.06195068359375 244.69454956054688 364.2303466796875 243.4273223876953 371.2895812988281 C 242.28199768066406 390.0654602050781 244.97354125976562 403.406005859375 250.84225463867188 406.40106201171875 C 258.91461181640625 410.693359375 274.4081115722656 413.8405456542969 286.1170654296875 410.51129150390625 C 294.9959411621094 408.9103088378906 300.0520324707031 398.5617370605469 307.261962890625 394.15679931640625 C 311.0848388671875 375.9064025878906 318.5831604003906 360.9437255859375 315.38372802734375 351.1445007324219 C 314.81048583984375 332.5010681152344 311.0947265625 325.36444091796875 306.84466552734375 318.70635986328125 C 303.4390563964844 314.2738037109375 300.58746337890625 309.528564453125 290.3856506347656 309.2503356933594" stroke-width="0.0" fill="rgb(54, 66, 63)" opacity="1.0" stroke="rgb(0, 0, 0)" stroke-opacity="1.0" stroke-linecap="round" stroke-linejoin="round"/>
    <path d="M 474.1732482910156 283.4581298828125 C 462.325927734375 282.00299072265625 457.5902404785156 286.5622863769531 454.941650390625 292.9032897949219 C 442.54290771484375 307.71600341796875 446.08038330078125 330.36773681640625 435.4369812011719 341.9476318359375 C 433.156494140625 357.1121826171875 434.80633544921875 354.1346435546875 438.9733581542969 361.83251953125 C 441.1617126464844 363.38861083984375 453.2294921875 364.092529296875 456.8915100097656 363.9125061035156 C 467.6730041503906 361.6149597167969 470.6034240722656 359.1163330078125 473.9425964355469 351.2041320800781 C 478.7159118652344 339.6105651855469 478.60870361328125 325.1662292480469 482.1266174316406 311.0650329589844 C 481.9972229003906 292.9781799316406 481.5975341796875 286.51995849609375 474.1732482910156 283.4581298828125" stroke-width="0.0" fill="rgb(69, 82, 77)" opacity="1.0" stroke="rgb(0, 0, 0)" stroke-opacity="1.0" stroke-linecap="round" stroke-linejoin="round"/>
    <path d="M 75.60208129882812 356.2947082519531 C 73.41446685791016 365.6528625488281 75.45118713378906 374.4510498046875 80.03321838378906 375.4665222167969 C 104.4857406616211 379.3971252441406 130.17471313476562 383.4834899902344 157.51861572265625 384.4045715332031 C 158.0872344970703 367.2674255371094 157.33778381347656 364.37451171875 152.1645050048828 363.5385437011719 C 124.77490234375 360.68719482421875 101.97370147705078 353.7275390625 75.60208129882812 356.2947082519531" stroke-width="0.0" fill="rgb(203, 209, 208)" opacity="0.979198" stroke="rgb(0, 0, 0)" stroke-opacity="1.0" stroke-linecap="round" stroke-linejoin="round"/>
    <path d="M -8.181624412536621 413.5007019042969 C -7.010941982269287 444.60125732421875 -6.6677727699279785 477.7458190917969 -6.407717704772949 519.2910766601562 C 170.3186492919922 519.3071899414062 340.6535339355469 519.3331909179688 519.3956909179688 519.315185546875 C 520.6773071289062 499.8448791503906 521.7347412109375 495.3451843261719 509.82427978515625 498.7498779296875 C 412.4630126953125 482.2522277832031 313.3338623046875 471.169677734375 225.7694549560547 452.3134765625 C 158.74168395996094 443.4042663574219 100.23640441894531 435.8687438964844 32.23112869262695 431.2620849609375 C 10.865299224853516 426.2358703613281 25.181753158569336 413.51416015625 -8.181624412536621 413.5007019042969" stroke-width="0.0" fill="rgb(165, 163, 160)" opacity="1.0" stroke="rgb(0, 0, 0)" stroke-opacity="1.0" stroke-linecap="round" stroke-linejoin="round"/>
    <path d="M 518.8640747070312 362.02276611328125 C 505.6087646484375 357.3538818359375 505.00634765625 353.0461730957031 491.95947265625 354.85882568359375 C 470.84100341796875 358.0371398925781 476.05706787109375 352.7132568359375 463.8627624511719 366.0623474121094 C 435.0870666503906 367.1785888671875 416.7057189941406 365.4732666015625 388.40155029296875 373.5973205566406 C 362.3758544921875 380.1611328125 341.145263671875 388.92828369140625 313.8947448730469 393.83221435546875 C 306.8000793457031 403.8476867675781 297.83892822265625 409.0981750488281 285.0909118652344 416.6461486816406 C 308.0063171386719 417.1697998046875 304.3388671875 423.3554382324219 334.9572448730469 418.82110595703125 C 336.16973876953125 414.0823974609375 328.09246826171875 413.41510009765625 338.3893127441406 413.0149230957031 C 351.8728942871094 432.1677551269531 380.4205322265625 424.0110168457031 394.35675048828125 440.4154052734375 C 398.399169921875 426.92779541015625 401.2193908691406 438.37066650390625 413.72906494140625 429.09027099609375 C 428.7280578613281 428.77667236328125 434.06829833984375 438.8940734863281 450.2701416015625 434.83026123046875 C 450.433349609375 431.7946472167969 446.3310241699219 427.021728515625 444.6385803222656 428.2757873535156 C 451.5151672363281 427.56085205078125 453.9781188964844 424.6354064941406 462.386962890625 425.9139404296875 C 469.6306457519531 408.0343017578125 487.0151672363281 409.92230224609375 495.6222229003906 397.9594421386719 C 503.8981018066406 394.5401611328125 503.94024658203125 402.34552001953125 517.3665161132812 396.8269348144531 C 518.5082397460938 384.5157775878906 518.5577392578125 372.5846862792969 518.8640747070312 362.02276611328125" stroke-width="0.0" fill="rgb(156, 159, 120)" opacity="1.0" stroke="rgb(0, 0, 0)" stroke-opacity="1.0" stroke-linecap="round" stroke-linejoin="round"/>
    <path d="M 235.55368041992188 368.4515075683594 C 225.12069702148438 368.8764953613281 217.82977294921875 372.543701171875 208.96812438964844 370.66717529296875 C 199.7913818359375 371.7095642089844 207.0595703125 379.2029724121094 200.73934936523438 379.88421630859375 C 191.2335662841797 379.44134521484375 190.95962524414062 379.3987121582031 183.60958862304688 383.89263916015625 C 180.09915161132812 385.3448486328125 179.66954040527344 394.5404052734375 182.4844970703125 398.49444580078125 C 195.69252014160156 401.7433776855469 219.49728393554688 401.8435363769531 240.84194946289062 400.41583251953125 C 237.85104370117188 387.8155822753906 235.13999938964844 382.3426818847656 235.55368041992188 368.4515075683594" stroke-width="0.0" fill="rgb(11, 19, 10)" opacity="1.0" stroke="rgb(0, 0, 0)" stroke-opacity="1.0" stroke-linecap="round" stroke-linejoin="round"/>
    <path d="M 136.1781463623047 227.6510467529297 C 203.41256713867188 224.59681701660156 250.15713500976562 234.67396545410156 296.70941162109375 237.50653076171875 C 326.014404296875 238.16810607910156 312.5999450683594 225.1279296875 321.86004638671875 219.35610961914062 C 322.8916931152344 203.759033203125 327.0827331542969 190.23121643066406 325.0370178222656 172.71109008789062 C 279.5401916503906 163.46119689941406 227.30264282226562 164.9465789794922 174.58444213867188 162.3668212890625 C 159.212890625 176.9971923828125 149.4134979248047 201.68406677246094 136.1781463623047 227.6510467529297" stroke-width="0.0" fill="rgb(161, 179, 180)" opacity="1.0" stroke="rgb(0, 0, 0)" stroke-opacity="1.0" stroke-linecap="round" stroke-linejoin="round"/>
    <path d="M 332.2992858886719 181.74221801757812 C 328.7933044433594 195.22866821289062 327.035888671875 219.6728515625 327.3987731933594 241.02003479003906 C 373.76165771484375 245.7529754638672 418.5977783203125 237.140625 432.4645080566406 231.2459259033203 C 428.9855651855469 233.67588806152344 428.4447326660156 219.54835510253906 442.9118957519531 215.87393188476562 C 451.12652587890625 207.57749938964844 441.1761169433594 187.1281280517578 432.4493408203125 174.9212646484375 C 404.7195129394531 170.12734985351562 371.1163330078125 171.23812866210938 344.95166015625 170.45858764648438 C 339.237548828125 171.00950622558594 333.9933776855469 173.39849853515625 332.2992858886719 181.74221801757812" stroke-width="0.0" fill="rgb(78, 137, 164)" opacity="0.5830788" stroke="rgb(0, 0, 0)" stroke-opacity="1.0" stroke-linecap="round" stroke-linejoin="round"/>
    <path d="M 287.6038818359375 330.9059143066406 C 280.1454162597656 330.6748352050781 277.5971984863281 336.4581298828125 273.3045959472656 339.6260681152344 C 266.83355712890625 354.6669006347656 266.01593017578125 359.1166076660156 267.09844970703125 379.5496826171875 C 270.89306640625 388.4385070800781 269.24322509765625 390.90753173828125 280.6379699707031 396.22979736328125 C 284.8274230957031 396.4066467285156 292.786376953125 394.479736328125 297.0465087890625 391.3961181640625 C 299.9214172363281 383.9779968261719 304.7809143066406 378.9726257324219 304.4111022949219 364.83221435546875 C 303.3858337402344 358.3551940917969 303.50323486328125 349.59228515625 301.4173278808594 347.0145568847656 C 299.47821044921875 338.3739318847656 294.49267578125 331.92645263671875 287.6038818359375 330.9059143066406" stroke-width="0.0" fill="rgb(154, 169, 160)" opacity="1.0" stroke="rgb(0, 0, 0)" stroke-opacity="1.0" stroke-linecap="round" stroke-linejoin="round"/>
    <path d="M 207.94850158691406 271.1243896484375 C 201.25082397460938 273.31536865234375 196.1370391845703 273.57867431640625 193.88165283203125 280.8963623046875 C 190.86326599121094 282.41558837890625 189.62838745117188 293.8691101074219 191.46531677246094 299.2374267578125 C 195.07196044921875 306.68597412109375 200.44757080078125 311.2671813964844 209.2239532470703 312.34686279296875 C 220.18994140625 311.8621520996094 222.06358337402344 306.4219970703125 225.63534545898438 303.09259033203125 C 227.5929412841797 300.8198547363281 227.96499633789062 291.7784729003906 225.93194580078125 283.18218994140625 C 225.2173309326172 282.02276611328125 222.49847412109375 275.32257080078125 218.33995056152344 272.9920959472656 C 215.2508544921875 272.4147644042969 212.3656005859375 269.9590148925781 207.94850158691406 271.1243896484375" stroke-width="0.0" fill="rgb(189, 201, 204)" opacity="1.0" stroke="rgb(0, 0, 0)" stroke-opacity="1.0" stroke-linecap="round" stroke-linejoin="round"/>
    <path d="M 49.49856948852539 254.53030395507812 C 43.58237075805664 257.21917724609375 37.502418518066406 262.5674743652344 35.711944580078125 267.3698425292969 C 30.82697296142578 276.79266357421875 32.71432876586914 290.4156799316406 36.15676498413086 295.8046875 C 48.794189453125 299.21734619140625 58.70819091796875 295.1191711425781 62.50184631347656 289.1250915527344 C 63.58142852783203 283.7947998046875 63.621307373046875 270.09521484375 60.31728744506836 264.5293884277344 C 58.038818359375 260.9502258300781 54.78618621826172 257.14697265625 49.49856948852539 254.53030395507812" stroke-width="0.0" fill="rgb(235, 239, 228)" opacity="0.7564015" stroke="rgb(0, 0, 0)" stroke-opacity="1.0" stroke-linecap="round" stroke-linejoin="round"/>
    <path d="M 397.5096435546875 239.76303100585938 C 366.9096984863281 242.67434692382812 339.3597717285156 238.45240783691406 325.6632995605469 250.23410034179688 C 327.5467529296875 282.2529602050781 326.54205322265625 318.239501953125 326.1534118652344 350.613037109375 C 322.4468994140625 357.7891845703125 324.4089660644531 351.1934814453125 330.610595703125 359.34686279296875 C 355.3935852050781 354.42059326171875 379.2522277832031 347.60345458984375 400.2077331542969 341.1670227050781 C 403.5384826660156 301.6567077636719 397.5456848144531 273.6153564453125 397.5096435546875 239.76303100585938" stroke-width="0.0" fill="rgb(90, 118, 149)" opacity="0.783384" stroke="rgb(0, 0, 0)" stroke-opacity="1.0" stroke-linecap="round" stroke-linejoin="round"/>
    <path d="M 440.88372802734375 211.08177185058594 C 431.3884582519531 230.77394104003906 387.2527160644531 251.70909118652344 408.21014404296875 321.16851806640625 C 401.9704284667969 336.85687255859375 406.3260192871094 340.38372802734375 411.7101135253906 339.252685546875 C 424.4720153808594 336.5888671875 435.9686584472656 336.5443115234375 439.87591552734375 330.9965515136719 C 444.5922546386719 313.2690734863281 446.7603759765625 298.7633972167969 454.4948425292969 284.0294494628906 C 456.788818359375 264.804443359375 453.702392578125 252.87046813964844 454.62890625 236.00527954101562 C 445.32452392578125 223.58103942871094 446.32537841796875 191.2437286376953 446.1318054199219 209.40435791015625 C 440.9309387207031 217.6580352783203 427.0906982421875 208.79920959472656 440.88372802734375 211.08177185058594" stroke-width="0.0" fill="rgb(107, 134, 159)" opacity="0.7461323" stroke="rgb(0, 0, 0)" stroke-opacity="1.0" stroke-linecap="round" stroke-linejoin="round"/>
    <path d="M 62.0296745300293 305.15313720703125 C 61.0091438293457 311.937255859375 60.69175338745117 328.0151062011719 65.1690902709961 332.72760009765625 C 98.20824432373047 337.28155517578125 131.4990234375 342.294677734375 170.39816284179688 343.36688232421875 C 170.83277893066406 356.2405700683594 165.7671356201172 373.1125793457031 176.917724609375 371.85699462890625 C 180.47811889648438 369.8896484375 180.94680786132812 356.7029724121094 182.6932373046875 346.0406799316406 C 186.33407592773438 343.2326965332031 196.68663024902344 348.310791015625 198.28054809570312 341.4031677246094 C 197.28131103515625 329.81781005859375 196.2411346435547 318.2619323730469 191.20631408691406 312.1807861328125 C 185.49325561523438 302.1940002441406 178.6123046875 299.1662902832031 166.94113159179688 295.9469299316406 C 139.4368133544922 289.8745422363281 111.00846862792969 286.9222106933594 77.60059356689453 288.0849914550781 C 69.33788299560547 288.6127014160156 64.450439453125 296.0690612792969 62.0296745300293 305.15313720703125" stroke-width="0.0" fill="rgb(133, 132, 128)" opacity="0.93776053" stroke="rgb(0, 0, 0)" stroke-opacity="1.0" stroke-linecap="round" stroke-linejoin="round"/>
    <path d="M 180.11517333984375 157.90927124023438 C 261.78057861328125 157.12123107910156 328.0807800292969 169.08677673339844 436.3563232421875 169.65185546875 C 430.19525146484375 162.03744506835938 420.38677978515625 160.788330078125 409.3685607910156 157.20187377929688 C 386.1570129394531 152.113525390625 359.855224609375 150.02967834472656 334.1583557128906 148.30198669433594 C 297.2179870605469 146.76039123535156 269.2429504394531 146.16778564453125 230.8256378173828 148.60049438476562 C 216.04891967773438 149.2715301513672 191.41433715820312 150.62380981445312 180.11517333984375 157.90927124023438" stroke-width="0.0" fill="rgb(209, 217, 208)" opacity="1.0" stroke="rgb(0, 0, 0)" stroke-opacity="1.0" stroke-linecap="round" stroke-linejoin="round"/>
    <path d="M 466.82952880859375 302.30230712890625 C 457.71820068359375 299.4498291015625 456.478515625 306.1914367675781 453.2163391113281 313.9339904785156 C 450.8446350097656 324.4698791503906 451.16644287109375 335.42510986328125 452.2411804199219 343.0500183105469 C 452.4157409667969 346.9079284667969 456.5444030761719 351.91717529296875 461.8336181640625 352.664794921875 C 468.3748779296875 349.47161865234375 471.98974609375 343.54095458984375 472.4112854003906 334.438720703125 C 474.3499755859375 315.53277587890625 474.8638000488281 309.8153991699219 466.82952880859375 302.30230712890625" stroke-width="0.0" fill="rgb(181, 188, 172)" opacity="1.0" stroke="rgb(0, 0, 0)" stroke-opacity="1.0" stroke-linecap="round" stroke-linejoin="round"/>
    <path d="M 336.4124450683594 174.50997924804688 C 330.43218994140625 188.57110595703125 326.6977844238281 213.31158447265625 328.1651916503906 237.5937042236328 C 342.033203125 244.41229248046875 371.3409729003906 239.53720092773438 389.5328674316406 234.353515625 C 391.47906494140625 216.8502655029297 388.8268737792969 190.25819396972656 384.8856506347656 176.69277954101562 C 377.18450927734375 171.21400451660156 353.63555908203125 170.27391052246094 336.4124450683594 174.50997924804688" stroke-width="0.0" fill="rgb(123, 155, 159)" opacity="0.7313829" stroke="rgb(0, 0, 0)" stroke-opacity="1.0" stroke-linecap="round" stroke-linejoin="round"/>
    <path d="M 395.0233154296875 175.46038818359375 C 393.0823974609375 186.82057189941406 398.04248046875 205.29635620117188 399.4949951171875 220.18272399902344 C 403.6722412109375 227.24769592285156 418.07501220703125 223.6654510498047 428.1688232421875 227.8563995361328 C 432.577880859375 228.9301300048828 441.65069580078125 226.60208129882812 445.7729187011719 220.2476806640625 C 443.0543212890625 206.2666473388672 440.1966552734375 191.08338928222656 433.0960998535156 180.01722717285156 C 431.3078308105469 174.98907470703125 407.8698425292969 171.73133850097656 395.0233154296875 175.46038818359375" stroke-width="0.0" fill="rgb(114, 161, 62)" opacity="0.8290367" stroke="rgb(0, 0, 0)" stroke-opacity="1.0" stroke-linecap="round" stroke-linejoin="round"/>
    <path d="M 203.8197021484375 166.90011596679688 C 200.1638946533203 164.26795959472656 180.2784423828125 167.70248413085938 178.4532012939453 167.27833557128906 C 169.2427520751953 184.34825134277344 159.05563354492188 199.72645568847656 152.84564208984375 214.42520141601562 C 158.29100036621094 225.53746032714844 179.1788787841797 219.72750854492188 185.25753784179688 221.4676971435547 C 193.29409790039062 201.6687469482422 198.5619354248047 184.93080139160156 203.8197021484375 166.90011596679688" stroke-width="0.0" fill="rgb(140, 183, 97)" opacity="0.8448232" stroke="rgb(0, 0, 0)" stroke-opacity="1.0" stroke-linecap="round" stroke-linejoin="round"/>
    <path d="M 338.4416809082031 176.01524353027344 C 331.0978698730469 183.1693878173828 331.87957763671875 201.87307739257812 330.6436767578125 219.42921447753906 C 351.17474365234375 219.53367614746094 373.6198425292969 221.6011505126953 386.65313720703125 220.04261779785156 C 387.8445129394531 201.71498107910156 387.00274658203125 182.6114044189453 381.61248779296875 176.86424255371094 C 373.6375732421875 172.59262084960938 343.7189025878906 172.58905029296875 338.4416809082031 176.01524353027344" stroke-width="0.0" fill="rgb(100, 150, 52)" opacity="0.8277183" stroke="rgb(0, 0, 0)" stroke-opacity="1.0" stroke-linecap="round" stroke-linejoin="round"/>
    <path d="M 335.07562255859375 245.41851806640625 C 349.96600341796875 240.06837463378906 374.8016052246094 241.91453552246094 392.8711853027344 237.8153076171875 C 390.6879577636719 227.81871032714844 392.1299743652344 219.8193817138672 387.4040222167969 219.58570861816406 C 370.0018005371094 219.5956573486328 346.86859130859375 220.0443878173828 330.2317199707031 217.1846923828125 C 325.915283203125 237.72216796875 323.0623779296875 244.6005859375 335.07562255859375 245.41851806640625" stroke-width="0.0" fill="rgb(255, 255, 255)" opacity="1.0" stroke="rgb(0, 0, 0)" stroke-opacity="1.0" stroke-linecap="round" stroke-linejoin="round"/>
    <path d="M 327.6506652832031 240.0496063232422 C 337.4017639160156 241.16868591308594 328.59796142578125 231.67025756835938 338.2891845703125 227.14256286621094 C 340.69091796875 224.1114959716797 348.0704345703125 227.2652587890625 349.94036865234375 227.94334411621094 C 352.02410888671875 233.03578186035156 353.8261413574219 235.1768798828125 352.3973693847656 241.35595703125 C 365.4862365722656 238.98301696777344 379.575439453125 240.06582641601562 393.8714904785156 235.81834411621094 C 391.79071044921875 232.7803497314453 395.007568359375 224.39369201660156 390.8963928222656 217.74505615234375 C 374.6578063964844 217.70401000976562 350.7715148925781 217.95187377929688 328.86834716796875 217.9524688720703 C 329.50640869140625 225.920654296875 327.7157287597656 237.27691650390625 327.6506652832031 240.0496063232422" stroke-width="0.0" fill="rgb(157, 170, 136)" opacity="0.622663" stroke="rgb(0, 0, 0)" stroke-opacity="1.0" stroke-linecap="round" stroke-linejoin="round"/>
  </g>
</svg>
