<?xml version="1.0" ?>
<svg xmlns="http://www.w3.org/2000/svg" version="1.1" width="512" height="512">
  <defs/>
  <g>
    <path d="M 265.9609680175781 177.55789184570312 C 271.26727294921875 175.96128845214844 262.8648376464844 178.2996063232422 264.3794860839844 167.29945373535156 C 253.59344482421875 162.21136474609375 309.8546447753906 173.27279663085938 313.09954833984375 169.28172302246094 C 211.255859375 155.40562438964844 170.0326385498047 164.4564971923828 237.3515625 164.1588134765625 C 243.67617797851562 169.20558166503906 244.79074096679688 166.1287841796875 248.59463500976562 167.3367462158203 C 249.51356506347656 185.110595703125 247.63087463378906 177.977294921875 242.8352813720703 184.11463928222656 C 239.88430786132812 179.2781982421875 239.82289123535156 188.15939331054688 238.92481994628906 192.70143127441406 C 232.86827087402344 182.43695068359375 229.66070556640625 187.37261962890625 238.45965576171875 188.59027099609375 C 231.94464111328125 185.59060668945312 236.51406860351562 186.5662841796875 235.07901000976562 187.28257751464844 C 222.61412048339844 208.74221801757812 223.41061401367188 222.29263305664062 219.58258056640625 218.19810485839844 C 191.54112243652344 216.1692657470703 208.96719360351562 223.6559600830078 215.352294921875 200.47120666503906 C 223.19949340820312 162.36224365234375 191.2127227783203 164.29437255859375 240.6454315185547 166.59786987304688 C 253.73007202148438 187.13560485839844 234.55870056152344 193.53709411621094 241.61900329589844 194.03990173339844 C 243.50389099121094 192.9638214111328 238.7766876220703 189.9943389892578 237.94577026367188 192.52691650390625 C 236.83380126953125 196.85696411132812 235.07150268554688 191.72250366210938 243.9217071533203 183.73211669921875 C 241.38624572753906 177.0320281982422 254.3218231201172 182.8186492919922 244.56732177734375 176.57093811035156 C 242.04835510253906 179.1043701171875 247.61752319335938 179.67173767089844 256.4718017578125 175.99334716796875 C 251.122314453125 182.25836181640625 244.71702575683594 179.0135955810547 245.77670288085938 179.82176208496094 C 243.3925323486328 162.02911376953125 232.353759765625 164.51724243164062 243.97744750976562 165.08969116210938 C 278.1668701171875 164.05418395996094 268.12139892578125 174.86314392089844 269.89605712890625 196.9626922607422 C 258.088623046875 196.2243194580078 263.6744689941406 187.23550415039062 255.74000549316406 182.7418975830078 C 262.5814208984375 193.36746215820312 251.48724365234375 208.87355041503906 244.99703979492188 220.49649047851562 C 256.9402160644531 213.03927612304688 250.20706176757812 205.9515380859375 252.71795654296875 195.6946563720703 C 257.9295349121094 192.2681427001953 252.97311401367188 187.58892822265625 256.840087890625 187.15789794921875 C 260.0373840332031 189.9934539794922 259.11029052734375 190.66708374023438 261.7064208984375 189.0006866455078 C 258.6368408203125 188.37420654296875 267.2164306640625 173.77484130859375 265.9609680175781 177.55789184570312" stroke-width="0.0" fill="rgb(38, 34, 29)" opacity="1.0" stroke="rgb(0, 0, 0)" stroke-opacity="1.0" stroke-linecap="round" stroke-linejoin="round"/>
    <path d="M 215.6808319091797 177.14048767089844 C 216.4913787841797 179.04762268066406 208.89012145996094 176.20201110839844 200.68402099609375 168.7135772705078 C 213.77552795410156 172.7572479248047 215.6260223388672 165.36761474609375 214.90975952148438 176.82345581054688 C 204.19418334960938 175.35440063476562 206.29647827148438 183.589111328125 206.12054443359375 173.07730102539062 C 216.97921752929688 181.26856994628906 215.79843139648438 172.74436950683594 216.10498046875 188.77777099609375 C 213.3221435546875 190.27011108398438 213.8949737548828 189.19482421875 221.64141845703125 196.9524383544922 C 211.07904052734375 218.25680541992188 217.0634307861328 215.8195037841797 184.7948455810547 219.3257598876953 C 195.31512451171875 207.0899658203125 202.62545776367188 202.75265502929688 191.91226196289062 210.18218994140625 C 198.85504150390625 184.97532653808594 203.8291473388672 174.08444213867188 215.6808319091797 177.14048767089844" stroke-width="0.0" fill="rgb(26, 27, 20)" opacity="1.0" stroke="rgb(0, 0, 0)" stroke-opacity="1.0" stroke-linecap="round" stroke-linejoin="round"/>
    <path d="M 99.20654296875 262.2898254394531 C 113.95460510253906 268.12451171875 119.31900024414062 262.41680908203125 109.97372436523438 274.13726806640625 C 128.41925048828125 283.5428466796875 128.4024200439453 273.04400634765625 139.42942810058594 273.3451232910156 C 144.57659912109375 266.2702331542969 148.54922485351562 262.639404296875 150.67547607421875 268.1480407714844 C 137.28668212890625 269.1033935546875 142.4385528564453 272.6372375488281 137.9265899658203 276.4098205566406 C 154.70889282226562 278.56475830078125 170.700439453125 279.7003173828125 187.0657501220703 280.11083984375 C 195.1533203125 269.34356689453125 173.1180877685547 274.7125244140625 172.09075927734375 265.1376647949219 C 172.74368286132812 268.6214294433594 172.72262573242188 269.0625305175781 172.01805114746094 264.5188903808594 C 172.46597290039062 273.0353698730469 187.11073303222656 266.49578857421875 183.20883178710938 273.6532287597656 C 187.66043090820312 276.6632995605469 194.75018310546875 274.42535400390625 179.50250244140625 268.5509033203125 C 168.21031188964844 267.3714904785156 157.9488067626953 264.24169921875 142.335693359375 269.4635925292969 C 145.6822967529297 264.1737365722656 149.52198791503906 265.6986083984375 152.45213317871094 267.30352783203125 C 140.7777099609375 264.8067626953125 122.455078125 258.69268798828125 99.20654296875 262.2898254394531" stroke-width="0.0" fill="rgb(34, 26, 17)" opacity="1.0" stroke="rgb(0, 0, 0)" stroke-opacity="1.0" stroke-linecap="round" stroke-linejoin="round"/>
    <path d="M 88.31553649902344 349.5238037109375 C 86.56639862060547 336.9120178222656 109.74295043945312 356.89410400390625 80.47481536865234 342.22393798828125 C 98.76477813720703 343.68109130859375 136.2358856201172 348.87603759765625 169.02340698242188 351.5011291503906 C 178.74607849121094 365.4740295410156 156.81785583496094 354.7408142089844 88.31553649902344 349.5238037109375" stroke-width="0.0" fill="rgb(114, 85, 52)" opacity="1.0" stroke="rgb(0, 0, 0)" stroke-opacity="1.0" stroke-linecap="round" stroke-linejoin="round"/>
    <path d="M 99.3049087524414 261.3850402832031 C 119.49579620361328 266.8708801269531 123.6895751953125 267.9384765625 131.04779052734375 263.0201110839844 C 139.98275756835938 261.9063415527344 142.24154663085938 272.1954650878906 140.41819763183594 275.953125 C 152.8456573486328 276.6455383300781 145.10366821289062 276.04248046875 140.0900421142578 273.5038757324219 C 153.1746368408203 271.3609313964844 174.2195281982422 278.2165222167969 189.75135803222656 276.0677185058594 C 173.11248779296875 270.4443054199219 157.78811645507812 268.86712646484375 140.96531677246094 269.8901672363281 C 140.19529724121094 264.96759033203125 133.3861846923828 265.9797668457031 128.8954315185547 262.5568542480469 C 124.71835327148438 260.3468933105469 117.3749008178711 269.7561340332031 99.3049087524414 261.3850402832031" stroke-width="0.0" fill="rgb(15, 11, 9)" opacity="1.0" stroke="rgb(0, 0, 0)" stroke-opacity="1.0" stroke-linecap="round" stroke-linejoin="round"/>
    <path d="M 183.43601989746094 353.7242431640625 C 179.3141326904297 362.6322937011719 185.5410919189453 359.92669677734375 178.87298583984375 360.1648254394531 C 216.83621215820312 361.32843017578125 218.21099853515625 367.3123779296875 250.8878936767578 360.24932861328125 C 234.44078063964844 354.4901123046875 224.08055114746094 358.73126220703125 183.43601989746094 353.7242431640625" stroke-width="0.0" fill="rgb(130, 114, 109)" opacity="1.0" stroke="rgb(0, 0, 0)" stroke-opacity="1.0" stroke-linecap="round" stroke-linejoin="round"/>
  </g>
</svg>
